<?xml version="1.0" encoding="UTF-8"?>
<svg width="94px" height="103px" viewBox="0 0 94 103" version="1.1" xmlns="http://www.w3.org/2000/svg" xmlns:xlink="http://www.w3.org/1999/xlink">
    <!-- Generator: Sketch 52.2 (67145) - http://www.bohemiancoding.com/sketch -->
    <title>man-4</title>
    <desc>Created with Sketch.</desc>
    <defs>
        <ellipse id="path-1" cx="46.3636364" cy="46.2857143" rx="46.3636364" ry="46.2857143"></ellipse>
        <path d="M4.63636364,61.7142857 L-3.19744231e-14,61.7142857 L-3.19744231e-14,-1.42108547e-14 L102,-1.42108547e-14 L102,61.7142857 L97.3636364,61.7142857 C97.3636364,87.2771798 76.6059293,108 51,108 C25.3940707,108 4.63636364,87.2771798 4.63636364,61.7142857 Z" id="path-3"></path>
        <path d="M29.3636364,55.7750102 C22.7133081,52.6157838 17.930293,46.1638683 17.1213595,38.5260319 C14.8691697,38.2093764 13.1363636,36.2745799 13.1363636,33.9350649 L13.1363636,28.5506494 C13.1363636,26.253334 14.8072215,24.3462685 17,23.97839 L17,21.6363636 C17,9.68692996 26.68693,2.19507536e-15 38.6363636,0 C50.5857973,-2.19507536e-15 60.2727273,9.68692996 60.2727273,21.6363636 L60.2727273,23.97839 C62.4655058,24.3462685 64.1363636,26.253334 64.1363636,28.5506494 L64.1363636,33.9350649 C64.1363636,36.2745799 62.4035576,38.2093764 60.1513678,38.5260319 C59.3424343,46.1638683 54.5594192,52.6157838 47.9090909,55.7750102 L47.9090909,62.9270139 C64.2890926,63.898769 77.2727273,77.4902822 77.2727273,94.1142857 L0,94.1142857 C-2.03585327e-15,77.4902822 12.9836347,63.898769 29.3636364,62.9270139 L29.3636364,55.7750102 Z" id="path-5"></path>
        <path d="M70.2958755,13.329718 C81.6351609,17.9089509 89.6363636,29.0200849 89.6363636,42 L12.3636364,42 C12.3636364,28.8675297 20.5540235,17.6480268 32.1053181,13.1709708 C32.0806826,13.4048466 32.0681818,13.6406562 32.0681818,13.8781841 C32.0681818,20.0947075 40.630736,25.1341953 51.1931818,25.1341953 C61.7556277,25.1341953 70.3181818,20.0947075 70.3181818,13.8781841 C70.3181818,13.6942989 70.3106897,13.5114435 70.2958755,13.329718 Z" id="path-7"></path>
        <path d="M13.6569393,5.84493891 C14.0683325,9.51219642 17.1989951,12.3636364 21,12.3636364 C24.8127466,12.3636364 27.9510029,9.49455253 28.3467953,5.81093019 C28.3786489,5.51447004 28.0454,5.02272727 27.6277427,5.02272727 C21.8356264,5.02272727 17.3980805,5.02272727 14.4226539,5.02272727 C14.0025732,5.02272727 13.61578,5.47803501 13.6569393,5.84493891 Z" id="path-9"></path>
        <rect id="path-11" x="0" y="0" width="102" height="108"></rect>
        <path d="M33.2493765,71.6899015 C33.4746079,72.9171122 33.605999,74.1591709 33.5059391,75.3737627 C33.347243,77.2987679 32.9852305,79.0973627 33.1782337,81.0449224 C33.5796045,85.0956509 35.2726442,88.9456614 36.6699703,92.811932 C37.3413772,94.6692736 40.2929437,96.8552893 39.0821942,98.3893941 C37.8714447,99.923499 33.7328284,96.2795641 32.8071709,94.5131401 C31.864886,92.7147202 31.0078425,90.8841294 30.0270413,89.0998716 C30.6569851,91.8298472 30.9714819,92.9843957 31.6233149,95.7110493 C31.9636487,97.1347838 33.667633,100.627313 31.0032633,101.193975 C27.5405718,101.930582 27.4062904,96.3383807 27.0636414,94.6716164 C26.4938926,91.9010776 25.8611616,90.8250329 24.9304527,88.1260043 C24.7450266,90.187211 25.0664179,92.3349644 24.6187431,94.3755398 C24.3489176,95.6058996 22.9320175,96.6236522 22.0808673,97.6671064 C19.1641411,101.244539 18.4700032,95.2431035 17.7301928,93.5973202 C16.4505208,94.5236306 13.664498,96.3592918 11.9577775,95.1937982 C10.6974689,94.3332282 11.4981058,92.7741663 11.7908729,91.7095562 C12.2625415,89.9948854 12.5428907,88.2990974 11.2819507,86.7458053 C10.0866781,87.9043052 7.44146126,88.5790187 5.90838049,87.4717473 C3.96950898,86.0717912 5.66991529,84.0249214 6.53895572,82.572338 C7.95375102,80.2083057 8.0156299,77.8395527 8.35175428,75.2650112 C8.39953151,74.8997673 8.46982928,74.5541056 8.51739604,74.1596631 C8.63589199,73.1782776 9.14733986,71.1394506 8.76154399,70.205622 C8.33596885,69.1752809 7.87145632,69.1649652 6.92811914,69.3996025 C5.59267193,69.7319763 4.49253283,70.475927 4.26669597,71.5510275 C3.94046379,73.1034454 5.64844711,73.7155656 5.78799029,75.0686642 C6.08854484,77.9811744 2.41811711,76.6135639 1.32618643,75.3069732 C-0.264984719,73.4031238 -0.315708561,71.2961086 0.598793905,69.1305214 C1.08856312,67.9713221 1.86015484,66.9402816 2.62185437,65.8989255 C3.61170594,64.5458269 3.90868246,64.3830494 3.736937,62.9493489 C3.44038143,60.4746419 2.76792219,58.250308 3.00954448,55.7261209 C3.25558668,53.1587479 4.03265069,50.8707717 5.18961733,48.4859333 C6.06202532,46.687863 7.67255993,45.0076359 8.34607153,43.1794929 C8.91371552,41.6384397 8.78974729,39.9001653 9.08040964,38.3131287 C9.45736566,36.2550691 10.0742602,34.2377476 10.4402717,32.1756666 C11.1529311,28.1637529 12.8249236,24.3105953 14.700443,20.57633 C15.7086056,18.5696738 16.6475229,16.5425611 18.0227494,14.6824221 C18.7288842,13.7276126 19.4996341,12.7467516 20.4421293,11.9396831 C21.305487,11.2002783 22.8581417,10.859687 23.6036349,10.1445851 C24.9847546,8.81998573 23.774328,6.48287904 25.5216696,4.98029096 C26.6026557,4.05065856 27.7280515,3.84487008 29.15316,3.61810062 C30.5462766,3.39657641 30.0857631,3.72632753 31.038782,2.72885662 C31.9623347,1.76268234 32.6627868,0.502074929 34.230806,0.137705187 C36.2298726,-0.326499068 37.8275684,0.979217456 39.5206082,1.60480044 C42.0086021,2.52394235 43.5654663,2.25591029 46.0084191,1.48695725 C47.6496827,0.970300538 48.721408,0.623939473 50.2570145,1.51598094 C51.2491812,2.09225862 52.012775,3.80937725 53.2217283,3.97390313 C54.6941931,4.1746212 56.7604003,2.80124101 58.3940869,2.85211989 C60.8911312,2.93027406 62.1047149,4.48846174 63.1379238,6.1526034 C63.7179856,7.08695652 64.0456911,6.9315224 64.7480374,7.58787749 C65.3737718,8.1727224 65.6555943,8.92436613 66.3221603,9.53106622 C68.766376,11.7559247 71.9691341,13.4828344 74.5970922,15.5797089 C79.5017299,19.4935364 80.6612222,24.7900108 80.9786146,30.1702343 C81.2330757,34.4825257 80.8371771,39.5476847 83.5895244,43.4052133 C85.0032673,45.3865175 86.567077,46.8768667 87.3496133,49.183551 C87.6358558,50.0268117 88.2643263,51.4183754 87.6712151,52.2623354 C86.9707631,53.259107 85.2086883,53.2690729 84.4509878,52.3170608 C83.7166497,54.5826573 86.2214814,57.8539423 87.5636637,59.7327893 C89.4353946,62.3520903 91.8606677,65.1331196 92.304133,68.2388296 C92.4805089,69.4723366 92.5783785,74.5014783 89.3838288,72.6481581 C89.279645,74.3317072 89.0096089,74.5707155 89.5155845,76.1990147 C89.858444,77.3017402 90.3208518,79.5220527 88.0191259,79.3215095 C88.8932177,81.7030259 90.296437,85.0162729 88.9807742,87.4829371 C86.8171182,91.5397851 84.3756387,86.4289924 83.7259105,84.5959539 C83.7652688,85.8609323 82.399724,88.140691 80.6906884,86.38196 C80.8253907,88.4697427 81.6637021,91.6960934 80.4347539,93.6539688 C78.049681,97.4544991 75.410147,92.6430351 75.3215381,90.6082294 C74.891543,91.983358 75.2152495,95.2894365 72.3818704,94.5234558 C69.9328139,93.8615057 70.8178502,90.6314834 71.2914131,89.1738296 C70.5128758,90.5456362 69.5560683,92.5883097 69.4051596,94.1374057 C69.2752982,95.4693484 70.5442361,98.6002356 67.2543425,98.0138172 C64.7297263,97.5639499 64.6394337,93.8127249 64.6825805,92.1590738 C64.7177294,90.8178644 66.0201325,87.7516686 65.1382532,86.6603078 C60.2098321,88.7202906 65.3735613,95.6504842 60.8972349,97.1911878 C59.5272702,97.6627354 58.4483888,96.9619705 57.8847438,95.9615273 C57.8148669,95.7747966 57.7452006,95.5884155 57.6755342,95.4016847 C57.8310733,94.7484768 57.5372539,94.4134804 56.7938655,94.3968705 C56.3230388,93.8268871 56.0138548,93.8438467 55.7093013,92.9886968 C54.8137414,90.4736015 56.5579259,87.1297573 57.8114994,84.8867153 C56.5135163,86.0658466 55.4678895,87.6854036 54.0594084,88.7113737 C53.1065999,89.4053197 51.7029597,89.6030655 50.8126615,88.64371 C49.8377535,87.5932621 50.7589911,86.586175 51.2847511,85.6285679 C52.4463481,83.5128106 54.2766159,82.2803527 56.1898097,80.5826414 C57.8622232,79.0985866 59.3529991,77.4278009 60.8366188,75.8126149 C61.6259054,74.9535813 62.3872882,74.0428305 63.0658167,73.0886255 C60.3901505,72.1564656 57.5488023,71.577914 54.5977444,71.408943 L54.5977444,64.25612 C58.8958162,62.2143288 62.4156382,58.8002266 64.5909845,54.5800394 C64.7538649,49.5705077 65.3225428,41.2731444 64.9548295,36.6782633 C64.4627451,30.5292616 64.4159691,27.095338 60.2334621,21.7733367 C56.7939226,17.3968785 47.395853,18.8421185 43.8786492,14.8263583 C42.2820057,16.6702371 39.9516556,17.6502238 37.3986257,18.2941652 C34.8759038,18.9300638 32.3413955,19.0337448 30.6534071,20.8256957 C27.6322866,24.0326389 26.3023117,26.1793016 25.3770751,30.1812493 C24.3516537,34.6171537 24.0833014,39.013369 24.395011,43.5186855 C24.62782,46.8835009 24.5696398,50.4224936 25.5892314,53.6997084 C27.7137967,58.3250192 31.4181538,62.0741646 36.0112782,64.25612 L36.0112782,71.408943 C35.0791097,71.4623169 34.1578877,71.5565578 33.2493765,71.6899016 Z" id="path-13"></path>
        <filter x="-8.0%" y="-25.1%" width="116.1%" height="150.5%" filterUnits="objectBoundingBox" id="filter-15">
            <feOffset dx="0" dy="2" in="SourceAlpha" result="shadowOffsetOuter1"></feOffset>
            <feColorMatrix values="0 0 0 0 0   0 0 0 0 0   0 0 0 0 0  0 0 0 0.2 0" type="matrix" in="shadowOffsetOuter1" result="shadowMatrixOuter1"></feColorMatrix>
            <feMerge>
                <feMergeNode in="shadowMatrixOuter1"></feMergeNode>
                <feMergeNode in="SourceGraphic"></feMergeNode>
            </feMerge>
        </filter>
        <linearGradient x1="50%" y1="0%" x2="50%" y2="100%" id="linearGradient-16">
            <stop stop-color="#FFFFFF" stop-opacity="0.5" offset="0%"></stop>
            <stop stop-color="#000000" stop-opacity="0.5" offset="70.5058195%"></stop>
        </linearGradient>
        <path d="M17.3977729,6.83333333 C17.3977729,10.6064722 14.2022975,13.6666667 8.87764085,13.6666667 L7.81248239,13.6666667 C2.4878257,13.6666667 0.357508803,10.6053333 0.357508803,6.83333333 C0.357508803,3.05905556 0.854885563,0 8.30985915,0 L9.44542254,0 C16.9003961,0 17.3977729,3.05905556 17.3977729,6.83333333 Z" id="path-17"></path>
        <path d="M41.2446039,6.83333333 C41.2446039,10.6064722 38.0502641,13.6666667 32.7244718,13.6666667 L31.6593134,13.6666667 C26.3346567,13.6666667 24.2043398,10.6053333 24.2043398,6.83333333 C24.2043398,3.05905556 24.7017165,0 32.1566901,0 L33.2922535,0 C40.7460915,0 41.2446039,3.05905556 41.2446039,6.83333333 Z" id="path-18"></path>
    </defs>
    <g id="Lsnding-Page" stroke="none" stroke-width="1" fill="none" fill-rule="evenodd">
        <g id="Avataaar/Circle" transform="translate(-4.000000, -5.000000)">
            <g id="Circle" stroke-width="1" fill-rule="evenodd" transform="translate(4.636364, 15.428571)">
                <mask id="mask-2" fill="white">
                    <use xlink:href="#path-1"></use>
                </mask>
                <use id="Circle-Background" fill="#E6E6E6" xlink:href="#path-1"></use>
                <g id="Color/Palette/Blue-01" mask="url(#mask-2)" fill="#65C9FF">
                    <rect id="ðŸ–Color" x="0" y="0" width="93" height="93"></rect>
                </g>
            </g>
            <mask id="mask-4" fill="white">
                <use xlink:href="#path-3"></use>
            </mask>
            <g id="Mask"></g>
            <g id="Avataaar" stroke-width="1" fill-rule="evenodd" mask="url(#mask-4)">
                <g id="Body" transform="translate(12.363636, 13.885714)">
                    <mask id="mask-6" fill="white">
                        <use xlink:href="#path-5"></use>
                    </mask>
                    <use fill="#D0C6AC" xlink:href="#path-5"></use>
                    <g id="Skin/ðŸ‘¶ðŸ¿-01-Black" mask="url(#mask-6)" fill="#614335">
                        <g transform="translate(-12.363636, 0.000000)" id="Color">
                            <rect x="0" y="0" width="102" height="94"></rect>
                        </g>
                    </g>
                    <path d="M60.2727273,36.2207792 L60.2727273,39.3064935 C60.2727273,51.2559272 50.5857973,60.9428571 38.6363636,60.9428571 C26.68693,60.9428571 17,51.2559272 17,39.3064935 L17,36.2207792 C17,48.1702129 26.68693,57.8571429 38.6363636,57.8571429 C50.5857973,57.8571429 60.2727273,48.1702129 60.2727273,36.2207792 Z" id="Neck-Shadow" fill-opacity="0.100000001" fill="#000000" mask="url(#mask-6)"></path>
                </g>
                <g id="Clothing/Shirt-Scoop-Neck" transform="translate(0.000000, 65.571429)">
                    <mask id="mask-8" fill="white">
                        <use xlink:href="#path-7"></use>
                    </mask>
                    <use id="Clothes" fill="#E6E6E6" fill-rule="evenodd" xlink:href="#path-7"></use>
                    <g id="Color/Palette/Pastel-Orange" mask="url(#mask-8)" fill="#FFDEB5" fill-rule="evenodd">
                        <rect id="ðŸ–Color" x="0" y="0" width="102" height="42"></rect>
                    </g>
                </g>
                <g id="Face" transform="translate(29.363636, 31.628571)">
                    <g id="Mouth/Smile" transform="translate(0.772727, 20.057143)">
                        <mask id="mask-10" fill="white">
                            <use xlink:href="#path-9"></use>
                        </mask>
                        <use id="Mouth" fill-opacity="0.699999988" fill="#000000" fill-rule="evenodd" xlink:href="#path-9"></use>
                        <path d="M18.2575758,0.772727273 L24.1313131,0.772727273 C25.8383751,0.772727273 27.2222222,2.15657441 27.2222222,3.86363636 L27.2222222,3.86363636 C27.2222222,5.57069832 25.8383751,6.95454545 24.1313131,6.95454545 L18.2575758,6.95454545 C16.5505138,6.95454545 15.1666667,5.57069832 15.1666667,3.86363636 L15.1666667,3.86363636 C15.1666667,2.15657441 16.5505138,0.772727273 18.2575758,0.772727273 Z" id="Teeth" fill="#FFFFFF" fill-rule="evenodd" mask="url(#mask-10)"></path>
                        <g id="Tongue" stroke-width="1" fill-rule="evenodd" mask="url(#mask-10)" fill="#FF4F6D">
                            <g transform="translate(14.777778, 9.272727)">
                                <ellipse cx="4.27777778" cy="4.25" rx="4.27777778" ry="4.25"></ellipse>
                                <ellipse cx="8.16666667" cy="4.25" rx="4.27777778" ry="4.25"></ellipse>
                            </g>
                        </g>
                    </g>
                    <g id="Nose/Default" transform="translate(10.818182, 15.428571)" fill="#000000" fill-opacity="0.16">
                        <path d="M6.28571429,3 C6.28571429,4.65685425 8.39637189,6 11,6 C13.6036281,6 15.7142857,4.65685425 15.7142857,3" id="Nose"></path>
                    </g>
                    <g id="Eyes/Default-ðŸ˜€" transform="translate(0.000000, 3.085714)" fill="#000000" fill-opacity="0.599999964">
                        <ellipse id="Eye" cx="11.5178571" cy="8.5" rx="2.30357143" ry="2.31818182"></ellipse>
                        <ellipse id="Eye" cx="31.4821429" cy="8.5" rx="2.30357143" ry="2.31818182"></ellipse>
                    </g>
                    <g id="Eyebrow/Natural/Raised-Excited-Natural" fill="#000000" fill-opacity="0.599999964">
                        <path d="M8.74065344,0.591918366 L9.09039133,0.440933042 C11.1028686,-0.339474656 14.1533527,-0.0123273586 16.0185489,0.862168643 C16.2362567,0.964308588 16.087435,1.29447829 15.8643513,1.27766627 C10.1365508,0.846008238 6.28041374,4.33222282 4.97037264,6.69266022 C4.93153235,6.76264281 4.81413882,6.77058375 4.78510696,6.70531324 C3.89928721,4.71077534 6.49355579,1.46105522 8.74065344,0.591918366 Z" id="Eye-Browse-Reddit"></path>
                        <path d="M31.0085106,0.591918366 L31.3582485,0.440933042 C33.3707257,-0.339474656 36.4212099,-0.0123273586 38.2864061,0.862168643 C38.5041138,0.964308588 38.3552922,1.29447829 38.1322085,1.27766627 C32.4044079,0.846008238 28.5482709,4.33222282 27.2382298,6.69266022 C27.1993895,6.76264281 27.081996,6.77058375 27.0529641,6.70531324 C26.1671444,4.71077534 28.7614129,1.46105522 31.0085106,0.591918366 Z" id="Eye-Browse-Reddit" transform="translate(32.633929, 3.375000) scale(-1, 1) translate(-32.633929, -3.375000) "></path>
                    </g>
                </g>
                <g id="Top">
                    <mask id="mask-12" fill="white">
                        <use xlink:href="#path-11"></use>
                    </mask>
                    <g id="Mask"></g>
                    <g id="Top/Long-Hair/Dreads" mask="url(#mask-12)">
                        <g transform="translate(-0.386364, 0.000000)">
                            <g id="template-for-hairstyles" stroke-width="1" fill-rule="evenodd" transform="translate(24.394737, 33.557143)"></g>
                            <g id="Facial-Hair/-Blank" transform="translate(18.973684, 27.771429)"></g>
                            <g id="Hair" stroke-width="1" fill-rule="evenodd" transform="translate(6.195489, 5.400000)">
                                <mask id="mask-14" fill="white">
                                    <use xlink:href="#path-13"></use>
                                </mask>
                                <use id="No-Woman" fill="#8D5A5A" xlink:href="#path-13"></use>
                                <g id="Color/Hair/Black" mask="url(#mask-14)" fill="#2C1B18">
                                    <g transform="translate(-5.808271, -5.400000)" id="Color">
                                        <rect x="0" y="0" width="102" height="108"></rect>
                                    </g>
                                </g>
                                <path d="M33.2493765,71.6899015 C33.0993851,70.8726487 32.9077774,70.0619808 32.7151944,69.2703946 C31.5266569,64.3837488 28.6219277,60.3032972 26.3934462,55.739234 C26.0685679,55.073842 25.8048089,54.3926266 25.5892314,53.6997084 C27.7137967,58.3250192 31.4181538,62.0741646 36.0112782,64.25612 L36.0112782,71.408943 C35.0791097,71.4623169 34.1578877,71.5565578 33.2493765,71.6899016 Z M63.0658167,73.0886255 C60.3901505,72.1564656 57.5488023,71.577914 54.5977444,71.408943 L54.5977444,64.25612 C58.8195067,62.2505795 62.2904086,58.9210243 64.4738507,54.8040539 C64.441967,55.9746775 64.4667146,57.1395022 64.6169131,58.2642954 C65.0313332,61.3670331 66.1664108,64.1697428 65.6395984,67.3595516 C65.3054793,69.3843465 64.3292899,71.3118211 63.0658167,73.0886255 Z" id="Shadows" fill-opacity="0.24" fill="#000000" mask="url(#mask-14)"></path>
                                <path d="M19.1133752,41.7529182 C19.0649665,40.8186514 18.3466243,37.6886485 19.24029,37.1478946 C20.2198284,36.5547535 20.0156702,40.1203878 20.0257729,40.4857057 C20.0426107,41.0786727 20.4947053,45.5521193 19.666707,45.5322783 C18.8412344,45.5126113 19.1451565,42.3624194 19.1133752,41.7529182 Z M22.379296,64.02796 C22.3759285,64.4190363 21.964034,64.3953663 21.6700041,64.2930286 C21.3069393,64.1666728 21.5291981,63.3349177 21.5100451,63.0621912 C21.4595318,62.3451309 21.1139361,60.2318917 21.6418008,59.6397949 C22.6971093,58.4562973 22.3835055,63.4769374 22.379296,64.02796 Z M12.437865,69.1051469 C11.8725362,69.1192444 10.5389832,54.5402955 11.3453029,54.5289827 C12.4934297,54.5127966 13.1848314,69.0840876 12.437865,69.1051469 Z M13.3021487,76.5704925 C12.3737551,76.5704925 12.5444482,79.834509 13.0912554,80.0954006 C13.9198851,80.490828 14.3406194,76.5704925 13.3021487,76.5704925 Z M19.2020682,77.9354829 C19.2102766,78.3434414 18.7457641,78.349881 18.4357383,78.222307 C18.0838285,78.0775026 18.2311591,76.8703351 18.217268,76.6023077 C18.1734897,75.7587177 17.4364155,72.485999 18.10677,71.8846778 C18.8712056,71.1991195 18.887833,71.9515106 19.0934645,72.4626771 C19.6989935,73.9679815 19.169445,76.3321918 19.2020682,77.9354829 Z M73.6652889,47.1856591 C73.7078043,47.7497349 74.0790776,51.4352854 73.462183,51.716192 C72.4003499,52.1998596 72.8577064,49.9224971 72.8619158,49.6283632 C72.9033789,46.7597741 72.4868541,43.915203 72.1700931,41.0619297 C72.109898,40.5201315 71.1535116,36.3465624 71.8539636,36.0007374 C72.9023265,35.4833054 72.7459455,36.8669532 72.8059302,37.3159861 C73.2430813,40.5824392 73.4362949,43.9037161 73.6652889,47.1856591 Z M72.4186821,60.0122137 C71.4380913,59.818677 70.9249596,63.1340364 71.3724239,63.4896078 C72.1147599,64.0797902 73.4436825,60.2151487 72.4186821,60.0122137 Z M72.3148771,74.5914236 C73.8942618,74.9055726 69.4297218,81.6706532 68.9264823,81.0077206 C68.662129,80.6596331 71.8739375,74.5040537 72.3148771,74.5914236 Z M64.4069669,77.4354552 C63.717249,77.1260054 60.7927353,81.5823956 61.5392808,81.9170818 C62.21616,82.220266 65.2417004,77.8084309 64.4069669,77.4354552 Z M80.7060318,60.729622 C79.8731926,60.729622 79.9102357,65.2895683 80.5511241,65.5772626 C81.2136912,65.8745294 81.6904111,60.729622 80.7060318,60.729622 Z M68.9788689,18.8396407 C68.7433503,18.5040843 66.2006336,15.5147088 68.021851,15.9418122 C68.9089921,16.1497945 70.1314156,18.7778551 70.5315236,19.5716687 C70.7615699,20.0276633 72.0742861,22.063105 70.6832742,21.9189967 C70.3048449,21.8800109 69.2933146,19.2881514 68.9788689,18.8396407 Z M60.0372868,12.8660762 C59.7095813,13.0129691 59.7150536,13.1508118 60.0537037,13.2794301 C60.3816196,13.1325372 60.3759369,12.9948686 60.0372868,12.8660762 Z M27.3449076,16.0019095 C26.568475,16.7128782 23.6496441,20.8304053 22.6494794,20.8716537 C20.8269991,20.9468406 24.3061075,17.3906046 24.7007432,16.9380908 C24.8769086,16.7351558 25.6632333,15.7457171 26.1418475,15.5024039 C26.6301434,15.2540435 28.2497283,15.1710246 27.3449076,16.0019095 Z M16.7487391,26.9925113 C17.6960752,27.1797824 15.7275271,32.2016408 14.9826654,31.4495978 C14.4893181,30.9518326 15.903482,26.8271698 16.7487391,26.9925113 Z M26.4055063,72.8970555 C26.5652548,73.4143135 28.1989414,77.1705258 27.7883098,77.66481 C27.1604707,78.4198118 26.9803063,77.3497908 26.7748853,76.9059793 C26.3187916,75.9203695 25.1338322,73.4940256 25.3243097,72.4565507 C25.5093149,71.4504038 26.244074,72.3787532 26.4055063,72.8970555 Z M23.2277523,81.7005365 C22.3391379,81.7005365 22.4416379,85.4812889 22.9707655,85.7059794 C23.7903449,86.0538929 24.3177887,81.7005365 23.2277523,81.7005365 Z M85.8815054,78.4722338 C85.9343339,78.7049303 86.6768805,80.6178451 85.6249395,80.3407675 C85.0200419,80.1815175 84.9268027,78.4952076 84.772316,77.9840411 C84.2964379,76.4080749 82.7277873,74.4499086 82.5916117,72.8948277 C82.4600665,71.3919599 83.3042712,71.9647379 83.9527365,73.2376939 C84.8186199,74.9377533 85.4679272,76.6593941 85.8815054,78.4722338 Z M78.2525132,78.2810293 C77.4270406,78.2773744 77.3870508,82.4364979 77.9033396,82.6789409 C78.6250493,83.0178041 79.3055065,78.2810293 78.2525132,78.2810293 Z M80.6380071,44.2238522 C79.7079297,44.4626402 77.5897357,39.222705 78.6330473,39.1388159 C79.3177139,39.0839921 81.2504817,44.0647762 80.6380071,44.2238522 Z M70.254563,65.859492 C69.926647,66.0063849 69.9323298,66.1442275 70.2709799,66.2728459 C70.5986853,66.125953 70.5932131,65.9881103 70.254563,65.859492 Z M60.8769243,87.1666068 C61.1842139,87.1666068 61.3111288,86.6946001 60.8571399,86.6839835 C60.5570063,86.6864201 60.3985206,87.1666068 60.8769243,87.1666068 Z M22.7236709,65.8139447 C22.7350364,65.0777397 21.7674949,65.6176234 21.7735986,66.2387855 C21.786227,67.4783251 22.7032551,66.9123348 22.7236709,65.8139447 Z M20.3362196,47.3977836 C20.024931,47.3977836 19.8973847,47.8746635 20.356004,47.8859764 C20.6595052,47.8837138 20.8196747,47.3977836 20.3362196,47.3977836 Z M12.9278657,71.5086215 C12.8977681,70.7598852 12.2695081,71.5253297 12.304657,71.5263739 C12.4162073,71.5291586 12.9514386,72.0730453 12.9278657,71.5086215 Z M14.5592371,32.4243994 C13.6424194,32.4243994 13.7754379,34.6436313 14.3605511,34.7859991 C15.3363011,35.0235688 15.4697406,32.4243994 14.5592371,32.4243994 Z M19.4433537,80.3542559 C18.5583174,80.3542559 18.4985433,83.3681715 19.1093341,83.5556166 C20.058354,83.8464438 20.3650123,80.3542559 19.4433537,80.3542559 Z M12.1806256,82.5167147 C11.8430279,82.6676106 11.8485002,82.8096303 12.1970425,82.9422517 C12.5348506,82.7913557 12.5291679,82.6496841 12.1806256,82.5167147 Z M78.0072077,83.8091114 C77.1089116,83.8091114 77.1440605,87.4939657 77.6954981,87.7428482 C78.4662479,88.0909357 79.0463098,83.8091114 78.0072077,83.8091114 Z M68.9037513,87.2337355 C67.9703063,87.0478567 67.481379,90.0901415 67.9164254,90.4314413 C68.6337153,90.9941248 69.862453,87.4244874 68.9037513,87.2337355 Z M60.9733206,90.0454645 C60.1998347,90.0454645 60.3898912,91.4242391 60.8360926,91.6294367 C61.6083158,91.9844859 61.8364678,90.0454645 60.9733206,90.0454645 Z M33.4864284,7.52493454 C35.1350585,7.52493454 31.2236399,10.2283561 30.2956672,9.89697683 C28.7777404,9.35483055 32.8392258,7.52493454 33.4864284,7.52493454 Z" id="Highlights" fill-opacity="0.300000012" fill="#FFFFFF" mask="url(#mask-14)"></path>
                            </g>
                            <g id="Top/_Resources/Wayfarers" transform="translate(24.007519, 32.785714)" fill-rule="evenodd" stroke-width="1">
                                <g id="Wayfarers" filter="url(#filter-15)" transform="translate(2.711268, 2.722222)">
                                    <g id="Shades" transform="translate(4.181338, 1.138889)" fill-rule="nonzero">
                                        <g id="Shade">
                                            <use fill-opacity="0.700000048" fill="#000000" xlink:href="#path-17"></use>
                                            <use fill="url(#linearGradient-16)" style="mix-blend-mode: screen;" xlink:href="#path-17"></use>
                                        </g>
                                        <g id="Shade">
                                            <use fill-opacity="0.700000048" fill="#000000" xlink:href="#path-18"></use>
                                            <use fill="url(#linearGradient-16)" style="mix-blend-mode: screen;" xlink:href="#path-18"></use>
                                        </g>
                                    </g>
                                    <path d="M13.0589789,15.9444444 L11.9938204,15.9444444 C6.61465669,15.9444444 3.40328345,12.9639722 3.40328345,7.97222222 C3.40328345,3.93827778 4.10506162,0 12.4911972,0 L13.6267606,0 C22.0128961,0 22.7146743,3.93827778 22.7146743,7.97222222 C22.7146743,12.6655833 18.7447447,15.9444444 13.0589789,15.9444444 Z M12.4911972,2.27663889 C5.67441021,2.27663889 5.67441021,4.79016667 5.67441021,7.97222222 C5.67441021,10.5700278 6.77022887,13.6666667 11.9938204,13.6666667 L13.0589789,13.6666667 C17.4070511,13.6666667 20.4435475,11.3251111 20.4435475,7.97222222 C20.4435475,4.79016667 20.4435475,2.27663889 13.6267606,2.27663889 L12.4911972,2.27663889 Z" id="Left" fill="#252C2F" fill-rule="nonzero"></path>
                                    <path d="M36.9058099,15.9444444 L35.8406514,15.9444444 C30.4614877,15.9444444 27.2501144,12.9639722 27.2501144,7.97222222 C27.2501144,3.93827778 27.9518926,0 36.3380282,0 L37.4735915,0 C45.8597271,0 46.5615053,3.93827778 46.5615053,7.97222222 C46.5615053,12.6655833 42.5915757,15.9444444 36.9058099,15.9444444 Z M36.3380282,2.27663889 C29.5212412,2.27663889 29.5212412,4.79016667 29.5212412,7.97222222 C29.5212412,10.5700278 30.6181954,13.6666667 35.8406514,13.6666667 L36.9058099,13.6666667 C41.253882,13.6666667 44.2903785,11.3251111 44.2903785,7.97222222 C44.2903785,4.79016667 44.2903785,2.27663889 37.4735915,2.27663889 L36.3380282,2.27663889 Z" id="Right" fill="#252C2F" fill-rule="nonzero"></path>
                                    <path d="M1.13556338,2.27777778 C1.40128521,2.01127778 4.30832746,0 12.4911972,0 C19.3522711,0 20.8046567,0.731166667 23.0031074,1.83588889 L23.1640309,1.91743573 C23.3168763,1.97288872 24.098496,2.2455208 25.0127809,2.27550093 C25.8457455,2.23879424 26.5582144,2.0069802 26.7664056,1.93270442 C29.2756732,0.679630317 31.731906,0 37.4735915,0 C45.6564613,0 48.5635035,2.01127778 48.8292254,2.27777778 C49.4571919,2.27777778 49.9647887,2.78686111 49.9647887,3.41666667 L49.9647887,4.55555556 C49.9647887,5.18536111 49.4571919,5.69444444 48.8292254,5.69444444 C48.8292254,5.69444444 46.5580986,5.69444444 46.5580986,6.83333333 C46.5580986,7.97222222 45.4225352,5.18536111 45.4225352,4.55555556 L45.4225352,3.44628787 C44.0376484,2.90205799 41.5585632,2.27777778 37.4735915,2.27777778 C32.9223624,2.27777778 30.6557418,2.71760666 28.7114178,3.54050042 L28.7331602,3.59433333 L27.7664313,3.9861275 L28.7322005,4.37821016 L27.8800318,6.48956529 L26.8274368,6.06223312 C26.7334284,6.02406765 26.5305878,5.95550134 26.2493287,5.88427099 C25.4652356,5.68569532 24.6591255,5.62524484 23.9462337,5.7755056 C23.6846898,5.83063287 23.4420293,5.9133587 23.219334,6.02509485 L22.2037688,6.53464917 L21.187636,4.49757057 L22.2032012,3.98801626 L22.2056699,3.98677844 L21.2327641,3.59205556 L21.263792,3.51512996 C19.5869861,2.71280592 18.0408493,2.27777778 12.4911972,2.27777778 C8.4064396,2.27777778 5.92741168,2.9016784 4.54225352,3.44591871 L4.54225352,4.55555556 C4.54225352,5.18536111 3.40669014,7.97222222 3.40669014,6.83333333 C3.40669014,5.69444444 1.13556338,5.69444444 1.13556338,5.69444444 C0.508732394,5.69444444 0,5.18536111 0,4.55555556 L0,3.41666667 C0,2.78686111 0.508732394,2.27777778 1.13556338,2.27777778 Z" id="Stuff" fill="#252C2F" fill-rule="nonzero"></path>
                                </g>
                            </g>
                            <g id="Accessory" stroke-width="1" fill-rule="evenodd" transform="translate(17.037594, 12.728571)"></g>
                        </g>
                    </g>
                </g>
            </g>
        </g>
    </g>
</svg>