<?xml version="1.0" encoding="UTF-8"?>
<svg width="94px" height="105px" viewBox="0 0 94 105" version="1.1" xmlns="http://www.w3.org/2000/svg" xmlns:xlink="http://www.w3.org/1999/xlink">
    <!-- Generator: Sketch 52.2 (67145) - http://www.bohemiancoding.com/sketch -->
    <title>man-3</title>
    <desc>Created with Sketch.</desc>
    <defs>
        <ellipse id="path-1" cx="46.3636364" cy="46.2857143" rx="46.3636364" ry="46.2857143"></ellipse>
        <path d="M4.63636364,61.7142857 L-3.19744231e-14,61.7142857 L-3.19744231e-14,-1.42108547e-14 L102,-1.42108547e-14 L102,61.7142857 L97.3636364,61.7142857 C97.3636364,87.2771798 76.6059293,108 51,108 C25.3940707,108 4.63636364,87.2771798 4.63636364,61.7142857 Z" id="path-3"></path>
        <path d="M29.3636364,55.7750102 C22.7133081,52.6157838 17.930293,46.1638683 17.1213595,38.5260319 C14.8691697,38.2093764 13.1363636,36.2745799 13.1363636,33.9350649 L13.1363636,28.5506494 C13.1363636,26.253334 14.8072215,24.3462685 17,23.97839 L17,21.6363636 C17,9.68692996 26.68693,2.19507536e-15 38.6363636,0 C50.5857973,-2.19507536e-15 60.2727273,9.68692996 60.2727273,21.6363636 L60.2727273,23.97839 C62.4655058,24.3462685 64.1363636,26.253334 64.1363636,28.5506494 L64.1363636,33.9350649 C64.1363636,36.2745799 62.4035576,38.2093764 60.1513678,38.5260319 C59.3424343,46.1638683 54.5594192,52.6157838 47.9090909,55.7750102 L47.9090909,62.9270139 C64.2890926,63.898769 77.2727273,77.4902822 77.2727273,94.1142857 L0,94.1142857 C-2.03585327e-15,77.4902822 12.9836347,63.898769 29.3636364,62.9270139 L29.3636364,55.7750102 Z" id="path-5"></path>
        <path d="M41.7272727,4.99070178 L41.7272727,12.1090909 C41.7272727,17.2302768 45.8788141,21.3818182 51,21.3818182 C56.1211859,21.3818182 60.2727273,17.2302768 60.2727273,12.1090909 L60.2727273,4.99070178 C67.2661553,5.76404043 72.6363636,7.88965845 72.6363636,13.393007 C72.6363636,13.7174805 72.6176957,14.0367414 72.5811279,14.3506606 C82.6959471,19.4354101 89.6363636,29.9071945 89.6363636,42 L12.3636364,42 C12.3636364,29.9071945 19.3040529,19.4354101 29.4188721,14.3506606 C29.3823043,14.0367414 29.3636364,13.7174805 29.3636364,13.393007 C29.3636364,7.88965845 34.7338447,5.76404043 41.7272727,4.99070178 Z" id="path-7"></path>
        <path d="M61.3713149,11.2038544 C77.2041275,12.5444255 89.6363636,25.8203606 89.6363636,42 L12.3636364,42 C12.3636364,25.8203606 24.7958725,12.5444255 40.6286851,11.2038544 C40.588697,11.5435264 40.5681818,11.8885364 40.5681818,12.2379308 C40.5681818,17.5097398 45.2386659,21.7833853 51,21.7833853 C56.7613341,21.7833853 61.4318182,17.5097398 61.4318182,12.2379308 C61.4318182,11.8885364 61.411303,11.5435264 61.3713149,11.2038544 Z" id="path-9"></path>
        <rect id="path-11" x="0" y="0" width="102" height="108"></rect>
        <path d="M39.243132,38.104905 C38.2706215,38.9953594 37.2346387,39.3958173 35.9252463,39.1157822 C35.6999259,39.067639 34.7813217,37.3542086 32.4999359,37.3542086 C30.2185502,37.3542086 29.3000753,39.067639 29.0746255,39.1157822 C27.7652332,39.3958173 26.7292503,38.9953594 25.7567399,38.104905 C23.9285805,36.4307937 22.4082168,34.1222563 23.3217794,31.603498 C23.7978868,30.2906553 24.5722239,28.8493442 25.9808969,28.4309786 C27.4851016,27.9844537 29.5970122,28.4302 31.1128513,28.1252499 C31.6039543,28.0263682 32.1404315,27.850665 32.4999359,27.5592105 C32.8594403,27.850665 33.3960469,28.0263682 33.8868913,28.1252499 C35.4028597,28.4302 37.5147703,27.9844537 39.018975,28.4309786 C40.427648,28.8493442 41.201985,30.2906553 41.6782217,31.603498 C42.5917843,34.1222563 41.0714207,36.4307937 39.243132,38.104905 M54.1980186,10.0921053 C52.878542,13.3527298 53.3881267,17.4120003 53.143948,20.8347136 C52.9456098,23.6167662 52.3625762,27.786575 49.9002131,29.5832719 C48.6410324,30.5020738 46.3490084,32.0462764 44.7036998,31.615536 C43.5711013,31.3190572 43.4502491,28.0599715 41.961866,26.8399462 C40.273582,25.4562934 38.1654408,24.8483326 36.0398489,24.9422004 C35.1226487,24.9827226 33.2676719,24.973105 32.4999741,25.6807042 C31.7322763,24.973105 29.8774298,24.9827226 28.9602295,24.9422004 C26.8345075,24.8483326 24.7263663,25.4562934 23.0380822,26.8399462 C21.5496991,28.0599715 21.4289772,31.3190572 20.2963787,31.615536 C18.6510701,32.0462764 16.3590461,30.5020738 15.0997351,29.5832719 C12.6372418,27.786575 12.0544687,23.6167662 11.85587,20.8347136 C11.6118215,17.4120003 12.1214062,13.3527298 10.8019296,10.0921053 C10.1600327,10.0921053 10.583406,16.3526532 10.583406,16.3526532 L10.583406,24.2540928 C10.5956475,30.1882834 14.2903642,39.0702057 22.4822664,42.461758 C24.4857037,43.2911802 29.0237811,44.6381579 32.4999741,44.6381579 C35.9761671,44.6381579 40.5142445,43.419415 42.5176818,42.5899927 C50.7095841,39.1984405 54.4043008,30.1882834 54.4166725,24.2540928 L54.4166725,16.3526532 C54.4166725,16.3526532 54.8399156,10.0921053 54.1980186,10.0921053" id="path-13"></path>
        <path d="M36.4960469,20.1063391 C36.543678,20.0519391 36.4254742,20.0310391 36.1414355,20.0437391 C36.4866517,20.0419391 36.6048555,20.0627391 36.4960469,20.1063391 M33.3461495,14.003021 C33.3440495,13.983421 33.3626495,14.154121 33.3461495,14.003021 M75.029326,27.2953285 C74.9270579,26.0159402 74.7458415,24.744299 74.4413822,23.4942746 C74.1995865,22.5007776 73.8692019,21.5527632 73.4784986,20.6048738 C73.2425655,20.0322167 72.6914902,19.2456409 72.6267421,18.627876 C72.562906,18.0193575 73.0395926,17.3452389 73.1413396,16.6367585 C73.2400902,15.9472708 73.2232843,15.2222966 73.0812815,14.5390565 C72.7587136,12.9873968 71.6896536,11.5444458 70.0389031,11.1399747 C69.6703471,11.049634 68.8912856,11.1609667 68.6308602,10.947173 C68.3322634,10.7020163 68.12434,9.86683403 67.8540135,9.53183648 C67.0832898,8.57682481 65.8812161,7.96180878 64.6134825,8.17622721 C63.6799115,8.33404217 64.2160048,8.52634401 63.5161522,7.97905222 C63.1270123,7.67479298 62.8362322,7.21021972 62.4582962,6.88084503 C61.8901545,6.38603328 61.2383745,5.96244443 60.5640564,5.61482667 C58.7995733,4.7052977 56.7871715,4.04417422 54.8161981,3.72192181 C51.2207902,3.13402048 47.3834565,3.64657548 43.898394,4.57797114 C42.1642656,5.04141982 40.4184123,5.62957106 38.8077874,6.40740015 C38.1171845,6.74089827 37.7185343,7.01754302 36.9984887,7.10488479 C35.8644201,7.24245746 34.9040119,7.23558507 33.8297408,7.71465281 C30.5243315,9.18884197 29.0355163,12.6089158 30.3217494,15.8817957 C30.5804812,16.5400453 30.9307983,17.1180754 31.4137383,17.6497481 C32.0025941,18.2980015 32.2155984,18.170425 31.7084268,18.9158914 C30.9499492,20.0305923 30.3105455,21.2192651 29.7899553,22.4535455 C28.423471,25.6941876 28.1948334,29.3440491 28.2838132,32.8001093 C28.3149496,34.010024 28.3670607,35.234808 28.5585691,36.4331021 C28.6412956,36.9517798 28.664485,37.9270338 29.055058,38.3118873 C29.2532106,38.5070631 29.5355227,38.6158967 29.8171834,38.5381763 C30.4791251,38.3554958 30.2515297,37.8689309 30.2669025,37.4172277 C30.3442875,35.1478411 30.2398047,33.1402299 30.7816302,30.8982078 C31.1818437,29.241713 31.8488663,27.7372854 32.7132597,26.2560989 C33.8124139,24.3721906 34.9989844,22.717695 36.5105982,21.1045587 C36.8659962,20.7252031 36.9436418,20.5643892 37.4201981,20.5368997 C37.7810677,20.5161576 38.3089535,20.7623139 38.6597917,20.8475315 C39.4333816,21.0353351 40.2084044,21.2210144 40.9960642,21.3474663 C42.4442327,21.5800029 43.8782009,21.5956219 45.3393971,21.5500143 C48.2150199,21.4604233 51.1030191,21.2594998 53.8910951,20.5381492 C55.7427341,20.0592064 57.3843651,19.1994085 59.1579676,18.5691483 C59.1896251,18.5579026 59.6341331,18.2423976 59.7120393,18.2552677 C59.8208213,18.2731359 60.4775519,18.9594998 60.5884183,19.0459669 C61.4502062,19.7192108 62.3955022,20.0018532 63.3262071,20.5231549 C64.4736943,21.1659104 63.3624244,20.2461353 63.9953141,21.0472056 C64.1797875,21.2804918 64.274239,21.7130772 64.4222346,21.9773517 C64.8930587,22.8192814 65.5480957,23.5592499 66.3315866,24.1464015 C67.0886311,24.7136857 68.2263475,24.9877064 68.6123608,25.7260505 C68.9100456,26.2957088 69.0103596,27.0699143 69.2505919,27.6780579 C69.8807458,29.2730761 70.7129606,30.7605102 71.5451755,32.2628137 C72.2155853,33.4734781 72.9489192,34.5310757 73.0234381,35.9145494 C73.0493634,36.3961162 72.5893524,39.2847672 73.7098721,38.4062265 C73.8759763,38.276026 74.2341101,36.8032113 74.3077171,36.5533064 C74.6063139,35.5378177 74.7124903,34.477721 74.8477187,33.434368 C75.1166122,31.3594074 75.2049406,29.3851584 75.029326,27.2953285" id="path-15"></path>
        <filter x="-7.9%" y="-25.1%" width="117.2%" height="150.5%" filterUnits="objectBoundingBox" id="filter-17">
            <feOffset dx="0" dy="2" in="SourceAlpha" result="shadowOffsetOuter1"></feOffset>
            <feColorMatrix values="0 0 0 0 0   0 0 0 0 0   0 0 0 0 0  0 0 0 0.2 0" type="matrix" in="shadowOffsetOuter1" result="shadowMatrixOuter1"></feColorMatrix>
            <feMerge>
                <feMergeNode in="shadowMatrixOuter1"></feMergeNode>
                <feMergeNode in="SourceGraphic"></feMergeNode>
            </feMerge>
        </filter>
    </defs>
    <g id="Lsnding-Page" stroke="none" stroke-width="1" fill="none" fill-rule="evenodd">
        <g id="Avataaar/Circle" transform="translate(-4.000000, -3.000000)">
            <g id="Circle" stroke-width="1" fill-rule="evenodd" transform="translate(4.636364, 15.428571)">
                <mask id="mask-2" fill="white">
                    <use xlink:href="#path-1"></use>
                </mask>
                <use id="Circle-Background" fill="#E6E6E6" xlink:href="#path-1"></use>
                <g id="Color/Palette/Heather" mask="url(#mask-2)" fill="#3C4F5C">
                    <rect id="ðŸ–Color" x="0" y="0" width="93" height="93"></rect>
                </g>
            </g>
            <mask id="mask-4" fill="white">
                <use xlink:href="#path-3"></use>
            </mask>
            <g id="Mask"></g>
            <g id="Avataaar" stroke-width="1" fill-rule="evenodd" mask="url(#mask-4)">
                <g id="Body" transform="translate(12.363636, 13.885714)">
                    <mask id="mask-6" fill="white">
                        <use xlink:href="#path-5"></use>
                    </mask>
                    <use fill="#D0C6AC" xlink:href="#path-5"></use>
                    <g id="Skin/ðŸ‘¶ðŸ¿-01-Black" mask="url(#mask-6)" fill="#EDB98A">
                        <g transform="translate(-12.363636, 0.000000)" id="Color">
                            <rect x="0" y="0" width="102" height="94"></rect>
                        </g>
                    </g>
                    <path d="M60.2727273,36.2207792 L60.2727273,39.3064935 C60.2727273,51.2559272 50.5857973,60.9428571 38.6363636,60.9428571 C26.68693,60.9428571 17,51.2559272 17,39.3064935 L17,36.2207792 C17,48.1702129 26.68693,57.8571429 38.6363636,57.8571429 C50.5857973,57.8571429 60.2727273,48.1702129 60.2727273,36.2207792 Z" id="Neck-Shadow" fill-opacity="0.100000001" fill="#000000" mask="url(#mask-6)"></path>
                </g>
                <g id="Clothing/Hoodie" transform="translate(0.000000, 65.571429)">
                    <mask id="mask-8" fill="white">
                        <use xlink:href="#path-7"></use>
                    </mask>
                    <use id="Hoodie" fill="#B7C1DB" fill-rule="evenodd" xlink:href="#path-7"></use>
                    <g id="Clothing/Collar-+-Sweater" mask="url(#mask-8)">
                        <mask id="mask-10" fill="white">
                            <use xlink:href="#path-9"></use>
                        </mask>
                        <use id="Clothes" fill="#E6E6E6" fill-rule="evenodd" xlink:href="#path-9"></use>
                        <g id="Color/Palette/Gray-01" mask="url(#mask-10)" fill="#E6E6E6" fill-rule="evenodd">
                            <rect id="ðŸ–Color" x="0" y="0" width="102" height="42"></rect>
                        </g>
                        <path d="M60.2727273,8.50671458 C62.661091,10.2461618 64.1363636,12.6403683 64.1363636,15.2833857 C64.1363636,18.0346068 62.5378248,20.5162275 59.9748399,22.2703728 L57.7920137,20.5710246 L56.0227273,20.6975568 L56.4090909,19.4944077 L56.379043,19.4710152 C58.7359623,18.2711647 60.2727273,16.303773 60.2727273,14.0802366 L60.2727273,8.50671458 Z M41.7272727,8.23639067 L41.7272727,14.0802366 C41.7272727,16.303773 43.2640377,18.2711647 45.620957,19.4710152 L45.5909091,19.4944077 L45.9772727,20.6975568 L44.2079863,20.5710246 L41.846438,22.4095094 C39.162437,20.6487406 37.4772727,18.1081682 37.4772727,15.2833857 C37.4772727,12.5006421 39.1126525,9.99371219 41.7272727,8.23639067 Z" id="Collar" fill="#F2F2F2" fill-rule="evenodd"></path>
                    </g>
                    <path d="M39.4090909,23.573093 L39.4090909,42 L36.7045455,42 L36.7045455,22.2028275 C37.5559959,22.7029311 38.4612518,23.1613917 39.4090909,23.573093 Z M65.2954545,22.2028275 L65.2954545,37.5931818 C65.2954545,38.3400214 64.6900214,38.9454545 63.9431818,38.9454545 C63.1963422,38.9454545 62.5909091,38.3400214 62.5909091,37.5931818 L62.5909091,23.573093 C63.5387482,23.1613917 64.4440041,22.7029311 65.2954545,22.2028275 Z" id="Straps" fill="#F4F4F4" fill-rule="evenodd" mask="url(#mask-8)"></path>
                    <path d="M51,25.9636364 C63.9286234,25.9636364 76.6931818,19.8621855 76.6931818,12.3356643 C76.6931818,8.11091963 72.6714031,5.94535894 66.8563123,4.85838959 C70.3664466,6.137521 72.6363636,8.28776629 72.6363636,11.8657343 C72.6363636,19.6517906 61.8872618,25.9636364 51,25.9636364 Z M50.997417,25.9636363 C38.0696765,25.9628237 25.3068182,19.8616842 25.3068182,12.3356643 C25.3068182,8.11091963 29.3285969,5.94535894 35.1436877,4.85838959 Z" id="Shadow" fill-opacity="0.16" fill="#000000" fill-rule="evenodd" mask="url(#mask-8)"></path>
                </g>
                <g id="Face" transform="translate(29.363636, 31.628571)" fill="#000000">
                    <g id="Mouth/Twinkle" transform="translate(0.772727, 20.057143)" fill-opacity="0.599999964" fill-rule="nonzero">
                        <path d="M15.5555556,6.18181818 C15.5555556,8.25727207 17.9503934,9.65909091 21,9.65909091 C24.0496066,9.65909091 26.4444444,8.25727207 26.4444444,6.18181818 C26.4444444,5.75505269 26.075117,5.40909091 25.6666667,5.40909091 C25.1639402,5.40909091 24.9395345,5.75881781 24.8888889,6.18181818 C24.4057239,7.31691487 23.2101565,8.00403076 21,8.11363636 C18.7898435,8.00403076 17.5942761,7.31691487 17.1111111,6.18181818 C17.0604655,5.75881781 16.8360598,5.40909091 16.3333333,5.40909091 C15.924883,5.40909091 15.5555556,5.75505269 15.5555556,6.18181818 Z" id="Mouth"></path>
                    </g>
                    <g id="Nose/Default" transform="translate(10.818182, 15.428571)" fill-opacity="0.16">
                        <path d="M6.28571429,3 C6.28571429,4.65685425 8.39637189,6 11,6 C13.6036281,6 15.7142857,4.65685425 15.7142857,3" id="Nose"></path>
                    </g>
                    <g id="Eyes/Default-ðŸ˜€" transform="translate(0.000000, 3.085714)" fill-opacity="0.599999964">
                        <ellipse id="Eye" cx="11.5178571" cy="8.5" rx="2.30357143" ry="2.31818182"></ellipse>
                        <ellipse id="Eye" cx="31.4821429" cy="8.5" rx="2.30357143" ry="2.31818182"></ellipse>
                    </g>
                    <g id="Eyebrow/Natural/Default-Natural" fill-opacity="0.599999964">
                        <path d="M10.0012909,2.32901016 C7.78906305,2.62353098 4.33632555,4.51400625 4.62022518,6.69352924 C4.62955449,6.7648642 4.73997678,6.7868798 4.78776677,6.72720286 C5.74470667,5.52949959 13.1282114,3.75785797 15.8150427,4.11930929 C16.0609453,4.1524679 16.2238365,3.90406557 16.0564032,3.74956596 C14.6217835,2.42647182 11.9830469,2.06325845 10.0012909,2.32901016" id="Eyebrow" transform="translate(10.364279, 4.504679) rotate(5.000000) translate(-10.364279, -4.504679) "></path>
                        <path d="M32.6566619,2.32901016 C30.4444341,2.62353098 26.9916966,4.51400625 27.2755962,6.69352924 C27.2849255,6.7648642 27.3953478,6.7868798 27.4431378,6.72720286 C28.4000777,5.52949959 35.7835824,3.75785797 38.4704137,4.11930929 C38.7163163,4.1524679 38.8792075,3.90406557 38.7117742,3.74956596 C37.2771545,2.42647182 34.6384179,2.06325845 32.6566619,2.32901016" id="Eyebrow" transform="translate(33.019650, 4.504679) scale(-1, 1) rotate(5.000000) translate(-33.019650, -4.504679) "></path>
                    </g>
                </g>
                <g id="Top">
                    <mask id="mask-12" fill="white">
                        <use xlink:href="#path-11"></use>
                    </mask>
                    <g id="Mask"></g>
                    <g id="Top/Short-Hair/Short-Curly" mask="url(#mask-12)">
                        <g transform="translate(-0.386364, 0.000000)">
                            <g id="Facial-Hair/Beard-Light" stroke="none" fill="none" transform="translate(18.973684, 27.771429)">
                                <mask id="mask-14" fill="white">
                                    <use xlink:href="#path-13"></use>
                                </mask>
                                <use id="Lite-Beard" fill="#331B0C" fill-rule="evenodd" xlink:href="#path-13"></use>
                                <g id="Color/Hair/Brown-Dark" mask="url(#mask-14)" fill="#4A312C" fill-rule="evenodd">
                                    <rect id="Color" x="0" y="0" width="65" height="59"></rect>
                                </g>
                            </g>
                            <mask id="mask-16" fill="white">
                                <use xlink:href="#path-15"></use>
                            </mask>
                            <use id="Short-Hair" stroke="none" fill="#28354B" fill-rule="evenodd" xlink:href="#path-15"></use>
                            <g id="Color/Hair/Brown" stroke="none" fill="none" mask="url(#mask-16)" fill-rule="evenodd">
                                <g transform="translate(0.387218, 0.000000)" fill="#2C1B18" id="Color">
                                    <rect x="0" y="0" width="102" height="108"></rect>
                                </g>
                            </g>
                            <g id="Top/_Resources/Prescription-02" stroke="none" fill="none" mask="url(#mask-16)" fill-rule="evenodd" stroke-width="1">
                                <g transform="translate(24.007519, 33.171429)" id="Wayfarers">
                                    <g filter="url(#filter-17)" transform="translate(2.323944, 2.722222)">
                                        <path d="M13.1690141,15.9444444 L12.1008327,15.9444444 C6.70640271,15.9444444 3.48591549,12.9639722 3.48591549,7.97222222 C3.48591549,3.93827778 4.18968533,0 12.599621,0 L13.7384072,0 C22.1483428,0 22.8521127,3.93827778 22.8521127,7.97222222 C22.8521127,12.6655833 18.8709163,15.9444444 13.1690141,15.9444444 Z M12.5436256,2.33333333 C5.03521127,2.33333333 5.03521127,4.9937284 5.03521127,8.36171383 C5.03521127,11.1113111 6.24221107,14.3888889 11.9957853,14.3888889 L13.1690141,14.3888889 C17.9582392,14.3888889 21.3028169,11.9105145 21.3028169,8.36171383 C21.3028169,4.9937284 21.3028169,2.33333333 13.7944026,2.33333333 L12.5436256,2.33333333 Z" id="Left" fill="#252C2F" fill-rule="nonzero"></path>
                                        <path d="M37.1830986,15.9444444 L36.1149172,15.9444444 C30.7204872,15.9444444 27.5,12.9639722 27.5,7.97222222 C27.5,3.93827778 28.2037698,0 36.6137055,0 L37.7524917,0 C46.1624273,0 46.8661972,3.93827778 46.8661972,7.97222222 C46.8661972,12.6655833 42.8850008,15.9444444 37.1830986,15.9444444 Z M36.5577101,2.33333333 C29.0492958,2.33333333 29.0492958,4.9937284 29.0492958,8.36171383 C29.0492958,11.1113111 30.2575464,14.3888889 36.0098698,14.3888889 L37.1830986,14.3888889 C41.9723237,14.3888889 45.3169014,11.9105145 45.3169014,8.36171383 C45.3169014,4.9937284 45.3169014,2.33333333 37.8084871,2.33333333 L36.5577101,2.33333333 Z" id="Right" fill="#252C2F" fill-rule="nonzero"></path>
                                        <path d="M1.1443662,2.24449726 C1.41214789,1.98189108 4.34172535,0 12.5880282,0 C19.5022887,0 20.9659331,0.720483622 23.1814261,1.8090648 L23.3435971,1.88942016 C23.4976273,1.94406293 24.2853061,2.21271159 25.2066784,2.24225368 C26.0461001,2.20608332 26.7640921,1.9776563 26.9738971,1.90446576 C29.5026164,0.669700267 31.9778897,0 37.7640845,0 C46.0103873,0 48.9399648,1.98189108 49.2077465,2.24449726 C49.840581,2.24449726 50.3521127,2.7461424 50.3521127,3.3667459 L50.3521127,4.48899453 C50.3521127,5.10959802 49.840581,5.61124316 49.2077465,5.61124316 C49.2077465,5.61124316 46.5346468,5.61124316 46.5346468,6.73349179 C46.5346468,7.85574043 45.7746479,5.10959802 45.7746479,4.48899453 L45.7746479,3.39593431 C44.3790255,2.85965614 41.8807227,1.86129041 37.7640845,1.86129041 C33.1775745,1.86129041 30.8933832,2.67789983 28.9339869,3.48877032 L28.9558979,3.54181668 L28.9549308,4.31424032 L28.0961561,6.39474653 L27.0354014,5.97365809 C26.9406643,5.93605026 26.7362512,5.86848577 26.4528118,5.79829616 C25.6626406,5.60262187 24.8502815,5.54305463 24.1318634,5.69111994 C23.868292,5.74544175 23.6237505,5.82695887 23.3993289,5.93706245 L22.3758911,6.43917169 L21.3518812,4.43185676 L21.3973592,3.53957219 L21.4286276,3.46377055 C19.7388232,2.67316923 18.1807008,1.86129041 12.5880282,1.86129041 C8.4716058,1.86129041 5.97336061,2.8592821 4.57746479,3.39557054 L4.57746479,4.48899453 C4.57746479,5.10959802 3.43309859,7.85574043 3.43309859,6.73349179 C3.43309859,5.61124316 1.1443662,5.61124316 1.1443662,5.61124316 C0.512676056,5.61124316 0,5.10959802 0,4.48899453 L0,3.3667459 C0,2.7461424 0.512676056,2.24449726 1.1443662,2.24449726 Z" id="Stuff" fill="#252C2F" fill-rule="nonzero"></path>
                                    </g>
                                </g>
                            </g>
                        </g>
                    </g>
                </g>
            </g>
        </g>
    </g>
</svg>