<?xml version="1.0" encoding="UTF-8"?>
<svg width="97px" height="109px" viewBox="0 0 97 109" version="1.1" xmlns="http://www.w3.org/2000/svg" xmlns:xlink="http://www.w3.org/1999/xlink">
    <!-- Generator: Sketch 52.2 (67145) - http://www.bohemiancoding.com/sketch -->
    <title>man-2</title>
    <desc>Created with Sketch.</desc>
    <defs>
        <ellipse id="path-1" cx="47.7272727" cy="48" rx="47.7272727" ry="48"></ellipse>
        <path d="M4.77272727,64 L-3.19744231e-14,64 L-3.19744231e-14,-1.42108547e-14 L105,-1.42108547e-14 L105,64 L100.227273,64 C100.227273,90.509668 78.8590449,112 52.5,112 C26.1409551,112 4.77272727,90.509668 4.77272727,64 Z" id="path-3"></path>
        <path d="M30.2272727,57.8566281 C23.3380754,54.5839274 18.3954889,47.8787099 17.6096295,39.9510918 C15.2986554,39.6185305 13.5227273,37.6302968 13.5227273,35.2272727 L13.5227273,29.5727273 C13.5227273,27.2078439 15.242728,25.2446882 17.5,24.8659897 L17.5,22.2727273 C17.5,9.97183966 27.4718397,2.2596364e-15 39.7727273,0 C52.0736149,-2.2596364e-15 62.0454545,9.97183966 62.0454545,22.2727273 L62.0454545,24.8659897 C64.3027265,25.2446882 66.0227273,27.2078439 66.0227273,29.5727273 L66.0227273,35.2272727 C66.0227273,37.6302968 64.2467991,39.6185305 61.935825,39.9510918 C61.1499657,47.8787099 56.2073792,54.5839274 49.3181818,57.8566281 L49.3181818,65.271698 C66.199112,66.3894235 79.5454545,80.4361091 79.5454545,97.6 L0,97.6 C-2.10197041e-15,80.4361091 13.3463425,66.3894235 30.2272727,65.271698 L30.2272727,57.8566281 Z" id="path-5"></path>
        <path d="M53.2951267,0.599960049 C68.2470795,3.46456496 79.5454545,16.612844 79.5454545,32.4 L0,32.4 C-1.95046155e-15,16.4732728 11.4990317,3.23228829 26.6477414,0.526400347 C26.647732,0.530616202 26.6477273,0.534832769 26.6477273,0.539050045 C26.6477273,5.28428709 32.6130242,9.13106177 39.9715909,9.13106177 C47.298647,9.13106177 53.2443402,5.3171616 53.2951267,0.599960049 Z" id="path-7"></path>
        <path d="M63.1818074,11.7856127 C79.5199235,13.433504 92.2727273,27.2274636 92.2727273,44 L12.7272727,44 C12.7272727,27.2274636 25.4800765,13.433504 41.8181926,11.7856127 C41.7806179,12.1258708 41.7613636,12.4711862 41.7613636,12.8206894 C41.7613636,18.3435369 46.5692149,22.8206894 52.5,22.8206894 C58.4307851,22.8206894 63.2386364,18.3435369 63.2386364,12.8206894 C63.2386364,12.4711862 63.2193821,12.1258708 63.1818074,11.7856127 Z" id="path-9"></path>
        <rect id="path-11" x="0" y="0" width="105" height="112"></rect>
        <path d="M25.994492,31.1972054 C26.8650795,30.5419509 32.0668825,30.2907745 33.0046104,29.7332659 C33.2972636,29.5590693 33.5243562,29.3826241 33.6993163,29.2077661 C33.874408,29.3826241 34.1016322,29.5590693 34.3942855,29.7332659 C35.3318817,30.2907745 40.5336847,30.5419509 41.4042721,31.1972054 C42.2857864,31.8607927 42.9292813,33.3833268 42.8588496,34.5737365 C42.7743317,36.002096 41.2215449,39.4103714 37.3574161,39.8029421 C36.5140797,38.8586826 35.189702,38.2495896 33.6993163,38.2495896 C32.2091938,38.2495896 30.8846844,38.8586826 30.0413481,39.8029421 C26.177351,39.4103714 24.6245641,36.002096 24.5400462,34.5737365 C24.4696146,33.3833268 25.1131094,31.8607927 25.994492,31.1972054 M41.1338674,38.0874293 C41.134394,38.0871648 41.1350522,38.0869003 41.1355788,38.086768 C41.1349206,38.0869003 41.134394,38.0871648 41.1338674,38.0874293 M26.2597625,38.0854453 C26.2613423,38.0861067 26.2642386,38.0871648 26.2663449,38.0879584 C26.2642386,38.0871648 26.2620005,38.0862389 26.2597625,38.0854453 M57.7725805,22.4677983 C57.6177626,20.0779846 57.140539,17.7188569 56.7242684,15.3648878 C56.6121044,14.731193 56.0023114,10.4342105 55.7275622,10.4342105 C55.6348821,14.0899589 55.315636,17.6901548 54.903973,21.3256663 C54.7808823,22.4125104 54.651999,23.499619 54.5672177,24.5902989 C54.4987608,25.4713344 54.6207984,26.5358253 54.4087137,27.3880264 C54.1380456,28.4743414 52.7816775,29.4880415 51.7267829,29.8622269 C49.0946151,30.795905 46.8991233,26.9314072 44.651104,25.801047 C41.7327336,24.3336686 36.7158959,23.9842326 33.7319649,25.8968243 C30.6828682,23.9842326 25.6660306,24.3336686 22.7476602,25.801047 C20.4997725,26.9314072 18.3041491,30.795905 15.6721129,29.8622269 C14.6172184,29.4880415 13.2605869,28.4743414 12.9901821,27.3880264 C12.7779657,26.5358253 12.9000033,25.4713344 12.8316781,24.5902989 C12.7468968,23.499619 12.6178819,22.4125104 12.4947911,21.3256663 C12.0832598,17.6901548 11.7638821,14.0899589 11.6713336,10.4342105 C11.3964528,10.4342105 10.7865282,14.731193 10.6744958,15.3648878 C10.2582252,17.7188569 9.78113325,20.0779846 9.62631533,22.4677983 C9.46715304,24.9236136 9.65712094,27.3566789 10.1575146,29.7628939 C10.3964555,30.9124329 10.675549,32.0553585 10.9747846,33.1904804 C11.3073272,34.4516534 10.8472178,36.9074687 10.9961116,38.2021055 C11.2778381,40.651572 12.4246228,45.4288186 13.7124024,47.5362407 C14.3348337,48.5548347 15.0644262,49.190778 15.879195,50.0116317 C16.6632898,50.8017992 16.9908298,52.0265986 17.837194,52.868086 C19.4148623,54.436517 21.7134344,55.3700628 24.0744076,55.5995474 C26.1927538,57.4083089 29.7135448,58.5921053 33.6993163,58.5921053 C37.685351,58.5921053 41.2060104,57.4083089 43.3244882,55.5995474 C45.6851981,55.3700628 47.9839019,54.436517 49.5617018,52.868086 C50.4079344,52.0265986 50.7354744,50.8017992 51.5197008,50.0116317 C52.3343379,49.190778 53.0639305,48.5548347 53.6864934,47.5362407 C54.9741414,45.4288186 56.1210578,40.651572 56.4026526,38.2021055 C56.5515463,36.9074687 56.091437,34.4516534 56.4241112,33.1904804 C56.7233468,32.0553585 57.0023087,30.9124329 57.2413813,29.7628939 C57.7415116,27.3566789 57.9316111,24.9236136 57.7725805,22.4677983 Z" id="path-13"></path>
        <path d="M37.5590385,20.8485665 C37.6080569,20.7941665 37.4864103,20.7732665 37.1940987,20.7859665 C37.5493698,20.7841665 37.6710164,20.8049665 37.5590385,20.8485665 M34.3173917,14.5215924 C34.3152917,14.5019924 34.3338917,14.6726924 34.3173917,14.5215924 M77.2146462,28.3062666 C77.1093994,26.9794936 76.9229048,25.6607545 76.6095777,24.3644329 C76.3607395,23.3341397 76.020732,22.3510137 75.6186491,21.3680173 C75.3758441,20.7741506 74.8087181,19.9584425 74.7420841,19.3177973 C74.6763887,18.6867411 75.1669594,17.9876552 75.2716699,17.2529347 C75.3732967,16.5379104 75.3560014,15.7860854 75.2098625,15.0775401 C74.8778994,13.4684115 73.7777018,11.9720179 72.0788712,11.5525663 C71.6995805,11.4588798 70.8978279,11.5743358 70.6298173,11.3526239 C70.3225235,11.0983873 70.108544,10.2322723 69.8303439,9.88486746 C69.037172,8.89448498 67.8000865,8.25669059 66.4954286,8.47905044 C65.5346662,8.6427104 66.0863738,8.84213453 65.3661372,8.27457268 C64.9656632,7.95904457 64.6664137,7.4772649 64.2774698,7.13569114 C63.6927804,6.62255303 63.0220164,6.1832757 62.328058,5.82278322 C60.5121822,4.87956798 58.4411668,4.19395845 56.4127864,3.85977077 C52.7126579,3.25009531 48.7635571,3.78163383 45.176988,4.74752562 C43.392351,5.22813907 41.5956476,5.8380737 39.9381113,6.64471126 C39.2273938,6.99056117 38.8171324,7.27745202 38.0761146,7.36802868 C36.9090149,7.51069662 35.9206336,7.5035697 34.8150731,8.00038069 C31.4133897,9.52916945 29.881211,13.0759127 31.2049072,16.4700103 C31.4711748,17.1526395 31.8316954,17.7520782 32.3287015,18.3034425 C32.9347085,18.9757052 33.1539168,18.8434037 32.6319732,19.61648 C31.851404,20.7724661 31.193377,22.0051638 30.6576239,23.2851583 C29.2513391,26.6458242 29.0160421,30.4308657 29.1076136,34.0149281 C29.1396568,35.2696545 29.1932858,36.5398009 29.3903721,37.7824763 C29.4755081,38.3203642 29.4993729,39.3317387 29.9013218,39.7308461 C30.1052458,39.9332506 30.3957806,40.0461151 30.685645,39.9655161 C31.3668666,39.7760697 31.1326422,39.2714839 31.1484627,38.803051 C31.2281017,36.449613 31.1205757,34.3676458 31.6781825,32.0425859 C32.0900528,30.3247394 32.7765031,28.7645922 33.6660731,27.228547 C34.7972415,25.2748643 36.0183723,23.5590911 37.5740137,21.8862091 C37.939763,21.4928032 38.0196702,21.3260333 38.5101068,21.2975256 C38.8814872,21.2760153 39.4247483,21.5312885 39.7858051,21.6196623 C40.5819266,21.8144216 41.379523,22.0069779 42.1901244,22.1381132 C43.6804725,22.3792622 45.1562067,22.3954598 46.6599621,22.3481629 C49.6193409,22.2552538 52.5914565,22.0468887 55.4607387,21.2988214 C57.3663088,20.80214 59.0557544,19.9104977 60.8810152,19.2568945 C60.9135948,19.2452323 61.3710496,18.918042 61.4512249,18.9313888 C61.5631753,18.9499187 62.239034,19.6617035 62.3531295,19.7513731 C63.2400181,20.4495519 64.212847,20.7426626 65.1706598,21.2832718 C66.3515689,21.949833 65.2079319,20.9959922 65.8592553,21.8267317 C66.0491017,22.0686582 66.1463042,22.5172653 66.2986104,22.7913277 C66.7831478,23.66444 67.4572635,24.4318147 68.2635746,25.0407127 C69.0426689,25.6290074 70.2135227,25.913177 70.610779,26.6788672 C70.9171343,27.2696239 71.02037,28.0725037 71.2675994,28.7031712 C71.9161073,30.3572641 72.7725614,31.8997884 73.6290156,33.4577327 C74.3189518,34.7132365 75.073645,35.8100045 75.1503344,37.2447179 C75.1770148,37.7441205 74.7036054,40.7397586 75.8567616,39.8286793 C76.0277038,39.6936566 76.3962687,38.1662932 76.4720195,37.9071325 C76.7793133,36.8540332 76.8885823,35.7546737 77.0277494,34.6726779 C77.3044747,32.5208669 77.3953757,30.4734977 77.2146462,28.3062666" id="path-15"></path>
        <filter x="-7.7%" y="-23.9%" width="116.9%" height="149.7%" filterUnits="objectBoundingBox" id="filter-17">
            <feOffset dx="0" dy="2" in="SourceAlpha" result="shadowOffsetOuter1"></feOffset>
            <feColorMatrix values="0 0 0 0 0   0 0 0 0 0   0 0 0 0 0  0 0 0 0.2 0" type="matrix" in="shadowOffsetOuter1" result="shadowMatrixOuter1"></feColorMatrix>
            <feMerge>
                <feMergeNode in="shadowMatrixOuter1"></feMergeNode>
                <feMergeNode in="SourceGraphic"></feMergeNode>
            </feMerge>
        </filter>
    </defs>
    <g id="Lsnding-Page" stroke="none" stroke-width="1" fill="none" fill-rule="evenodd">
        <g id="Avataaar/Circle" transform="translate(-4.000000, -3.000000)">
            <g id="Circle" stroke-width="1" fill-rule="evenodd" transform="translate(4.772727, 16.000000)">
                <mask id="mask-2" fill="white">
                    <use xlink:href="#path-1"></use>
                </mask>
                <use id="Circle-Background" fill="#E6E6E6" xlink:href="#path-1"></use>
                <g id="Color/Palette/Pastel-Red" mask="url(#mask-2)" fill="#FFAFB9">
                    <rect id="ðŸ–Color" x="0" y="0" width="95" height="96"></rect>
                </g>
            </g>
            <mask id="mask-4" fill="white">
                <use xlink:href="#path-3"></use>
            </mask>
            <g id="Mask"></g>
            <g id="Avataaar" stroke-width="1" fill-rule="evenodd" mask="url(#mask-4)">
                <g id="Body" transform="translate(12.727273, 14.400000)">
                    <mask id="mask-6" fill="white">
                        <use xlink:href="#path-5"></use>
                    </mask>
                    <use fill="#D0C6AC" xlink:href="#path-5"></use>
                    <g id="Skin/ðŸ‘¶ðŸ¿-01-Black" mask="url(#mask-6)" fill="#D08B5B">
                        <g transform="translate(-12.727273, 0.000000)" id="Color">
                            <rect x="0" y="0" width="105" height="98"></rect>
                        </g>
                    </g>
                    <path d="M62.0454545,37.7272727 L62.0454545,40.9272727 C62.0454545,53.2281603 52.0736149,63.2 39.7727273,63.2 C27.4718397,63.2 17.5,53.2281603 17.5,40.9272727 L17.5,37.7272727 C17.5,50.0281603 27.4718397,60 39.7727273,60 C52.0736149,60 62.0454545,50.0281603 62.0454545,37.7272727 Z" id="Neck-Shadow" fill-opacity="0.100000001" fill="#000000" mask="url(#mask-6)"></path>
                </g>
                <g id="Clothing/Blazer-+-Shirt" transform="translate(0.000000, 68.000000)">
                    <g id="Shirt" transform="translate(12.727273, 11.600000)">
                        <mask id="mask-8" fill="white">
                            <use xlink:href="#path-7"></use>
                        </mask>
                        <use id="Clothes" fill="#E6E6E6" xlink:href="#path-7"></use>
                        <g id="Clothing/Collar-+-Sweater" mask="url(#mask-8)">
                            <g transform="translate(-12.727273, -11.600000)">
                                <mask id="mask-10" fill="white">
                                    <use xlink:href="#path-9"></use>
                                </mask>
                                <use id="Clothes" stroke="none" fill="#E6E6E6" fill-rule="evenodd" xlink:href="#path-9"></use>
                                <g id="Color/Palette/Gray-01" stroke="none" fill="none" mask="url(#mask-10)" fill-rule="evenodd">
                                    <rect id="ðŸ–Color" fill="#E6E6E6" x="0" y="0" width="105" height="44"></rect>
                                </g>
                                <path d="M62.0454545,8.91179623 C64.5040643,10.7340743 66.0227273,13.2422906 66.0227273,16.011166 C66.0227273,18.8933976 64.3771725,21.4931908 61.7388058,23.3308667 L59.4917788,21.5505972 L57.6704545,21.6831548 L58.0681818,20.4227128 L58.0372502,20.3982064 C60.4634906,19.1412202 62.0454545,17.0801431 62.0454545,14.7507241 L62.0454545,8.91179623 Z M42.9545455,8.62859975 L42.9545455,14.7507241 C42.9545455,17.0801431 44.5365094,19.1412202 46.9627498,20.3982064 L46.9318182,20.4227128 L47.3295455,21.6831548 L45.5082212,21.5505972 L43.0772156,23.4766289 C40.3142734,21.632014 38.5795455,18.970462 38.5795455,16.011166 C38.5795455,13.0959108 40.2630246,10.4696032 42.9545455,8.62859975 Z" id="Collar" stroke="none" fill="#F2F2F2" fill-rule="evenodd"></path>
                            </g>
                        </g>
                        <g id="Shadowy" opacity="0.599999964" mask="url(#mask-8)" fill="#000000" fill-opacity="0.16">
                            <g transform="translate(23.863636, -10.000000)" id="Hola-ðŸ‘‹ðŸ¼">
                                <ellipse cx="16.1079545" cy="11.13905" rx="15.7639621" ry="10.7655309"></ellipse>
                            </g>
                        </g>
                    </g>
                    <g id="Blazer" transform="translate(12.727273, 11.200000)">
                        <path d="M52.6988927,0.891528231 C67.9456954,3.51660614 79.5454545,16.8036686 79.5454545,32.8 L52.3561513,32.8 C53.7087961,27.9679977 54.4886364,22.2834918 54.4886364,16.2 C54.4886364,10.6503823 53.8396644,5.432795 52.6988927,0.891528231 Z M27.5870305,32.8 L0,32.8 C-1.97672245e-15,16.6588363 11.8107607,3.27622357 27.2615909,0.822853114 C26.1100815,5.38016203 25.4545455,10.6223866 25.4545455,16.2 C25.4545455,22.2834918 26.2343857,27.9679977 27.5870305,32.8 Z" id="Saco" fill="#3A4C5A"></path>
                        <path d="M59.2613636,23.2 L61.5810353,21.4503048 C63.0276388,20.3591525 65.0270515,20.3767159 66.4542633,21.4931126 L67.6136364,22.4 L59.2613636,23.2 Z" id="Pocket-hanky" fill="#E6E6E6"></path>
                        <path d="M27.4431818,4.54747351e-14 C25.8522727,7.73333333 26.5151515,18.6666667 29.4318182,32.8 L23.0681818,32.8 L17.5,18.4 L19.8863636,14.8 L17.5,12.4 L25.0568182,0.4 C25.8632735,0.147695455 26.658728,0.0143621215 27.4431818,4.54747351e-14 Z" id="Wing" fill="#2F4351"></path>
                        <path d="M60.0568182,4.54747351e-14 C58.4659091,7.73333333 59.1287879,18.6666667 62.0454545,32.8 L55.6818182,32.8 L50.1136364,18.4 L52.5,14.8 L50.1136364,12.4 L57.6704545,0.4 C58.4769098,0.147695455 59.2723644,0.0143621215 60.0568182,4.54747351e-14 Z" id="Wing" fill="#2F4351" transform="translate(56.079545, 16.400000) scale(-1, 1) translate(-56.079545, -16.400000) "></path>
                    </g>
                </g>
                <g id="Face" transform="translate(30.227273, 32.800000)" fill="#000000">
                    <g id="Mouth/Twinkle" transform="translate(0.795455, 20.800000)" fill-opacity="0.599999964" fill-rule="nonzero">
                        <path d="M15.9259259,6.54545455 C15.9259259,8.74299396 18.3777837,10.2272727 21.5,10.2272727 C24.6222163,10.2272727 27.0740741,8.74299396 27.0740741,6.54545455 C27.0740741,6.0935852 26.6959532,5.72727273 26.2777778,5.72727273 C25.7630816,5.72727273 25.5333329,6.0975718 25.4814815,6.54545455 C24.9868126,7.74732162 23.7627793,8.4748561 21.5,8.59090909 C19.2372207,8.4748561 18.0131874,7.74732162 17.5185185,6.54545455 C17.4666671,6.0975718 17.2369184,5.72727273 16.7222222,5.72727273 C16.3040468,5.72727273 15.9259259,6.0935852 15.9259259,6.54545455 Z" id="Mouth"></path>
                    </g>
                    <g id="Nose/Default" transform="translate(11.136364, 16.000000)" fill-opacity="0.16">
                        <path d="M6.28571429,3.33333333 C6.28571429,5.1742825 8.39637189,6.66666667 11,6.66666667 C13.6036281,6.66666667 15.7142857,5.1742825 15.7142857,3.33333333" id="Nose"></path>
                    </g>
                    <g id="Eyes/Default-ðŸ˜€" transform="translate(0.000000, 3.200000)" fill-opacity="0.599999964">
                        <ellipse id="Eye" cx="12.0535714" cy="9" rx="2.41071429" ry="2.45454545"></ellipse>
                        <ellipse id="Eye" cx="32.9464286" cy="9" rx="2.41071429" ry="2.45454545"></ellipse>
                    </g>
                    <g id="Eyebrow/Natural/Default-Natural" fill-opacity="0.599999964">
                        <path d="M10.4552413,2.58719464 C8.14068553,2.90188756 4.5362646,4.98212228 4.84573265,7.40433732 C4.85590057,7.4836157 4.97163645,7.50868601 5.02133796,7.44267564 C6.01653861,6.11784922 13.7371486,4.19164042 16.5522944,4.60814552 C16.8099411,4.64635135 16.9790953,4.37138428 16.8029256,4.19885477 C15.2934545,2.72135293 12.5286539,2.30316063 10.4552413,2.58719464" id="Eyebrow" transform="translate(10.851198, 4.992158) rotate(5.000000) translate(-10.851198, -4.992158) "></path>
                        <path d="M34.1546319,2.58719464 C31.8400762,2.90188756 28.2356552,4.98212228 28.5451233,7.40433732 C28.5552912,7.4836157 28.6710271,7.50868601 28.7207286,7.44267564 C29.7159292,6.11784922 37.4365392,4.19164042 40.251685,4.60814552 C40.5093317,4.64635135 40.6784859,4.37138428 40.5023163,4.19885477 C38.9928451,2.72135293 36.2280445,2.30316063 34.1546319,2.58719464" id="Eyebrow" transform="translate(34.550588, 4.992158) scale(-1, 1) rotate(5.000000) translate(-34.550588, -4.992158) "></path>
                    </g>
                </g>
                <g id="Top">
                    <mask id="mask-12" fill="white">
                        <use xlink:href="#path-11"></use>
                    </mask>
                    <g id="Mask"></g>
                    <g id="Top/Short-Hair/Short-Curly" mask="url(#mask-12)">
                        <g transform="translate(-0.397727, 0.000000)">
                            <g id="Facial-Hair/Beard-Magestic" stroke="none" fill="none" transform="translate(19.526316, 28.800000)">
                                <mask id="mask-14" fill="white">
                                    <use xlink:href="#path-13"></use>
                                </mask>
                                <use id="Glorious-Beard" fill="#5E7AA9" fill-rule="evenodd" xlink:href="#path-13"></use>
                                <g id="Color/Hair/Blonde" mask="url(#mask-14)" fill="#B58143" fill-rule="evenodd">
                                    <rect id="Color" x="0" y="0" width="67" height="61"></rect>
                                </g>
                            </g>
                            <mask id="mask-16" fill="white">
                                <use xlink:href="#path-15"></use>
                            </mask>
                            <use id="Short-Hair" stroke="none" fill="#28354B" fill-rule="evenodd" xlink:href="#path-15"></use>
                            <g id="Color/Hair/Blonde-Golden" stroke="none" fill="none" mask="url(#mask-16)" fill-rule="evenodd">
                                <g transform="translate(0.398496, 0.000000)" fill="#D6B370" id="Color">
                                    <rect x="0" y="0" width="105" height="112"></rect>
                                </g>
                            </g>
                            <g id="Top/_Resources/Prescription-02" stroke="none" fill="none" mask="url(#mask-16)" fill-rule="evenodd" stroke-width="1">
                                <g transform="translate(24.706767, 34.400000)" id="Wayfarers">
                                    <g filter="url(#filter-17)" transform="translate(2.408451, 2.851852)">
                                        <path d="M13.6478873,16.7037037 L12.540863,16.7037037 C6.9502719,16.7037037 3.61267606,13.5813042 3.61267606,8.35185185 C3.61267606,4.12581481 4.34203752,0 13.057789,0 L14.2379856,0 C22.9537371,0 23.6830986,4.12581481 23.6830986,8.35185185 C23.6830986,13.2687063 19.5571315,16.7037037 13.6478873,16.7037037 Z M12.9997574,2.44444444 C5.21830986,2.44444444 5.21830986,5.231525 5.21830986,8.75989068 C5.21830986,11.6404211 6.46920056,15.0740741 12.4319956,15.0740741 L13.6478873,15.0740741 C18.6112661,15.0740741 22.0774648,12.4776819 22.0774648,8.75989068 C22.0774648,5.231525 22.0774648,2.44444444 14.2960172,2.44444444 L12.9997574,2.44444444 Z" id="Left" fill="#252C2F" fill-rule="nonzero"></path>
                                        <path d="M38.5352113,16.7037037 L37.4281869,16.7037037 C31.8375958,16.7037037 28.5,13.5813042 28.5,8.35185185 C28.5,4.12581481 29.2293615,0 37.945113,0 L39.1253095,0 C47.8410611,0 48.5704225,4.12581481 48.5704225,8.35185185 C48.5704225,13.2687063 44.4444554,16.7037037 38.5352113,16.7037037 Z M37.8870814,2.44444444 C30.1056338,2.44444444 30.1056338,5.231525 30.1056338,8.75989068 C30.1056338,11.6404211 31.3578208,15.0740741 37.3193196,15.0740741 L38.5352113,15.0740741 C43.49859,15.0740741 46.9647887,12.4776819 46.9647887,8.75989068 C46.9647887,5.231525 46.9647887,2.44444444 39.1833412,2.44444444 L37.8870814,2.44444444 Z" id="Right" fill="#252C2F" fill-rule="nonzero"></path>
                                        <path d="M1.18597951,2.35137809 C1.46349872,2.07626685 4.49960627,0 13.0457746,0 C20.2114629,0 21.7283307,0.754792366 24.024387,1.89521074 L24.1924551,1.97939255 C24.3520865,2.03663735 25.1684081,2.31807881 26.1232849,2.34902767 C26.993231,2.3111349 27.7373318,2.07183041 27.9547661,1.99515461 C30.5754388,0.701590756 33.1407221,0 39.1373239,0 C47.6834923,0 50.7195999,2.07626685 50.9971191,2.35137809 C51.6529657,2.35137809 52.1830986,2.87691109 52.1830986,3.52706713 L52.1830986,4.70275617 C52.1830986,5.35291221 51.6529657,5.87844522 50.9971191,5.87844522 C50.9971191,5.87844522 48.2268158,5.87844522 48.2268158,7.05413426 C48.2268158,8.2298233 47.4391805,5.35291221 47.4391805,4.70275617 L47.4391805,3.55764547 C45.9928082,2.99583024 43.403658,1.94992329 39.1373239,1.94992329 C34.3840318,1.94992329 32.0167789,2.80541887 29.9861319,3.65490224 L30.0088396,3.71047462 L30.0078373,4.51968033 L29.1178345,6.69925827 L28.0185069,6.258118 C27.9203248,6.21871932 27.7084786,6.14793747 27.4147322,6.0744055 C26.5958275,5.86941339 25.7539281,5.80700961 25.0093857,5.96212565 C24.7362299,6.01903421 24.482796,6.1044331 24.2502136,6.21977971 L23.1895598,6.74579891 L22.1283132,4.64289756 L22.1754449,3.70812324 L22.2078504,3.628712 C20.4565986,2.800463 18.8418172,1.94992329 13.0457746,1.94992329 C8.7796642,1.94992329 6.19057372,2.99543839 4.74391805,3.55726438 L4.74391805,4.70275617 C4.74391805,5.35291221 3.55793854,8.2298233 3.55793854,7.05413426 C3.55793854,5.87844522 1.18597951,5.87844522 1.18597951,5.87844522 C0.531318822,5.87844522 0,5.35291221 0,4.70275617 L0,3.52706713 C0,2.87691109 0.531318822,2.35137809 1.18597951,2.35137809 Z" id="Stuff" fill="#252C2F" fill-rule="nonzero"></path>
                                    </g>
                                </g>
                            </g>
                        </g>
                    </g>
                </g>
            </g>
        </g>
    </g>
</svg>