<?xml version="1.0" encoding="UTF-8"?>
<svg width="96px" height="108px" viewBox="0 0 96 108" version="1.1" xmlns="http://www.w3.org/2000/svg" xmlns:xlink="http://www.w3.org/1999/xlink">
    <!-- Generator: Sketch 52.2 (67145) - http://www.bohemiancoding.com/sketch -->
    <title>man-1</title>
    <desc>Created with Sketch.</desc>
    <defs>
        <ellipse id="path-1" cx="46.3636364" cy="46.2857143" rx="46.3636364" ry="46.2857143"></ellipse>
        <path d="M4.63636364,61.7142857 L-3.19744231e-14,61.7142857 L-3.19744231e-14,-1.42108547e-14 L102,-1.42108547e-14 L102,61.7142857 L97.3636364,61.7142857 C97.3636364,87.2771798 76.6059293,108 51,108 C25.3940707,108 4.63636364,87.2771798 4.63636364,61.7142857 Z" id="path-3"></path>
        <path d="M29.3636364,55.7750102 C22.7133081,52.6157838 17.930293,46.1638683 17.1213595,38.5260319 C14.8691697,38.2093764 13.1363636,36.2745799 13.1363636,33.9350649 L13.1363636,28.5506494 C13.1363636,26.253334 14.8072215,24.3462685 17,23.97839 L17,21.6363636 C17,9.68692996 26.68693,2.19507536e-15 38.6363636,0 C50.5857973,-2.19507536e-15 60.2727273,9.68692996 60.2727273,21.6363636 L60.2727273,23.97839 C62.4655058,24.3462685 64.1363636,26.253334 64.1363636,28.5506494 L64.1363636,33.9350649 C64.1363636,36.2745799 62.4035576,38.2093764 60.1513678,38.5260319 C59.3424343,46.1638683 54.5594192,52.6157838 47.9090909,55.7750102 L47.9090909,62.9270139 C64.2890926,63.898769 77.2727273,77.4902822 77.2727273,94.1142857 L0,94.1142857 C-2.03585327e-15,77.4902822 12.9836347,63.898769 29.3636364,62.9270139 L29.3636364,55.7750102 Z" id="path-5"></path>
        <path d="M70.2958755,13.329718 C81.6351609,17.9089509 89.6363636,29.0200849 89.6363636,42 L12.3636364,42 C12.3636364,28.8675297 20.5540235,17.6480268 32.1053181,13.1709708 C32.0806826,13.4048466 32.0681818,13.6406562 32.0681818,13.8781841 C32.0681818,20.0947075 40.630736,25.1341953 51.1931818,25.1341953 C61.7556277,25.1341953 70.3181818,20.0947075 70.3181818,13.8781841 C70.3181818,13.6942989 70.3106897,13.5114435 70.2958755,13.329718 Z" id="path-7"></path>
        <rect id="path-9" x="0" y="0" width="102" height="108"></rect>
        <path d="M60.406015,69.6642238 C67.1943089,66.4519805 72.0413015,59.8298767 72.7162437,52.0199984 C74.9534688,51.685116 76.6691729,49.7553261 76.6691729,47.424812 L76.6691729,42.4466165 C76.6691729,40.1442209 74.9946201,38.2329381 72.7969925,37.864246 L72.7969925,35.4857143 C72.7969925,32.4210823 72.1562721,29.5055174 71.0009869,26.8646854 C67.1571273,20.4428571 34.5834595,20.7527397 31.2523211,26.8015429 C30.0795542,29.459014 29.4285714,32.3966368 29.4285714,35.4857143 L29.4285714,37.864246 C27.2309438,38.2329381 25.556391,40.1442209 25.556391,42.4466165 L25.556391,47.424812 C25.556391,49.7553261 27.2720951,51.685116 29.5093202,52.0199984 C30.1842625,59.8298767 35.031255,66.4519805 41.8195489,69.6642238 L41.8195489,76.808943 C25.4089393,77.748578 12.3909774,91.354035 12.3909774,108 L0,108 L0,7.10542736e-14 L102.225564,7.10542736e-14 L102.225564,108 L89.8345865,108 C89.8345865,91.354035 76.8166246,77.748578 60.406015,76.808943 L60.406015,69.6642238 Z" id="path-11"></path>
        <path d="M31.1658736,6.37549028 C32.6824528,3.28949319 35.8478388,1.16666667 39.5070423,1.16666667 C42.9621323,1.16666667 45.9769594,3.05927225 47.5792323,5.86826368 C47.6617484,5.84549621 47.7486635,5.83333333 47.8384194,5.83333333 L50.9291862,5.83333333 C51.4661297,5.83333333 51.9014085,6.26861205 51.9014085,6.80555556 C51.9014085,7.34249906 51.4661297,7.77777778 50.9291862,7.77777778 L48.4012109,7.77777778 C48.6623558,8.63900804 48.8028169,9.55303452 48.8028169,10.5 C48.8028169,15.6546577 44.6409568,19.8333333 39.5070423,19.8333333 C34.3731277,19.8333333 30.2112676,15.6546577 30.2112676,10.5 C30.2112676,9.94704147 30.2591607,9.40531417 30.3510092,8.87877171 C30.3182642,7.17706249 29.0158293,5.83333333 27.4467109,5.83333333 C25.9993791,5.83333333 24.7789403,6.9765708 24.572514,8.48946892 C24.7141066,9.13701919 24.7887324,9.80975949 24.7887324,10.5 C24.7887324,15.6546577 20.6268723,19.8333333 15.4929577,19.8333333 C10.3590432,19.8333333 6.1971831,15.6546577 6.1971831,10.5 C6.1971831,9.55303452 6.33764422,8.63900804 6.59878914,7.77777778 L4.07081377,7.77777778 C3.53387026,7.77777778 3.09859155,7.34249906 3.09859155,6.80555556 C3.09859155,6.26861205 3.53387026,5.83333333 4.07081377,5.83333333 L7.16158059,5.83333333 C7.25133651,5.83333333 7.33825163,5.84549621 7.42076767,5.86826368 C9.02304063,3.05927225 12.0378677,1.16666667 15.4929577,1.16666667 C19.115272,1.16666667 22.2536751,3.24690759 23.787758,6.28245333 C24.5923286,5.07082818 25.9311224,4.27777778 27.4467109,4.27777778 C29.0007572,4.27777778 30.3689227,5.11158593 31.1658736,6.37549028 Z M15.4929577,18.2777778 C19.7712199,18.2777778 23.2394366,14.7955481 23.2394366,10.5 C23.2394366,6.20445195 19.7712199,2.72222222 15.4929577,2.72222222 C11.2146956,2.72222222 7.74647887,6.20445195 7.74647887,10.5 C7.74647887,14.7955481 11.2146956,18.2777778 15.4929577,18.2777778 Z M39.5070423,18.2777778 C43.7853044,18.2777778 47.2535211,14.7955481 47.2535211,10.5 C47.2535211,6.20445195 43.7853044,2.72222222 39.5070423,2.72222222 C35.2287801,2.72222222 31.7605634,6.20445195 31.7605634,10.5 C31.7605634,14.7955481 35.2287801,18.2777778 39.5070423,18.2777778 Z" id="path-13"></path>
        <filter x="-2.0%" y="-5.4%" width="104.1%" height="121.4%" filterUnits="objectBoundingBox" id="filter-14">
            <feOffset dx="0" dy="2" in="SourceAlpha" result="shadowOffsetOuter1"></feOffset>
            <feColorMatrix values="0 0 0 0 0   0 0 0 0 0   0 0 0 0 0  0 0 0 0.1 0" type="matrix" in="shadowOffsetOuter1"></feColorMatrix>
        </filter>
    </defs>
    <g id="Lsnding-Page" stroke="none" stroke-width="1" fill="none" fill-rule="evenodd">
        <g id="Avataaar/Circle" transform="translate(-3.000000, 0.000000)">
            <g id="Circle" stroke-width="1" fill-rule="evenodd" transform="translate(4.636364, 15.428571)">
                <mask id="mask-2" fill="white">
                    <use xlink:href="#path-1"></use>
                </mask>
                <use id="Circle-Background" fill="#E6E6E6" xlink:href="#path-1"></use>
                <g id="Color/Palette/Pastel-Green" mask="url(#mask-2)" fill="#A7FFC4">
                    <rect id="ðŸ–Color" x="0" y="0" width="93" height="93"></rect>
                </g>
            </g>
            <mask id="mask-4" fill="white">
                <use xlink:href="#path-3"></use>
            </mask>
            <g id="Mask"></g>
            <g id="Avataaar" stroke-width="1" fill-rule="evenodd" mask="url(#mask-4)">
                <g id="Body" transform="translate(12.363636, 13.885714)">
                    <mask id="mask-6" fill="white">
                        <use xlink:href="#path-5"></use>
                    </mask>
                    <use fill="#D0C6AC" xlink:href="#path-5"></use>
                    <g id="Skin/ðŸ‘¶ðŸ½-03-Brown" mask="url(#mask-6)" fill="#D08B5B">
                        <g transform="translate(-12.363636, 0.000000)" id="Color">
                            <rect x="0" y="0" width="102" height="94"></rect>
                        </g>
                    </g>
                    <path d="M60.2727273,36.2207792 L60.2727273,39.3064935 C60.2727273,51.2559272 50.5857973,60.9428571 38.6363636,60.9428571 C26.68693,60.9428571 17,51.2559272 17,39.3064935 L17,36.2207792 C17,48.1702129 26.68693,57.8571429 38.6363636,57.8571429 C50.5857973,57.8571429 60.2727273,48.1702129 60.2727273,36.2207792 Z" id="Neck-Shadow" fill-opacity="0.100000001" fill="#000000" mask="url(#mask-6)"></path>
                </g>
                <g id="Clothing/Shirt-Scoop-Neck" transform="translate(0.000000, 65.571429)">
                    <mask id="mask-8" fill="white">
                        <use xlink:href="#path-7"></use>
                    </mask>
                    <use id="Clothes" fill="#E6E6E6" fill-rule="evenodd" xlink:href="#path-7"></use>
                    <g id="Color/Palette/Gray-01" mask="url(#mask-8)" fill="#E6E6E6" fill-rule="evenodd">
                        <rect id="ðŸ–Color" x="0" y="0" width="102" height="42"></rect>
                    </g>
                </g>
                <g id="Face" transform="translate(29.363636, 31.628571)">
                    <g id="Mouth/Default" transform="translate(0.772727, 20.057143)" fill="#000000" fill-opacity="0.699999988">
                        <path d="M15.5555556,5.79545455 C15.5555556,8.78281296 17.9931164,11.2045455 21,11.2045455 C24.0068836,11.2045455 26.4444444,8.78281296 26.4444444,5.79545455" id="Mouth"></path>
                    </g>
                    <g id="Nose/Default" transform="translate(10.818182, 15.428571)" fill="#000000" fill-opacity="0.16">
                        <path d="M6.28571429,3 C6.28571429,4.65685425 8.39637189,6 11,6 C13.6036281,6 15.7142857,4.65685425 15.7142857,3" id="Nose"></path>
                    </g>
                    <g id="Eyes/Happy-ðŸ˜" transform="translate(0.000000, 3.085714)" fill="#000000" fill-opacity="0.599999964">
                        <path d="M6.20434999,8.67282492 C6.91327738,7.20510536 8.50955506,6.18181818 10.3651424,6.18181818 C12.2141794,6.18181818 13.8057342,7.19789351 14.518394,8.65729799 C14.7300956,9.09082639 14.4288434,9.44561792 14.1249652,9.18271336 C13.1839176,8.36855265 11.8475429,7.86010006 10.3651424,7.86010006 C8.92910591,7.86010006 7.63010368,8.33724504 6.6947695,9.10722501 C6.35278654,9.38875009 5.99700313,9.10210308 6.20434999,8.67282492 Z" id="Squint"></path>
                        <path d="M28.4722071,8.67282492 C29.1811345,7.20510536 30.7774122,6.18181818 32.6329996,6.18181818 C34.4820365,6.18181818 36.0735914,7.19789351 36.7862511,8.65729799 C36.9979527,9.09082639 36.6967005,9.44561792 36.3928223,9.18271336 C35.4517748,8.36855265 34.1154,7.86010006 32.6329996,7.86010006 C31.1969631,7.86010006 29.8979608,8.33724504 28.9626266,9.10722501 C28.6206437,9.38875009 28.2648603,9.10210308 28.4722071,8.67282492 Z" id="Squint"></path>
                    </g>
                    <g id="Eyebrow/Natural/Default-Natural">
                        <path d="M10.0012909,2.32901016 C7.78906305,2.62353098 4.33632555,4.51400625 4.62022518,6.69352924 C4.62955449,6.7648642 4.73997678,6.7868798 4.78776677,6.72720286 C5.74470667,5.52949959 13.1282114,3.75785797 15.8150427,4.11930929 C16.0609453,4.1524679 16.2238365,3.90406557 16.0564032,3.74956596 C14.6217835,2.42647182 11.9830469,2.06325845 10.0012909,2.32901016" id="Eyebrow" fill="#4A312C" transform="translate(10.364279, 4.504679) rotate(5.000000) translate(-10.364279, -4.504679) "></path>
                        <path d="M32.6566619,2.32901016 C30.4444341,2.62353098 26.9916966,4.51400625 27.2755962,6.69352924 C27.2849255,6.7648642 27.3953478,6.7868798 27.4431378,6.72720286 C28.4000777,5.52949959 35.7835824,3.75785797 38.4704137,4.11930929 C38.7163163,4.1524679 38.8792075,3.90406557 38.7117742,3.74956596 C37.2771545,2.42647182 34.6384179,2.06325845 32.6566619,2.32901016" id="Eyebrow" fill-opacity="0.599999964" fill="#000000" transform="translate(33.019650, 4.504679) scale(-1, 1) rotate(5.000000) translate(-33.019650, -4.504679) "></path>
                    </g>
                </g>
                <g id="Top">
                    <mask id="mask-10" fill="white">
                        <use xlink:href="#path-9"></use>
                    </mask>
                    <g id="Mask"></g>
                    <g id="Top/Accesories/Hat" mask="url(#mask-10)">
                        <g transform="translate(-0.386364, 0.000000)">
                            <g id="Hat" stroke-width="1" fill-rule="evenodd" transform="translate(0.387218, 0.000000)">
                                <mask id="mask-12" fill="white">
                                    <use xlink:href="#path-11"></use>
                                </mask>
                                <g id="Mask-Hair"></g>
                                <path d="M51.306391,0.771428571 L51.306391,0.771428571 C60.6912026,0.771428571 68.8124373,7.29999555 70.8291594,16.4655573 L73.5714286,28.9285714 L29.0413534,28.9285714 L31.7836225,16.4655573 C33.8003447,7.29999555 41.9215793,0.771428571 51.306391,0.771428571 Z" fill="#1F333C" mask="url(#mask-12)"></path>
                                <ellipse id="Hipster" fill="#1F333C" mask="url(#mask-12)" cx="51.112782" cy="33.75" rx="47.2406015" ry="22.1785714"></ellipse>
                                <ellipse id="Very" fill="#15232A" mask="url(#mask-12)" cx="51.112782" cy="31.6285714" rx="24.0075188" ry="9.64285714"></ellipse>
                            </g>
                            <g id="Facial-Hair/-Blank" transform="translate(18.973684, 27.771429)"></g>
                            <g id="Top/_Resources/Round" transform="translate(24.007519, 32.785714)">
                                <g id="Lennon-Glasses">
                                    <use fill="black" fill-opacity="1" filter="url(#filter-14)" xlink:href="#path-13"></use>
                                    <use fill="#252C2F" fill-rule="evenodd" xlink:href="#path-13"></use>
                                </g>
                            </g>
                        </g>
                    </g>
                </g>
            </g>
        </g>
    </g>
</svg>