<?xml version="1.0" encoding="UTF-8"?>
<svg width="95px" height="107px" viewBox="0 0 95 107" version="1.1" xmlns="http://www.w3.org/2000/svg" xmlns:xlink="http://www.w3.org/1999/xlink">
    <!-- Generator: Sketch 52.2 (67145) - http://www.bohemiancoding.com/sketch -->
    <title>Avataaar/man4</title>
    <desc>Created with Sketch.</desc>
    <defs>
        <ellipse id="path-1" cx="46.8181818" cy="47.1428571" rx="46.8181818" ry="47.1428571"></ellipse>
        <path d="M4.68181818,62.8571429 L-3.19744231e-14,62.8571429 L-3.19744231e-14,-1.42108547e-14 L103,-1.42108547e-14 L103,62.8571429 L98.3181818,62.8571429 C98.3181818,88.8934239 77.3569678,110 51.5,110 C25.6430322,110 4.68181818,88.8934239 4.68181818,62.8571429 Z" id="path-3"></path>
        <path d="M29.6515152,56.8260257 C22.8865454,53.6123391 18.0350633,47.0245426 17.2718272,39.2373945 C15.0060329,38.9101452 13.2651515,36.960323 13.2651515,34.6038961 L13.2651515,29.038961 C13.2651515,26.719123 14.9523903,24.7933608 17.1666667,24.4218756 L17.1666667,21.8484848 C17.1666667,9.78189986 26.9485665,2.2165957e-15 39.0151515,0 C51.0817365,-2.2165957e-15 60.8636364,9.78189986 60.8636364,21.8484848 L60.8636364,24.4218756 C63.0779127,24.7933608 64.7651515,26.719123 64.7651515,29.038961 L64.7651515,34.6038961 C64.7651515,36.960323 63.0242701,38.9101452 60.7584758,39.2373945 C59.9952397,47.0245426 55.1437576,53.6123391 48.3787879,56.8260257 L48.3787879,64.108535 C64.9412509,65.2238648 78.030303,79.0119479 78.030303,95.8571429 L0,95.8571429 C-2.06294141e-15,79.0119479 13.0890522,65.2238648 29.6515152,64.108535 L29.6515152,56.8260257 Z" id="path-5"></path>
        <path d="M52.280149,0.568006558 C66.9401067,3.32933908 78.030303,16.2013606 78.030303,31.6636364 L0,31.6636364 C-1.9103418e-15,16.0645117 11.2873727,3.10169427 26.1402317,0.497070186 C26.1401783,0.506975729 26.1401515,0.516885312 26.1401515,0.526798907 C26.1401515,5.16418966 31.9918238,8.92353764 39.2102273,8.92353764 C46.4072379,8.92353764 52.2456064,5.18643945 52.280149,0.568006558 Z" id="path-7"></path>
        <path d="M61.9771486,11.5070277 C77.9958235,13.0673186 90.5151515,26.5716364 90.5151515,43 L12.4848485,43 C12.4848485,26.5716364 25.0041765,13.0673186 41.0228514,11.5070277 C40.9852052,11.8430223 40.9659091,12.1840757 40.9659091,12.5293101 C40.9659091,17.9266383 45.6821822,22.3020374 51.5,22.3020374 C57.3178178,22.3020374 62.0340909,17.9266383 62.0340909,12.5293101 C62.0340909,12.1840757 62.0147948,11.8430223 61.9771486,11.5070277 Z" id="path-9"></path>
        <rect id="path-11" x="0" y="0" width="103" height="110"></rect>
        <path d="M25.6065145,30.6857758 C26.4641082,30.0412632 31.5882723,29.7942044 32.5120042,29.2458353 C32.8002895,29.0744944 33.0239927,28.9009417 33.1963414,28.7289503 C33.3688198,28.9009417 33.5926526,29.0744944 33.8809379,29.2458353 C34.8045402,29.7942044 39.9287043,30.0412632 40.7862979,30.6857758 C41.6546552,31.3384846 42.2885457,32.8360591 42.2191653,34.006954 C42.1359088,35.4118977 40.6062979,38.7642997 36.7998427,39.1504348 C35.9690935,38.221655 34.6644826,37.6225472 33.1963414,37.6225472 C31.7284596,37.6225472 30.423719,38.221655 29.5929698,39.1504348 C25.7866442,38.7642997 24.2570333,35.4118977 24.1737768,34.006954 C24.1043964,32.8360591 24.7382869,31.3384846 25.6065145,30.6857758 M40.5199291,37.4630453 C40.5204478,37.4627851 40.5210962,37.4625249 40.5216149,37.4623948 C40.5209665,37.4625249 40.5204478,37.4627851 40.5199291,37.4630453 M25.8678258,37.4610938 C25.869382,37.4617443 25.872235,37.4627851 25.8743099,37.4635657 C25.872235,37.4627851 25.8700304,37.4618744 25.8678258,37.4610938 M56.9103032,22.0994737 C56.757796,19.7488373 56.2876951,17.4283839 55.8776375,15.1130044 C55.7671476,14.489698 55.166456,10.2631579 54.8958076,10.2631579 C54.8045107,13.858976 54.4900295,17.4001523 54.0845108,20.9760652 C53.9632572,22.0450922 53.8362975,23.1143794 53.7527817,24.1871793 C53.6853465,25.0537715 53.8055626,26.1008117 53.5966433,26.9390423 C53.3300151,28.0075489 51.9938912,29.004631 50.9547414,29.3726822 C48.3618596,30.2910541 46.1991364,26.4899088 43.9846696,25.3780791 C41.109857,23.934756 36.1678975,23.5910485 33.2285028,25.4722862 C30.224915,23.5910485 25.2829555,23.934756 22.4081429,25.3780791 C20.1938058,26.4899088 18.0309528,30.2910541 15.4382008,29.3726822 C14.3990509,29.004631 13.0626677,28.0075489 12.7962988,26.9390423 C12.5872498,26.1008117 12.707466,25.0537715 12.6401605,24.1871793 C12.5566446,23.1143794 12.4295553,22.0450922 12.3083017,20.9760652 C11.9029127,17.4001523 11.5883017,13.858976 11.4971346,10.2631579 C11.2263565,10.2631579 10.6255352,14.489698 10.515175,15.1130044 C10.1051173,17.4283839 9.63514618,19.7488373 9.48263898,22.0994737 C9.32585224,24.5150298 9.5129848,26.9082088 10.0059099,29.2749776 C10.2412845,30.4056717 10.5162124,31.5298609 10.8109819,32.6463741 C11.1385611,33.8868722 10.6853191,36.3024283 10.8319905,37.5758415 C11.1095121,39.9851528 12.2391807,44.6840839 13.5077397,46.7569581 C14.1208809,47.7588538 14.8395841,48.3843718 15.6421921,49.1917689 C16.414584,49.9689829 16.7372353,51.1737036 17.5709673,52.0013961 C19.1250882,53.5441151 21.3893533,54.4623569 23.7150881,54.6880794 C25.8018171,56.4671891 29.2700591,57.6315789 33.1963414,57.6315789 C37.1228831,57.6315789 40.5909953,56.4671891 42.6778541,54.6880794 C45.0033295,54.4623569 47.2677242,53.5441151 48.8219749,52.0013961 C49.6555772,51.1737036 49.9782285,49.9689829 50.7507501,49.1917689 C51.5532284,48.3843718 52.2719316,47.7588538 52.8852024,46.7569581 C54.1536318,44.6840839 55.28343,39.9851528 55.560822,37.5758415 C55.7074934,36.3024283 55.2542514,33.8868722 55.5819603,32.6463741 C55.8767297,31.5298609 56.151528,30.4056717 56.3870323,29.2749776 C56.879698,26.9082088 57.0669602,24.5150298 56.9103032,22.0994737 Z" id="path-13"></path>
        <path d="M36.8503774,20.4774528 C36.898471,20.4230528 36.7791196,20.4021528 36.4923232,20.4148528 C36.8408911,20.4130528 36.9602425,20.4338528 36.8503774,20.4774528 M33.6698969,14.2623067 C33.6677969,14.2427067 33.6863969,14.4134067 33.6698969,14.2623067 M75.7577661,27.8007976 C75.6545051,26.4977169 75.4715292,25.2025268 75.164114,23.9293537 C74.9199708,22.9174586 74.5863786,21.9518885 74.1918821,20.9864456 C73.9536583,20.4031837 73.3972328,19.6020417 73.3318561,18.9728366 C73.2674002,18.3530493 73.7487149,17.6664471 73.8514497,16.9448466 C73.951159,16.2425906 73.93419,15.504191 73.7908085,14.8082983 C73.4651088,13.2279042 72.3856697,11.7582318 70.7188925,11.3462705 C70.3467582,11.2542569 69.560133,11.3676513 69.2971792,11.1498985 C68.9956834,10.9002018 68.7857413,10.0495532 68.5127903,9.70835197 C67.7345838,8.7356549 66.5208396,8.10924969 65.2407978,8.32763883 C64.298163,8.48837629 64.8394611,8.68423927 64.1328139,8.12681245 C63.7398959,7.81691877 63.4462927,7.34374231 63.0646874,7.00826808 C62.4910298,6.50429315 61.8329218,6.07286006 61.1520569,5.71880495 C59.3704429,4.79243284 57.3385033,4.11906633 55.3483942,3.79084629 C51.7180795,3.19205789 47.84349,3.71410465 44.324592,4.66274838 C42.5736274,5.13477945 40.8108241,5.73382238 39.184562,6.5260557 C38.4872543,6.86572972 38.0847337,7.14749752 37.3576974,7.23645673 C36.2126184,7.37657704 35.2428858,7.36957739 34.1581849,7.85751675 C30.8206842,9.35900571 29.3174145,12.8424143 30.6161353,16.175903 C30.8773791,16.8463424 31.2310973,17.4350768 31.718726,17.9765953 C32.3132989,18.6368533 32.5283712,18.5069144 32.0162756,19.2661857 C31.2504341,20.4015292 30.6048227,21.6122144 30.0791781,22.8693519 C28.699427,26.1700059 28.4685697,29.8874574 28.5584133,33.4075187 C28.589852,34.6398392 28.6424691,35.8873044 28.8358368,37.1077892 C28.9193664,37.636072 28.942781,38.6293862 29.3371459,39.0213667 C29.5372223,39.2201569 29.8222753,39.3310059 30.1066706,39.2518462 C30.7750389,39.0657827 30.5452338,38.5702074 30.5607559,38.1101393 C30.6388922,35.798727 30.533395,33.7539378 31.080481,31.4703969 C31.4845801,29.7832262 32.1580786,28.2509388 33.0308642,26.7423229 C34.1406897,24.8235275 35.3387804,23.1383931 36.86507,21.4953839 C37.2239185,21.1090031 37.3023179,20.9452113 37.783501,20.9172127 C38.1478742,20.8960864 38.6808851,21.1468012 39.0351295,21.2335969 C39.8162299,21.4248783 40.5987773,21.6139962 41.3940843,21.7427898 C42.8563126,21.9796325 44.3042028,21.9955408 45.7795855,21.9490886 C48.6831269,21.8578386 51.5991649,21.6531942 54.4143096,20.9184853 C56.2839257,20.4306732 57.9414949,19.5549531 59.7323168,18.9130214 C59.7642817,18.9015675 60.2131053,18.5802198 60.2917678,18.5933282 C60.401606,18.6115273 61.0647126,19.3106017 61.1766554,19.39867 C62.0468102,20.0843813 63.0012838,20.3722579 63.9410247,20.9032133 C65.0996525,21.5578717 63.9775935,20.6210637 64.6166278,21.4369686 C64.8028923,21.674575 64.8982607,22.1151713 65.0476932,22.3843397 C65.5230884,23.2418607 66.184485,23.9955323 66.9755826,24.5935571 C67.7399771,25.1713465 68.8887392,25.4504417 69.2785002,26.2024589 C69.5790752,26.7826664 69.6803631,27.571209 69.9229277,28.1906145 C70.5591997,29.8151701 71.3994942,31.3301493 72.2397888,32.8602732 C72.9167074,34.0933573 73.6571612,35.1705401 73.7324036,36.5796336 C73.7585806,37.0701183 73.2941034,40.0122629 74.4255019,39.1174529 C74.5932188,38.9848413 74.9548296,37.4847523 75.0291512,37.2302195 C75.330647,36.1959255 75.4378543,35.1161973 75.5743956,34.0535229 C75.8458997,31.9401371 75.9350856,29.9293281 75.7577661,27.8007976" id="path-15"></path>
        <filter x="-7.8%" y="-25.1%" width="117.0%" height="150.5%" filterUnits="objectBoundingBox" id="filter-17">
            <feOffset dx="0" dy="2" in="SourceAlpha" result="shadowOffsetOuter1"></feOffset>
            <feColorMatrix values="0 0 0 0 0   0 0 0 0 0   0 0 0 0 0  0 0 0 0.2 0" type="matrix" in="shadowOffsetOuter1" result="shadowMatrixOuter1"></feColorMatrix>
            <feMerge>
                <feMergeNode in="shadowMatrixOuter1"></feMergeNode>
                <feMergeNode in="SourceGraphic"></feMergeNode>
            </feMerge>
        </filter>
    </defs>
    <g id="Lsnding-Page" stroke="none" stroke-width="1" fill="none" fill-rule="evenodd">
        <g id="Pally-Adventures" transform="translate(-33.000000, -172.000000)">
            <g id="Avataaar/Circle" transform="translate(29.000000, 169.000000)">
                <g id="Circle" stroke-width="1" fill-rule="evenodd" transform="translate(4.681818, 15.714286)">
                    <mask id="mask-2" fill="white">
                        <use xlink:href="#path-1"></use>
                    </mask>
                    <use id="Circle-Background" fill="#E6E6E6" xlink:href="#path-1"></use>
                    <g id="Color/Palette/Pastel-Red" mask="url(#mask-2)" fill="#FFAFB9">
                        <rect id="ðŸ–Color" x="0" y="0" width="94" height="94"></rect>
                    </g>
                </g>
                <mask id="mask-4" fill="white">
                    <use xlink:href="#path-3"></use>
                </mask>
                <g id="Mask"></g>
                <g id="Avataaar" stroke-width="1" fill-rule="evenodd" mask="url(#mask-4)">
                    <g id="Body" transform="translate(12.484848, 14.142857)">
                        <mask id="mask-6" fill="white">
                            <use xlink:href="#path-5"></use>
                        </mask>
                        <use fill="#D0C6AC" xlink:href="#path-5"></use>
                        <g id="Skin/ðŸ‘¶ðŸ¿-01-Black" mask="url(#mask-6)" fill="#D08B5B">
                            <g transform="translate(-12.484848, 0.000000)" id="Color">
                                <rect x="0" y="0" width="103" height="96"></rect>
                            </g>
                        </g>
                        <path d="M60.8636364,37.0800866 L60.8636364,40.2229437 C60.8636364,52.2895287 51.0817365,62.0714286 39.0151515,62.0714286 C26.9485665,62.0714286 17.1666667,52.2895287 17.1666667,40.2229437 L17.1666667,37.0800866 C17.1666667,49.1466716 26.9485665,58.9285714 39.0151515,58.9285714 C51.0817365,58.9285714 60.8636364,49.1466716 60.8636364,37.0800866 Z" id="Neck-Shadow" fill-opacity="0.100000001" fill="#000000" mask="url(#mask-6)"></path>
                    </g>
                    <g id="Clothing/Blazer-+-Shirt" transform="translate(0.000000, 66.785714)">
                        <g id="Shirt" transform="translate(12.484848, 11.336364)">
                            <mask id="mask-8" fill="white">
                                <use xlink:href="#path-7"></use>
                            </mask>
                            <use id="Clothes" fill="#E6E6E6" xlink:href="#path-7"></use>
                            <g id="Clothing/Collar-+-Sweater" mask="url(#mask-8)">
                                <g transform="translate(-12.484848, -11.336364)">
                                    <mask id="mask-10" fill="white">
                                        <use xlink:href="#path-9"></use>
                                    </mask>
                                    <use id="Clothes" stroke="none" fill="#E6E6E6" fill-rule="evenodd" xlink:href="#path-9"></use>
                                    <g id="Color/Palette/Gray-01" stroke="none" fill="none" mask="url(#mask-10)" fill-rule="evenodd">
                                        <rect id="ðŸ–Color" fill="#E6E6E6" x="0" y="0" width="103" height="43"></rect>
                                    </g>
                                    <path d="M60.8636364,8.7092554 C63.2754154,10.4901181 64.7651515,12.9413294 64.7651515,15.6472759 C64.7651515,18.4640022 63.1509407,21.0047092 60.5628286,22.8006198 L58.3586021,21.0608109 L56.5719697,21.1903558 L56.9621212,19.9585603 L56.9317788,19.9346108 C59.3118051,18.7061925 60.8636364,16.6919581 60.8636364,14.4154803 L60.8636364,8.7092554 Z M42.1363636,8.43249521 L42.1363636,14.4154803 C42.1363636,16.6919581 43.6881949,18.7061925 46.0682212,19.9346108 L46.0378788,19.9585603 L46.4280303,21.1903558 L44.6413979,21.0608109 L42.2566972,22.9430692 C39.5463825,21.1403773 37.844697,18.5393151 37.844697,15.6472759 C37.844697,12.7982764 39.4961099,10.2316577 42.1363636,8.43249521 Z" id="Collar" stroke="none" fill="#F2F2F2" fill-rule="evenodd"></path>
                                </g>
                            </g>
                            <g id="Shadowy" opacity="0.599999964" mask="url(#mask-8)" fill="#000000" fill-opacity="0.16">
                                <g transform="translate(23.409091, -9.772727)" id="Hola-ðŸ‘‹ðŸ¼">
                                    <ellipse cx="15.8011364" cy="10.8858898" rx="15.4636962" ry="10.5208597"></ellipse>
                                </g>
                            </g>
                        </g>
                        <g id="Blazer" transform="translate(12.484848, 10.945455)">
                            <path d="M51.690664,0.853669906 C66.6417869,3.3767583 78.030303,16.3856866 78.030303,32.0545455 L51.3588913,32.0545455 C52.6857714,27.3323613 53.4507576,21.7770488 53.4507576,15.8318182 C53.4507576,10.4011589 52.8124628,5.29584236 51.690664,0.853669906 Z M27.0615633,32.0545455 L0,32.0545455 C-1.93625004e-15,16.243864 11.5956096,3.1414823 26.7464876,0.787741614 C25.6143275,5.2452994 24.969697,10.3742727 24.969697,15.8318182 C24.969697,21.7770488 25.7346831,27.3323613 27.0615633,32.0545455 Z" id="Saco" fill="#3A4C5A"></path>
                            <path d="M58.1325758,22.6727273 L60.3672138,20.9934944 C61.8114722,19.9081974 63.8039346,19.9256826 65.2289235,21.0361594 L66.3257576,21.8909091 L58.1325758,22.6727273 Z" id="Pocket-hanky" fill="#E6E6E6"></path>
                            <path d="M26.9204545,4.44412184e-14 C25.3598485,7.55757576 26.010101,18.2424242 28.8712121,32.0545455 L22.6287879,32.0545455 L17.1666667,17.9818182 L19.5075758,14.4636364 L17.1666667,12.1181818 L24.5795455,0.390909091 C25.3706397,0.14433874 26.1509427,0.0140357096 26.9204545,4.44412184e-14 Z" id="Wing" fill="#2F4351"></path>
                            <path d="M58.9128788,4.44412184e-14 C57.3522727,7.55757576 58.0025253,18.2424242 60.8636364,32.0545455 L54.6212121,32.0545455 L49.1590909,17.9818182 L51.5,14.4636364 L49.1590909,12.1181818 L56.5719697,0.390909091 C57.3630639,0.14433874 58.143367,0.0140357096 58.9128788,4.44412184e-14 Z" id="Wing" fill="#2F4351" transform="translate(55.011364, 16.027273) scale(-1, 1) translate(-55.011364, -16.027273) "></path>
                        </g>
                    </g>
                    <g id="Face" transform="translate(29.651515, 32.214286)" fill="#000000">
                        <g id="Mouth/Twinkle" transform="translate(0.780303, 20.428571)" fill-opacity="0.599999964" fill-rule="nonzero">
                            <path d="M15.5555556,6.18181818 C15.5555556,8.25727207 17.9503934,9.65909091 21,9.65909091 C24.0496066,9.65909091 26.4444444,8.25727207 26.4444444,6.18181818 C26.4444444,5.75505269 26.075117,5.40909091 25.6666667,5.40909091 C25.1639402,5.40909091 24.9395345,5.75881781 24.8888889,6.18181818 C24.4057239,7.31691487 23.2101565,8.00403076 21,8.11363636 C18.7898435,8.00403076 17.5942761,7.31691487 17.1111111,6.18181818 C17.0604655,5.75881781 16.8360598,5.40909091 16.3333333,5.40909091 C15.924883,5.40909091 15.5555556,5.75505269 15.5555556,6.18181818 Z" id="Mouth"></path>
                        </g>
                        <g id="Nose/Default" transform="translate(10.924242, 15.714286)" fill-opacity="0.16">
                            <path d="M6.28571429,3 C6.28571429,4.65685425 8.39637189,6 11,6 C13.6036281,6 15.7142857,4.65685425 15.7142857,3" id="Nose"></path>
                        </g>
                        <g id="Eyes/Default-ðŸ˜€" transform="translate(0.000000, 3.142857)" fill-opacity="0.599999964">
                            <ellipse id="Eye" cx="11.7857143" cy="8.5" rx="2.35714286" ry="2.31818182"></ellipse>
                            <ellipse id="Eye" cx="32.2142857" cy="8.5" rx="2.35714286" ry="2.31818182"></ellipse>
                        </g>
                        <g id="Eyebrow/Natural/Default-Natural" fill-opacity="0.599999964">
                            <path d="M10.2379235,2.32922371 C7.97404462,2.62826342 4.43780367,4.52604429 4.72385464,6.70537906 C4.73325523,6.77670778 4.84618152,6.79850431 4.89519496,6.73872034 C5.87663859,5.53887327 13.4341257,3.75201017 16.1822369,4.10810019 C16.4337478,4.14076813 16.6008999,3.89199301 16.4299144,3.73780419 C14.9648564,2.41737305 12.2659533,2.05942356 10.2379235,2.32922371" id="Eyebrow" transform="translate(10.603556, 4.509338) rotate(5.000000) translate(-10.603556, -4.509338) "></path>
                            <path d="M33.4236692,2.32922371 C31.1597903,2.62826342 27.6235494,4.52604429 27.9096003,6.70537906 C27.9190009,6.77670778 28.0319272,6.79850431 28.0809407,6.73872034 C29.0623843,5.53887327 36.6198714,3.75201017 39.3679826,4.10810019 C39.6194935,4.14076813 39.7866456,3.89199301 39.6156601,3.73780419 C38.1506021,2.41737305 35.451699,2.05942356 33.4236692,2.32922371" id="Eyebrow" transform="translate(33.789301, 4.509338) scale(-1, 1) rotate(5.000000) translate(-33.789301, -4.509338) "></path>
                        </g>
                    </g>
                    <g id="Top">
                        <mask id="mask-12" fill="white">
                            <use xlink:href="#path-11"></use>
                        </mask>
                        <g id="Mask"></g>
                        <g id="Top/Short-Hair/Short-Curly" mask="url(#mask-12)">
                            <g transform="translate(-0.390152, 0.000000)">
                                <g id="Facial-Hair/Beard-Magestic" stroke="none" fill="none" transform="translate(19.157895, 28.285714)">
                                    <mask id="mask-14" fill="white">
                                        <use xlink:href="#path-13"></use>
                                    </mask>
                                    <use id="Glorious-Beard" fill="#5E7AA9" fill-rule="evenodd" xlink:href="#path-13"></use>
                                    <g id="Color/Hair/Blonde" mask="url(#mask-14)" fill="#B58143" fill-rule="evenodd">
                                        <rect id="Color" x="0" y="0" width="66" height="60"></rect>
                                    </g>
                                </g>
                                <mask id="mask-16" fill="white">
                                    <use xlink:href="#path-15"></use>
                                </mask>
                                <use id="Short-Hair" stroke="none" fill="#28354B" fill-rule="evenodd" xlink:href="#path-15"></use>
                                <g id="Color/Hair/Blonde-Golden" stroke="none" fill="none" mask="url(#mask-16)" fill-rule="evenodd">
                                    <g transform="translate(0.390977, 0.000000)" fill="#D6B370" id="Color">
                                        <rect x="0" y="0" width="103" height="110"></rect>
                                    </g>
                                </g>
                                <g id="Top/_Resources/Prescription-02" stroke="none" fill="none" mask="url(#mask-16)" fill-rule="evenodd" stroke-width="1">
                                    <g transform="translate(24.240602, 33.785714)" id="Wayfarers">
                                        <g filter="url(#filter-17)" transform="translate(2.366197, 2.722222)">
                                            <path d="M13.4084507,15.9444444 L12.3208478,15.9444444 C6.82833731,15.9444444 3.54929577,12.9639722 3.54929577,7.97222222 C3.54929577,3.93827778 4.26586143,0 12.828705,0 L13.9881964,0 C22.55104,0 23.2676056,3.93827778 23.2676056,7.97222222 C23.2676056,12.6655833 19.2140239,15.9444444 13.4084507,15.9444444 Z M12.7716915,2.33333333 C5.12676056,2.33333333 5.12676056,4.9937284 5.12676056,8.36171383 C5.12676056,11.1113111 6.35570582,14.3888889 12.2138904,14.3888889 L13.4084507,14.3888889 C18.2847526,14.3888889 21.6901408,11.9105145 21.6901408,8.36171383 C21.6901408,4.9937284 21.6901408,2.33333333 14.0452099,2.33333333 L12.7716915,2.33333333 Z" id="Left" fill="#252C2F" fill-rule="nonzero"></path>
                                            <path d="M37.8591549,15.9444444 L36.771552,15.9444444 C31.2790415,15.9444444 28,12.9639722 28,7.97222222 C28,3.93827778 28.7165657,0 37.2794093,0 L38.4389006,0 C47.0017442,0 47.7183099,3.93827778 47.7183099,7.97222222 C47.7183099,12.6655833 43.6647281,15.9444444 37.8591549,15.9444444 Z M37.2223957,2.33333333 C29.5774648,2.33333333 29.5774648,4.9937284 29.5774648,8.36171383 C29.5774648,11.1113111 30.8076836,14.3888889 36.6645947,14.3888889 L37.8591549,14.3888889 C42.7354569,14.3888889 46.1408451,11.9105145 46.1408451,8.36171383 C46.1408451,4.9937284 46.1408451,2.33333333 38.4959141,2.33333333 L37.2223957,2.33333333 Z" id="Right" fill="#252C2F" fill-rule="nonzero"></path>
                                            <path d="M1.16517286,2.24449726 C1.4378233,1.98189108 4.42066581,0 12.8169014,0 C19.8568758,0 21.3471319,0.720483622 23.6029065,1.8090648 L23.7680261,1.88942016 C23.9248569,1.94406293 24.7268571,2.21271159 25.6649817,2.24225368 C26.5196656,2.20608332 27.2507119,1.9776563 27.4643316,1.90446576 C30.0390276,0.669700267 32.5593059,0 38.4507042,0 C46.8469398,0 49.8297823,1.98189108 50.1024328,2.24449726 C50.7467734,2.24449726 51.2676056,2.7461424 51.2676056,3.3667459 L51.2676056,4.48899453 C51.2676056,5.10959802 50.7467734,5.61124316 50.1024328,5.61124316 C50.1024328,5.61124316 47.3807313,5.61124316 47.3807313,6.73349179 C47.3807313,7.85574043 46.6069142,5.10959802 46.6069142,4.48899453 L46.6069142,3.39593431 C45.1859169,2.85965614 42.6421903,1.86129041 38.4507042,1.86129041 C33.7808031,1.86129041 31.4550811,2.67789983 29.4600594,3.48877032 L29.4823688,3.54181668 L29.4813841,4.31424032 L28.6069953,6.39474653 L27.5269541,5.97365809 C27.4304946,5.93605026 27.2223649,5.86848577 26.933772,5.79829616 C26.129234,5.60262187 25.3021048,5.54305463 24.5706245,5.69111994 C24.302261,5.74544175 24.0532732,5.82695887 23.8247712,5.93706245 L22.7827255,6.43917169 L21.7400972,4.43185676 L21.786402,3.53957219 L21.818239,3.46377055 C20.0977109,2.67316923 18.511259,1.86129041 12.8169014,1.86129041 C8.625635,1.86129041 6.08196717,2.8592821 4.66069142,3.39557054 L4.66069142,4.48899453 C4.66069142,5.10959802 3.49551857,7.85574043 3.49551857,6.73349179 C3.49551857,5.61124316 1.16517286,5.61124316 1.16517286,5.61124316 C0.521997439,5.61124316 0,5.10959802 0,4.48899453 L0,3.3667459 C0,2.7461424 0.521997439,2.24449726 1.16517286,2.24449726 Z" id="Stuff" fill="#252C2F" fill-rule="nonzero"></path>
                                        </g>
                                    </g>
                                </g>
                            </g>
                        </g>
                    </g>
                </g>
            </g>
        </g>
    </g>
</svg>