<?xml version="1.0" encoding="UTF-8"?>
<svg width="146px" height="146px" viewBox="0 0 146 146" version="1.1" xmlns="http://www.w3.org/2000/svg" xmlns:xlink="http://www.w3.org/1999/xlink">
    <!-- Generator: Sketch 52.3 (67297) - http://www.bohemiancoding.com/sketch -->
    <title>Group 2</title>
    <desc>Created with Sketch.</desc>
    <defs>
        <linearGradient x1="46.228%" y1="45.555%" x2="92.711%" y2="94.014%" id="linearGradient-1">
            <stop stop-color="#0062A5" offset="0%"></stop>
            <stop stop-color="#AB53F1" offset="100%"></stop>
        </linearGradient>
        <path d="M93.8062225,6.7712571 C89.4799272,2.43592472 83.6096432,3.75265532e-16 77.4883117,0 C71.3669805,-3.75265532e-16 65.4966965,2.43592472 61.170401,6.7712571 L55.9098222,12.0376167 L61.3484515,17.4822224 L66.6090302,12.2158628 C72.615916,6.20906222 82.3490322,6.21267555 88.3514662,12.2239344 C94.3539002,18.2351934 94.3539002,27.979006 88.3514662,33.9902647 C82.3490322,40.0015237 72.615916,40.005137 66.6090302,33.9983365 L55.731772,23.096972 L50.2931427,17.6604684 L39.4158845,6.7712571 C30.405261,-2.23812024 15.8061072,-2.23209573 6.80290597,6.78471522 C-2.20029526,15.8015262 -2.20029526,30.4167242 6.80290597,39.4335352 C15.8061072,48.450346 30.405261,48.4563707 39.4158845,39.4469932 L44.6764632,34.1806335 L39.2337875,28.740079 L33.9732087,34.0064388 C27.966323,40.0132392 18.2332068,40.0096257 12.2307728,33.998367 C6.22833875,27.987108 6.22833875,18.2432954 12.2307728,12.2320366 C18.2332068,6.22077765 27.966323,6.21716432 33.9732087,12.2239649 L44.8545137,23.096972 L52.138392,30.3888547 L61.162308,39.418636 C70.1677365,48.4429097 84.7756677,48.4501643 93.7900357,39.4348397 C102.804404,30.4195152 102.811651,15.7955312 93.8062225,6.7712571 Z" id="path-2"></path>
        <linearGradient x1="50%" y1="2.626%" x2="50%" y2="100%" id="linearGradient-4">
            <stop stop-color="#0062A5" offset="0%"></stop>
            <stop stop-color="#B3D0E4" stop-opacity="0" offset="100%"></stop>
        </linearGradient>
        <path d="M93.8062225,6.7712571 C89.4799272,2.43592472 83.6096432,3.75265532e-16 77.4883117,0 C71.3669805,-3.75265532e-16 65.4966965,2.43592472 61.170401,6.7712571 L55.9098222,12.0376167 L61.3484515,17.4822224 L66.6090302,12.2158628 C72.615916,6.20906222 82.3490322,6.21267555 88.3514662,12.2239344 C94.3539002,18.2351934 94.3539002,27.979006 88.3514662,33.9902647 C82.3490322,40.0015237 72.615916,40.005137 66.6090302,33.9983365 L55.731772,23.096972 L50.2931427,17.6604684 L39.4158845,6.7712571 C30.405261,-2.23812024 15.8061072,-2.23209573 6.80290597,6.78471522 C-2.20029526,15.8015262 -2.20029526,30.4167242 6.80290597,39.4335352 C15.8061072,48.450346 30.405261,48.4563707 39.4158845,39.4469932 L44.6764632,34.1806335 L39.2337875,28.740079 L33.9732087,34.0064388 C27.966323,40.0132392 18.2332068,40.0096257 12.2307728,33.998367 C6.22833875,27.987108 6.22833875,18.2432954 12.2307728,12.2320366 C18.2332068,6.22077765 27.966323,6.21716432 33.9732087,12.2239649 L44.8545137,23.096972 L52.138392,30.3888547 L61.162308,39.418636 C70.1677365,48.4429097 84.7756677,48.4501643 93.7900357,39.4348397 C102.804404,30.4195152 102.811651,15.7955312 93.8062225,6.7712571 Z" id="path-5"></path>
    </defs>
    <g id="Branding" stroke="none" stroke-width="1" fill="none" fill-rule="evenodd">
        <g id="Logo:-Full" transform="translate(-82.000000, -569.000000)">
            <g id="Group-6" transform="translate(82.000000, 569.000000)">
                <g id="Group-4">
                    <g id="Group-2">
                        <g id="Group" fill-rule="nonzero">
                            <g id="artboard@1.5x-b-link" fill="#000000">
                                <ellipse id="artboard@1.5x-b" cx="72.7275" cy="72.7075" rx="72.7275" ry="72.7075"></ellipse>
                            </g>
                            <g id="artboard@1.5x-b-link" fill="url(#linearGradient-1)">
                                <ellipse id="artboard@1.5x-b" cx="72.7275" cy="72.7075" rx="72.7275" ry="72.7075"></ellipse>
                            </g>
                        </g>
                        <g id="Group" transform="translate(22.425000, 49.482500)">
                            <g id="artboard@1.5x-d-link" fill="#FFFFFF" fill-rule="nonzero">
                                <path d="M93.8062225,6.7712571 C89.4799272,2.43592472 83.6096432,3.75265532e-16 77.4883117,0 C71.3669805,-3.75265532e-16 65.4966965,2.43592472 61.170401,6.7712571 L55.9098222,12.0376167 L61.3484515,17.4822224 L66.6090302,12.2158628 C72.615916,6.20906222 82.3490322,6.21267555 88.3514662,12.2239344 C94.3539002,18.2351934 94.3539002,27.979006 88.3514662,33.9902647 C82.3490322,40.0015237 72.615916,40.005137 66.6090302,33.9983365 L55.731772,23.096972 L50.2931427,17.6604684 L39.4158845,6.7712571 C30.405261,-2.23812024 15.8061072,-2.23209573 6.80290597,6.78471522 C-2.20029526,15.8015262 -2.20029526,30.4167242 6.80290597,39.4335352 C15.8061072,48.450346 30.405261,48.4563707 39.4158845,39.4469932 L44.6764632,34.1806335 L39.2337875,28.740079 L33.9732087,34.0064388 C27.966323,40.0132392 18.2332068,40.0096257 12.2307728,33.998367 C6.22833875,27.987108 6.22833875,18.2432954 12.2307728,12.2320366 C18.2332068,6.22077765 27.966323,6.21716432 33.9732087,12.2239649 L44.8545137,23.096972 L52.138392,30.3888547 L61.162308,39.418636 C70.1677365,48.4429097 84.7756677,48.4501643 93.7900357,39.4348397 C102.804404,30.4195152 102.811651,15.7955312 93.8062225,6.7712571 Z" id="artboard@1.5x-d"></path>
                            </g>
                            <g id="Clipped">
                                <mask id="mask-3" fill="white">
                                    <use xlink:href="#path-2"></use>
                                </mask>
                                <g id="artboard@1.5x-d"></g>
                                <polygon id="Rectangle-path" fill="url(#linearGradient-4)" fill-rule="nonzero" opacity="0.8" mask="url(#mask-3)" transform="translate(37.046768, 35.723232) rotate(45.000000) translate(-37.046768, -35.723232) " points="30.1017678 28.7807322 43.9917678 28.7807322 43.9917678 42.6657322 30.1017678 42.6657322"></polygon>
                            </g>
                            <g id="Clipped">
                                <mask id="mask-6" fill="white">
                                    <use xlink:href="#path-5"></use>
                                </mask>
                                <g id="artboard@1.5x-d"></g>
                                <polygon id="Rectangle-path" fill="url(#linearGradient-4)" fill-rule="nonzero" opacity="0.8" mask="url(#mask-6)" transform="translate(63.307500, 9.972500) rotate(-135.000000) translate(-63.307500, -9.972500) " points="56.3625 3.03 70.2525 3.03 70.2525 16.915 56.3625 16.915"></polygon>
                            </g>
                        </g>
                    </g>
                </g>
            </g>
        </g>
    </g>
</svg>