<?xml version="1.0" encoding="UTF-8"?>
<svg width="94px" height="100px" viewBox="0 0 94 100" version="1.1" xmlns="http://www.w3.org/2000/svg" xmlns:xlink="http://www.w3.org/1999/xlink">
    <!-- Generator: Sketch 52.2 (67145) - http://www.bohemiancoding.com/sketch -->
    <title>woman-3</title>
    <desc>Created with Sketch.</desc>
    <defs>
        <ellipse id="path-1" cx="46.3636364" cy="46.2857143" rx="46.3636364" ry="46.2857143"></ellipse>
        <path d="M4.63636364,61.7142857 L-3.19744231e-14,61.7142857 L-3.19744231e-14,-1.42108547e-14 L102,-1.42108547e-14 L102,61.7142857 L97.3636364,61.7142857 C97.3636364,87.2771798 76.6059293,108 51,108 C25.3940707,108 4.63636364,87.2771798 4.63636364,61.7142857 Z" id="path-3"></path>
        <path d="M29.3636364,55.7750102 C22.7133081,52.6157838 17.930293,46.1638683 17.1213595,38.5260319 C14.8691697,38.2093764 13.1363636,36.2745799 13.1363636,33.9350649 L13.1363636,28.5506494 C13.1363636,26.253334 14.8072215,24.3462685 17,23.97839 L17,21.6363636 C17,9.68692996 26.68693,2.19507536e-15 38.6363636,0 C50.5857973,-2.19507536e-15 60.2727273,9.68692996 60.2727273,21.6363636 L60.2727273,23.97839 C62.4655058,24.3462685 64.1363636,26.253334 64.1363636,28.5506494 L64.1363636,33.9350649 C64.1363636,36.2745799 62.4035576,38.2093764 60.1513678,38.5260319 C59.3424343,46.1638683 54.5594192,52.6157838 47.9090909,55.7750102 L47.9090909,62.9270139 C64.2890926,63.898769 77.2727273,77.4902822 77.2727273,94.1142857 L0,94.1142857 C-2.03585327e-15,77.4902822 12.9836347,63.898769 29.3636364,62.9270139 L29.3636364,55.7750102 Z" id="path-5"></path>
        <path d="M64.7379404,11.6762554 C78.9314266,14.4729731 89.6363636,26.9863506 89.6363636,42 L12.3636364,42 C12.3636364,26.9860842 23.0689532,14.4725292 37.262815,11.6761066 C37.6892263,14.3332452 38.9990527,16.8658931 41.1647875,18.7959557 L48.3387225,25.1892333 C49.8554575,26.5409194 52.1445425,26.5409194 53.6612775,25.1892333 L60.8352125,18.7959557 C61.0868214,18.5717265 61.3289668,18.3370988 61.5610172,18.0926844 C63.3085277,16.2520638 64.364729,14.0063885 64.7379404,11.6762554 Z" id="path-7"></path>
        <rect id="path-9" x="0" y="0" width="102" height="108"></rect>
        <path d="M25.5841266,29.7491979 C27.7929197,17.4405176 38.5556625,8.1 51.5,8.1 C66.0421142,8.1 77.8308271,19.8887128 77.8308271,34.4308271 L77.8308271,46.1896799 C78.1697246,49.9709749 78.4867535,52.6199695 78.7819139,54.1366638 C79.3151568,56.8767549 80.9867585,55.9730903 80.9867585,59.870649 C80.9867585,63.7682076 79.3107764,65.0777938 79.3035091,68.5435431 C79.2962418,72.0092923 85.2655853,74.7653857 85.2655853,79.1650053 C85.2655853,83.5646248 82.5262635,104.326429 55.2086188,104.326429 C49.3731022,104.326429 44.4024903,102.672741 40.296783,99.3653658 C40.5611965,101.868669 40.8106398,104.746881 41.0451128,108 L22.8458647,108 C23.2069185,98.8310279 20.0252348,93.7039648 20.0252348,83.4861753 C20.0252348,73.2683858 25.3057,58.407766 25.1691729,54.7714286 C25.1774122,54.5322638 25.1859633,54.2462665 25.1948262,53.9134368 C25.1777835,53.5246217 25.1691729,53.1336171 25.1691729,52.7406015 L25.1691729,34.4308271 C25.1691729,32.893474 25.3009253,31.3868934 25.5537548,29.9217605 C25.5546325,29.8479987 25.5555112,29.7740785 25.556391,29.7 C25.5656514,29.7163806 25.5748966,29.7327799 25.5841266,29.7491979 Z M51.5,20.4428571 C39.7379958,20.4428571 30.2030075,29.9778455 30.2030075,41.7398496 L30.2030075,50.0601504 C30.2030075,61.8221545 39.7379958,71.3571429 51.5,71.3571429 C63.2620042,71.3571429 72.7969925,61.8221545 72.7969925,50.0601504 L72.7969925,41.7398496 C72.7969925,29.9778455 63.2620042,20.4428571 51.5,20.4428571 Z" id="path-11"></path>
    </defs>
    <g id="Lsnding-Page" stroke="none" stroke-width="1" fill="none" fill-rule="evenodd">
        <g id="Avataaar/Circle" transform="translate(-4.000000, -8.000000)">
            <g id="Circle" stroke-width="1" fill-rule="evenodd" transform="translate(4.636364, 15.428571)">
                <mask id="mask-2" fill="white">
                    <use xlink:href="#path-1"></use>
                </mask>
                <use id="Circle-Background" fill="#E6E6E6" xlink:href="#path-1"></use>
                <g id="Color/Palette/Blue-02" mask="url(#mask-2)" fill="#5199E4">
                    <rect id="ðŸ–Color" x="0" y="0" width="93" height="93"></rect>
                </g>
            </g>
            <mask id="mask-4" fill="white">
                <use xlink:href="#path-3"></use>
            </mask>
            <g id="Mask"></g>
            <g id="Avataaar" stroke-width="1" fill-rule="evenodd" mask="url(#mask-4)">
                <g id="Body" transform="translate(12.363636, 13.885714)">
                    <mask id="mask-6" fill="white">
                        <use xlink:href="#path-5"></use>
                    </mask>
                    <use fill="#D0C6AC" xlink:href="#path-5"></use>
                    <g id="Skin/ðŸ‘¶ðŸ¼-04-Light" mask="url(#mask-6)" fill="#EDB98A">
                        <g transform="translate(-12.363636, 0.000000)" id="Color">
                            <rect x="0" y="0" width="102" height="94"></rect>
                        </g>
                    </g>
                    <path d="M60.2727273,36.2207792 L60.2727273,39.3064935 C60.2727273,51.2559272 50.5857973,60.9428571 38.6363636,60.9428571 C26.68693,60.9428571 17,51.2559272 17,39.3064935 L17,36.2207792 C17,48.1702129 26.68693,57.8571429 38.6363636,57.8571429 C50.5857973,57.8571429 60.2727273,48.1702129 60.2727273,36.2207792 Z" id="Neck-Shadow" fill-opacity="0.100000001" fill="#000000" mask="url(#mask-6)"></path>
                </g>
                <g id="Clothing/Shirt-V-Neck" transform="translate(0.000000, 65.571429)">
                    <mask id="mask-8" fill="white">
                        <use xlink:href="#path-7"></use>
                    </mask>
                    <use id="Clothes" fill="#E6E6E6" fill-rule="evenodd" xlink:href="#path-7"></use>
                    <g id="Color/Palette/Gray-01" mask="url(#mask-8)" fill="#E6E6E6" fill-rule="evenodd">
                        <rect id="ðŸ–Color" x="0" y="0" width="102" height="42"></rect>
                    </g>
                </g>
                <g id="Face" transform="translate(29.363636, 31.628571)">
                    <g id="Mouth/Default" transform="translate(0.772727, 20.057143)" fill="#000000" fill-opacity="0.699999988">
                        <path d="M15.5555556,5.79545455 C15.5555556,8.78281296 17.9931164,11.2045455 21,11.2045455 C24.0068836,11.2045455 26.4444444,8.78281296 26.4444444,5.79545455" id="Mouth"></path>
                    </g>
                    <g id="Nose/Default" transform="translate(10.818182, 15.428571)" fill="#000000" fill-opacity="0.16">
                        <path d="M6.28571429,3 C6.28571429,4.65685425 8.39637189,6 11,6 C13.6036281,6 15.7142857,4.65685425 15.7142857,3" id="Nose"></path>
                    </g>
                    <g id="Eyes/Happy-ðŸ˜" transform="translate(0.000000, 3.085714)" fill="#000000" fill-opacity="0.599999964">
                        <path d="M6.20434999,8.67282492 C6.91327738,7.20510536 8.50955506,6.18181818 10.3651424,6.18181818 C12.2141794,6.18181818 13.8057342,7.19789351 14.518394,8.65729799 C14.7300956,9.09082639 14.4288434,9.44561792 14.1249652,9.18271336 C13.1839176,8.36855265 11.8475429,7.86010006 10.3651424,7.86010006 C8.92910591,7.86010006 7.63010368,8.33724504 6.6947695,9.10722501 C6.35278654,9.38875009 5.99700313,9.10210308 6.20434999,8.67282492 Z" id="Squint"></path>
                        <path d="M28.4722071,8.67282492 C29.1811345,7.20510536 30.7774122,6.18181818 32.6329996,6.18181818 C34.4820365,6.18181818 36.0735914,7.19789351 36.7862511,8.65729799 C36.9979527,9.09082639 36.6967005,9.44561792 36.3928223,9.18271336 C35.4517748,8.36855265 34.1154,7.86010006 32.6329996,7.86010006 C31.1969631,7.86010006 29.8979608,8.33724504 28.9626266,9.10722501 C28.6206437,9.38875009 28.2648603,9.10210308 28.4722071,8.67282492 Z" id="Squint"></path>
                    </g>
                    <g id="Eyebrow/Outline/Default">
                        <g id="I-Browse" transform="translate(4.607143, 2.250000)">
                            <path d="M1.39375492,4.18446628 C2.89680058,2.11870002 7.01741561,0.960313954 10.5668764,1.81169267 C10.9787158,1.91047706 11.3945648,1.66446005 11.4957012,1.26219829 C11.5968376,0.859936539 11.3449631,0.453758385 10.9331236,0.354973995 C6.81103233,-0.633756709 2.03946682,0.70762437 0.14195937,3.31553372 C-0.103702803,3.65316859 -0.0226273647,4.12139291 0.32304643,4.36134201 C0.668720225,4.60129111 1.14809274,4.52210115 1.39375492,4.18446628 Z" id="Eyebrow" fill-opacity="0.599999964" fill="#000000" fill-rule="nonzero"></path>
                            <path d="M23.6616121,4.18446628 C25.1646577,2.11870002 29.2852727,0.960313954 32.8347335,1.81169267 C33.2465729,1.91047706 33.662422,1.66446005 33.7635584,1.26219829 C33.8646948,0.859936539 33.6128202,0.453758385 33.2009808,0.354973995 C29.0788895,-0.633756709 24.307324,0.70762437 22.4098165,3.31553372 C22.1641543,3.65316859 22.2452298,4.12139291 22.5909036,4.36134201 C22.9365774,4.60129111 23.4159499,4.52210115 23.6616121,4.18446628 Z" id="Eyebrow" fill="#724133" transform="translate(28.026845, 2.264699) scale(-1, 1) translate(-28.026845, -2.264699) "></path>
                        </g>
                    </g>
                </g>
                <g id="Top">
                    <mask id="mask-10" fill="white">
                        <use xlink:href="#path-9"></use>
                    </mask>
                    <g id="Mask"></g>
                    <g id="Top/Accesories/Hijab" mask="url(#mask-10)">
                        <g transform="translate(-0.386364, 0.000000)">
                            <mask id="mask-12" fill="white">
                                <use xlink:href="#path-11"></use>
                            </mask>
                            <use id="Hijab-Mask" stroke="none" fill="#3B6BAD" fill-rule="evenodd" xlink:href="#path-11"></use>
                            <g id="Color/Palette/Gray-02" stroke="none" fill="none" mask="url(#mask-12)" fill-rule="evenodd">
                                <g transform="translate(0.387218, 0.000000)" fill="#929598" id="ðŸ–Color">
                                    <rect x="0" y="0" width="102" height="108"></rect>
                                </g>
                            </g>
                            <path d="M27.9085248,40.4844841 C27.6353715,39.0523785 27.4924812,37.5748202 27.4924812,36.0642857 C27.4924812,22.9633025 38.2410135,12.3428571 51.5,12.3428571 C64.7589865,12.3428571 75.5075188,22.9633025 75.5075188,36.0642857 C75.5075188,37.5748202 75.3646285,39.0523785 75.0914752,40.4844841 C74.4780282,28.034792 64.1503852,18.1285714 51.5,18.1285714 C38.8496148,18.1285714 28.5219718,28.034792 27.9085248,40.4844841 Z" id="Band" stroke="none" fill-opacity="0.5" fill="#FFFFFF" fill-rule="evenodd" mask="url(#mask-12)"></path>
                            <path d="M72.7862251,41.0561243 C73.0473995,42.4014245 73.1842105,43.7911263 73.1842105,45.212782 L73.1842105,52.7586466 C73.1842105,64.7345054 63.4758588,74.4428571 51.5,74.4428571 C39.5241412,74.4428571 29.8157895,64.7345054 29.8157895,52.7586466 L29.8157895,45.212782 C29.8157895,43.7911263 29.9526005,42.4014245 30.2137749,41.0561243 C30.2066146,41.2831544 30.2030075,41.5110808 30.2030075,41.7398496 L30.2030075,50.0601504 C30.2030075,61.8221545 39.7379958,71.3571429 51.5,71.3571429 C63.2620042,71.3571429 72.7969925,61.8221545 72.7969925,50.0601504 L72.7969925,41.7398496 C72.7969925,41.5110808 72.7933854,41.2831544 72.7862251,41.0561243 Z M44.2074544,79.8411077 C46.718326,81.764111 52.5313537,82.4303521 59.0138012,81.2917606 C65.4962487,80.1531692 70.7299517,77.5466558 72.4291293,74.8841902 C72.4555788,74.981517 72.4777005,75.0801714 72.4953937,75.1801251 C73.1573402,78.9196311 67.3702899,83.061802 59.5696552,84.4319228 C51.7690204,85.8020435 44.9087429,83.8812773 44.2467964,80.1417713 C44.2291032,80.0418176 44.2160174,79.9415762 44.2074544,79.8411077 Z M48.8028879,90.9982704 C51.9751404,93.1789197 58.2460091,93.2826217 64.7055612,90.9406674 C71.1651133,88.5987131 75.9019592,84.5040899 76.9248865,80.8024497 C76.980154,80.9260857 77.0312697,81.0520263 77.0781206,81.180248 C78.8309216,85.9773271 73.9505182,92.1507176 66.1774346,94.9689016 C58.4043509,97.7870856 50.6820956,96.1828742 48.9292946,91.3857951 C48.8824438,91.2575734 48.840332,91.1283683 48.8028879,90.9982704 Z" id="Shadows" stroke="none" fill-opacity="0.16" fill="#000000" fill-rule="evenodd" opacity="0.899999976" mask="url(#mask-12)"></path>
                        </g>
                    </g>
                </g>
            </g>
        </g>
    </g>
</svg>