<?xml version="1.0" encoding="UTF-8"?>
<svg width="94px" height="102px" viewBox="0 0 94 102" version="1.1" xmlns="http://www.w3.org/2000/svg" xmlns:xlink="http://www.w3.org/1999/xlink">
    <!-- Generator: Sketch 52.2 (67145) - http://www.bohemiancoding.com/sketch -->
    <title>woman-2</title>
    <desc>Created with Sketch.</desc>
    <defs>
        <ellipse id="path-1" cx="46.3636364" cy="46.2857143" rx="46.3636364" ry="46.2857143"></ellipse>
        <path d="M4.63636364,61.7142857 L-3.19744231e-14,61.7142857 L-3.19744231e-14,-1.42108547e-14 L102,-1.42108547e-14 L102,61.7142857 L97.3636364,61.7142857 C97.3636364,87.2771798 76.6059293,108 51,108 C25.3940707,108 4.63636364,87.2771798 4.63636364,61.7142857 Z" id="path-3"></path>
        <path d="M29.3636364,55.7750102 C22.7133081,52.6157838 17.930293,46.1638683 17.1213595,38.5260319 C14.8691697,38.2093764 13.1363636,36.2745799 13.1363636,33.9350649 L13.1363636,28.5506494 C13.1363636,26.253334 14.8072215,24.3462685 17,23.97839 L17,21.6363636 C17,9.68692996 26.68693,2.19507536e-15 38.6363636,0 C50.5857973,-2.19507536e-15 60.2727273,9.68692996 60.2727273,21.6363636 L60.2727273,23.97839 C62.4655058,24.3462685 64.1363636,26.253334 64.1363636,28.5506494 L64.1363636,33.9350649 C64.1363636,36.2745799 62.4035576,38.2093764 60.1513678,38.5260319 C59.3424343,46.1638683 54.5594192,52.6157838 47.9090909,55.7750102 L47.9090909,62.9270139 C64.2890926,63.898769 77.2727273,77.4902822 77.2727273,94.1142857 L0,94.1142857 C-2.03585327e-15,77.4902822 12.9836347,63.898769 29.3636364,62.9270139 L29.3636364,55.7750102 Z" id="path-5"></path>
        <path d="M70.2958755,13.329718 C81.6351609,17.9089509 89.6363636,29.0200849 89.6363636,42 L12.3636364,42 C12.3636364,28.8675297 20.5540235,17.6480268 32.1053181,13.1709708 C32.0806826,13.4048466 32.0681818,13.6406562 32.0681818,13.8781841 C32.0681818,20.0947075 40.630736,25.1341953 51.1931818,25.1341953 C61.7556277,25.1341953 70.3181818,20.0947075 70.3181818,13.8781841 C70.3181818,13.6942989 70.3106897,13.5114435 70.2958755,13.329718 Z" id="path-7"></path>
        <rect id="path-9" x="0" y="0" width="102" height="108"></rect>
        <path d="M51.69608,31.3721158 C51.3955227,31.2631015 51.0951669,31.1461607 50.7952826,31.0214181 C50.6458437,30.9806115 50.4933967,30.9470509 50.3383459,30.9211394 L50.3383459,30.8251475 C45.3913201,28.6330004 40.6106079,24.3271987 37.2156932,18.4698697 C36.0791403,16.5089472 35.1714288,14.5009842 34.4880176,12.4959995 C31.1444874,16.5629244 26.2319112,20.6752076 20.2675796,24.1053432 C16.5642579,26.2351537 12.8350351,27.8836736 9.29323308,29.0311555 L9.29323308,52.9376838 C11.4622494,57.2083525 15.0134601,60.6641426 19.3609023,62.7213667 L19.3609023,69.8142857 L17.8120301,69.8142857 C14.8409756,69.8142857 11.9784666,70.2772197 9.29323308,71.1346248 L9.29323308,88.7142857 C9.29323308,94.1551281 5.25423002,98.6562743 0,99.4049143 L0,76.2202482 L0,28.5428571 C-2.75134969e-15,12.7790724 12.8288934,2.74066484e-15 28.6541353,0 C44.4793773,-2.74066484e-15 57.3082707,12.7790724 57.3082707,28.5428571 L57.3082707,76.2202482 C52.4777724,72.2199441 46.2690376,69.8142857 39.4962406,69.8142857 L37.9473684,69.8142857 L37.9473684,62.7213667 C44.7356036,59.5091511 49.5825711,52.887134 50.2575796,45.0773436 C52.4948132,44.7437691 54.2105263,42.8214696 54.2105263,40.5 L54.2105263,35.4857143 C54.2105263,33.6950256 53.1896835,32.1418415 51.69608,31.3721158 Z" id="path-11"></path>
    </defs>
    <g id="Lsnding-Page" stroke="none" stroke-width="1" fill="none" fill-rule="evenodd">
        <g id="Avataaar/Circle" transform="translate(-4.000000, -6.000000)">
            <g id="Circle" stroke-width="1" fill-rule="evenodd" transform="translate(4.636364, 15.428571)">
                <mask id="mask-2" fill="white">
                    <use xlink:href="#path-1"></use>
                </mask>
                <use id="Circle-Background" fill="#E6E6E6" xlink:href="#path-1"></use>
                <g id="Color/Palette/Pastel-Yellow" mask="url(#mask-2)" fill="#FFFFB1">
                    <rect id="ðŸ–Color" x="0" y="0" width="93" height="93"></rect>
                </g>
            </g>
            <mask id="mask-4" fill="white">
                <use xlink:href="#path-3"></use>
            </mask>
            <g id="Mask"></g>
            <g id="Avataaar" stroke-width="1" fill-rule="evenodd" mask="url(#mask-4)">
                <g id="Body" transform="translate(12.363636, 13.885714)">
                    <mask id="mask-6" fill="white">
                        <use xlink:href="#path-5"></use>
                    </mask>
                    <use fill="#D0C6AC" xlink:href="#path-5"></use>
                    <g id="Skin/ðŸ‘¶ðŸ½-03-Brown" mask="url(#mask-6)" fill="#D08B5B">
                        <g transform="translate(-12.363636, 0.000000)" id="Color">
                            <rect x="0" y="0" width="102" height="94"></rect>
                        </g>
                    </g>
                    <path d="M60.2727273,36.2207792 L60.2727273,39.3064935 C60.2727273,51.2559272 50.5857973,60.9428571 38.6363636,60.9428571 C26.68693,60.9428571 17,51.2559272 17,39.3064935 L17,36.2207792 C17,48.1702129 26.68693,57.8571429 38.6363636,57.8571429 C50.5857973,57.8571429 60.2727273,48.1702129 60.2727273,36.2207792 Z" id="Neck-Shadow" fill-opacity="0.100000001" fill="#000000" mask="url(#mask-6)"></path>
                </g>
                <g id="Clothing/Shirt-Scoop-Neck" transform="translate(0.000000, 65.571429)">
                    <mask id="mask-8" fill="white">
                        <use xlink:href="#path-7"></use>
                    </mask>
                    <use id="Clothes" fill="#E6E6E6" fill-rule="evenodd" xlink:href="#path-7"></use>
                    <g id="Color/Palette/Gray-01" mask="url(#mask-8)" fill="#E6E6E6" fill-rule="evenodd">
                        <rect id="ðŸ–Color" x="0" y="0" width="102" height="42"></rect>
                    </g>
                </g>
                <g id="Face" transform="translate(29.363636, 31.628571)" fill="#000000">
                    <g id="Mouth/Default" transform="translate(0.772727, 20.057143)" fill-opacity="0.699999988">
                        <path d="M15.5555556,5.79545455 C15.5555556,8.78281296 17.9931164,11.2045455 21,11.2045455 C24.0068836,11.2045455 26.4444444,8.78281296 26.4444444,5.79545455" id="Mouth"></path>
                    </g>
                    <g id="Nose/Default" transform="translate(10.818182, 15.428571)" fill-opacity="0.16">
                        <path d="M6.28571429,3 C6.28571429,4.65685425 8.39637189,6 11,6 C13.6036281,6 15.7142857,4.65685425 15.7142857,3" id="Nose"></path>
                    </g>
                    <g id="Eyes/Default-ðŸ˜€" transform="translate(0.000000, 3.085714)" fill-opacity="0.599999964">
                        <ellipse id="Eye" cx="11.5178571" cy="8.5" rx="2.30357143" ry="2.31818182"></ellipse>
                        <ellipse id="Eye" cx="31.4821429" cy="8.5" rx="2.30357143" ry="2.31818182"></ellipse>
                    </g>
                    <g id="Eyebrow/Outline/Default" fill-opacity="0.599999964">
                        <g id="I-Browse" transform="translate(4.607143, 2.250000)">
                            <path d="M1.39375492,4.18446628 C2.89680058,2.11870002 7.01741561,0.960313954 10.5668764,1.81169267 C10.9787158,1.91047706 11.3945648,1.66446005 11.4957012,1.26219829 C11.5968376,0.859936539 11.3449631,0.453758385 10.9331236,0.354973995 C6.81103233,-0.633756709 2.03946682,0.70762437 0.14195937,3.31553372 C-0.103702803,3.65316859 -0.0226273647,4.12139291 0.32304643,4.36134201 C0.668720225,4.60129111 1.14809274,4.52210115 1.39375492,4.18446628 Z" id="Eyebrow" fill-rule="nonzero"></path>
                            <path d="M23.6616121,4.18446628 C25.1646577,2.11870002 29.2852727,0.960313954 32.8347335,1.81169267 C33.2465729,1.91047706 33.662422,1.66446005 33.7635584,1.26219829 C33.8646948,0.859936539 33.6128202,0.453758385 33.2009808,0.354973995 C29.0788895,-0.633756709 24.307324,0.70762437 22.4098165,3.31553372 C22.1641543,3.65316859 22.2452298,4.12139291 22.5909036,4.36134201 C22.9365774,4.60129111 23.4159499,4.52210115 23.6616121,4.18446628 Z" id="Eyebrow" fill-rule="nonzero" transform="translate(28.026845, 2.264699) scale(-1, 1) translate(-28.026845, -2.264699) "></path>
                        </g>
                    </g>
                </g>
                <g id="Top">
                    <mask id="mask-10" fill="white">
                        <use xlink:href="#path-9"></use>
                    </mask>
                    <g id="Mask"></g>
                    <g id="Top/Long-Hair/Straight" mask="url(#mask-10)">
                        <g transform="translate(-0.386364, 0.000000)">
                            <g id="Hair" stroke-width="1" fill="none" fill-rule="evenodd" transform="translate(22.845865, 6.942857)">
                                <mask id="mask-12" fill="white">
                                    <use xlink:href="#path-11"></use>
                                </mask>
                                <use id="Mask-Hair" fill="#944F23" xlink:href="#path-11"></use>
                                <g id="Color/Hair/Auburn" mask="url(#mask-12)" fill="#A55728">
                                    <g transform="translate(-22.458647, -6.942857)" id="Color">
                                        <rect x="0" y="0" width="102" height="108"></rect>
                                    </g>
                                </g>
                            </g>
                            <path d="M74.5419447,38.314973 C76.4269679,38.9986849 78.319914,39.3706118 80.1541353,39.4000323 L80.1541353,83.1631054 C75.3236371,79.1628012 69.1149023,76.7571429 62.3421053,76.7571429 L60.7932331,76.7571429 L60.7932331,69.6642238 C67.5814683,66.4520083 72.4284358,59.8299911 73.1034443,52.0202007 C75.3406779,51.6866262 77.056391,49.7643267 77.056391,47.4428571 L77.056391,42.4285714 C77.056391,40.6378827 76.0355482,39.0846986 74.5419447,38.314973 Z M73.6411472,37.9642752 C73.4917084,37.9234686 73.3392613,37.8899081 73.1842105,37.8639965 L73.1842105,37.7680047 C73.3363772,37.8354334 73.4887013,37.9008624 73.6411472,37.9642752 Z M32.1390977,59.880541 C34.308114,64.1512096 37.8593248,67.6069997 42.2067669,69.6642238 L42.2067669,76.7571429 L40.6578947,76.7571429 C37.6868402,76.7571429 34.8243313,77.2200769 32.1390977,78.0774819 L32.1390977,59.880541 Z" id="Shadow" fill-opacity="0.24" fill="#000000" fill-rule="evenodd"></path>
                            <g id="Facial-Hair/-Blank" fill="none" transform="translate(18.973684, 27.771429)"></g>
                            <g id="Top/_Resources/Blank" fill="none" transform="translate(24.007519, 32.785714)"></g>
                        </g>
                    </g>
                </g>
            </g>
        </g>
    </g>
</svg>