<?xml version="1.0" encoding="UTF-8"?>
<svg width="94px" height="103px" viewBox="0 0 94 103" version="1.1" xmlns="http://www.w3.org/2000/svg" xmlns:xlink="http://www.w3.org/1999/xlink">
    <!-- Generator: Sketch 52.2 (67145) - http://www.bohemiancoding.com/sketch -->
    <title>woman-4</title>
    <desc>Created with Sketch.</desc>
    <defs>
        <ellipse id="path-1" cx="46.3636364" cy="46.2857143" rx="46.3636364" ry="46.2857143"></ellipse>
        <path d="M4.63636364,61.7142857 L-3.19744231e-14,61.7142857 L-3.19744231e-14,-1.42108547e-14 L102,-1.42108547e-14 L102,61.7142857 L97.3636364,61.7142857 C97.3636364,87.2771798 76.6059293,108 51,108 C25.3940707,108 4.63636364,87.2771798 4.63636364,61.7142857 Z" id="path-3"></path>
        <path d="M29.3636364,55.7750102 C22.7133081,52.6157838 17.930293,46.1638683 17.1213595,38.5260319 C14.8691697,38.2093764 13.1363636,36.2745799 13.1363636,33.9350649 L13.1363636,28.5506494 C13.1363636,26.253334 14.8072215,24.3462685 17,23.97839 L17,21.6363636 C17,9.68692996 26.68693,2.19507536e-15 38.6363636,0 C50.5857973,-2.19507536e-15 60.2727273,9.68692996 60.2727273,21.6363636 L60.2727273,23.97839 C62.4655058,24.3462685 64.1363636,26.253334 64.1363636,28.5506494 L64.1363636,33.9350649 C64.1363636,36.2745799 62.4035576,38.2093764 60.1513678,38.5260319 C59.3424343,46.1638683 54.5594192,52.6157838 47.9090909,55.7750102 L47.9090909,62.9270139 C64.2890926,63.898769 77.2727273,77.4902822 77.2727273,94.1142857 L0,94.1142857 C-2.03585327e-15,77.4902822 12.9836347,63.898769 29.3636364,62.9270139 L29.3636364,55.7750102 Z" id="path-5"></path>
        <path d="M70.2958755,13.329718 C81.6351609,17.9089509 89.6363636,29.0200849 89.6363636,42 L12.3636364,42 C12.3636364,28.8675297 20.5540235,17.6480268 32.1053181,13.1709708 C32.0806826,13.4048466 32.0681818,13.6406562 32.0681818,13.8781841 C32.0681818,20.0947075 40.630736,25.1341953 51.1931818,25.1341953 C61.7556277,25.1341953 70.3181818,20.0947075 70.3181818,13.8781841 C70.3181818,13.6942989 70.3106897,13.5114435 70.2958755,13.329718 Z" id="path-7"></path>
        <path d="M13.6569393,5.84493891 C14.0683325,9.51219642 17.1989951,12.3636364 21,12.3636364 C24.8127466,12.3636364 27.9510029,9.49455253 28.3467953,5.81093019 C28.3786489,5.51447004 28.0454,5.02272727 27.6277427,5.02272727 C21.8356264,5.02272727 17.3980805,5.02272727 14.4226539,5.02272727 C14.0025732,5.02272727 13.61578,5.47803501 13.6569393,5.84493891 Z" id="path-9"></path>
        <rect id="path-11" x="0" y="0" width="102" height="108"></rect>
        <path d="M84.0263158,102.985714 C84.0263158,86.3397493 71.0083539,72.7342922 54.5977444,71.7946573 L54.5977444,64.6418343 C61.363541,61.4277549 66.2008824,54.8131731 66.9011251,47.0067325 C69.1416961,46.6747668 70.8609023,44.7434176 70.8609023,42.4105263 L70.8609023,37.4323308 C70.8609023,37.2063987 70.8447774,36.9842328 70.8136159,36.7669211 C62.4817245,32.2974879 55.3291531,25.8978211 50.6657701,18.6309099 C43.6649814,28.5123247 29.6369044,30.2915783 19.8381867,36.5173248 C19.7791087,36.8131566 19.7481203,37.1191249 19.7481203,37.4323308 L19.7481203,42.4105263 C19.7481203,44.7434176 21.4673265,46.6747668 23.7078974,47.0067325 C24.4081402,54.8131731 29.2454816,61.4277549 36.0112782,64.6418343 L36.0112782,71.7946573 C19.6006686,72.7342922 6.58270677,86.3397493 6.58270677,102.985714 L6.19754863,102.985714 C-8.68675965,94.5197352 8.07629414,80.9571384 8.1989929,76.3714286 C8.34059012,71.8415068 -0.107414168,70.8020895 0.00103532008,59.7857143 C0.365726476,48.5890442 12.1476808,49.598318 12.082236,42.0428571 C12.1476808,34.7140058 7.67231721,31.6905743 12.082236,17.7428571 C16.5882647,3.67945492 28.2346208,0.296294827 44.9183197,0.00616868998 L44.9183197,0 C44.9829307,0.000936056442 45.0474671,0.00191720273 45.1119287,0.00294387345 C45.1763904,0.00191720273 45.2409268,0.000936056442 45.3055377,0 L45.3055377,0.00616868998 C61.9892367,0.296294827 73.6355927,3.67945492 78.1416215,17.7428571 C82.5515402,31.6905743 78.0761766,34.7140058 78.1416215,42.0428571 C78.0761766,49.598318 89.858131,48.5890442 90.2228221,59.7857143 C90.3312716,70.8020895 81.8832673,71.8415068 82.0248646,76.3714286 C82.1475633,80.9571384 98.9106171,94.5197352 84.0263018,102.985718 Z" id="path-13"></path>
        <path d="M84.0263158,102.985714 C84.0263158,86.3397493 71.0083539,72.7342922 54.5977444,71.7946573 L54.5977444,54 L36.0112782,54 L36.0112782,71.7946573 C19.6006686,72.7342922 6.58270677,86.3397493 6.58270677,102.985714 L6.19754863,102.985714 C-8.68675965,94.5197352 8.07629414,80.9571384 8.1989929,76.3714286 C8.34059012,71.8415068 -0.107414168,70.8020895 0.00103532008,59.7857143 C0.365726476,48.5890442 12.1476808,49.598318 12.082236,42.0428571 C12.1476808,34.7140058 7.67231721,31.6905743 12.082236,17.7428571 C16.5882647,3.67945492 28.2346208,0.296294827 44.9183197,0.00616868998 L44.9183197,0 C44.9829307,0.000936056442 45.0474671,0.00191720273 45.1119287,0.00294387345 C45.1763904,0.00191720273 45.2409268,0.000936056442 45.3055377,0 L45.3055377,0.00616868998 C61.9892367,0.296294827 73.6355927,3.67945492 78.1416215,17.7428571 C82.5515402,31.6905743 78.0761766,34.7140058 78.1416215,42.0428571 C78.0761766,49.598318 89.858131,48.5890442 90.2228221,59.7857143 C90.3312716,70.8020895 81.8832673,71.8415068 82.0248646,76.3714286 C82.1475633,80.9571384 98.9106171,94.5197352 84.0263018,102.985718 Z" id="path-15"></path>
        <filter x="-8.2%" y="-27.1%" width="116.8%" height="155.6%" filterUnits="objectBoundingBox" id="filter-17">
            <feOffset dx="0" dy="2" in="SourceAlpha" result="shadowOffsetOuter1"></feOffset>
            <feColorMatrix values="0 0 0 0 0   0 0 0 0 0   0 0 0 0 0  0 0 0 0.1 0" type="matrix" in="shadowOffsetOuter1" result="shadowMatrixOuter1"></feColorMatrix>
            <feMerge>
                <feMergeNode in="shadowMatrixOuter1"></feMergeNode>
                <feMergeNode in="SourceGraphic"></feMergeNode>
            </feMerge>
        </filter>
        <linearGradient x1="50%" y1="0%" x2="50%" y2="70.5058195%" id="linearGradient-18">
            <stop stop-color="#FFFFFF" stop-opacity="0.5" offset="0%"></stop>
            <stop stop-color="#000000" stop-opacity="0.5" offset="100%"></stop>
        </linearGradient>
        <path d="M18.2082772,2.44116448 C19.1807729,2.4505247 19.6405006,2.61579546 19.806183,3.65240495 C19.9740527,4.70242611 19.8108309,5.88293154 19.6172613,6.91716606 C19.321849,8.49638894 18.8305432,10.0436194 17.686897,11.1978604 C17.0844528,11.8057159 16.3496813,12.2902121 15.5681578,12.621033 C15.1531315,12.7967816 14.714866,12.9236336 14.2767371,13.0198901 C14.1486476,13.0479708 13.055171,13.2019255 13.7258294,13.1236908 C12.1607319,13.306285 10.4627605,13.2990203 9.15561908,12.2808518 C7.70699146,11.1524563 6.71494743,9.36688945 6.27873239,7.58830784 C6.02351037,6.5476469 5.48722971,4.05866647 6.4671073,3.22658477 C7.58956473,2.27323932 18.2082772,2.44116448 18.2082772,2.44116448 Z" id="path-19"></path>
        <linearGradient x1="50%" y1="0%" x2="50%" y2="100%" id="linearGradient-20">
            <stop stop-color="#FFFFFF" stop-opacity="0.5" offset="0%"></stop>
            <stop stop-color="#000000" stop-opacity="0.5" offset="70.5058195%"></stop>
        </linearGradient>
        <path d="M30.567308,2.44015336 C29.5948121,2.44965329 29.1350842,2.61478434 28.9694018,3.65139384 C28.8015321,4.701415 28.9647539,5.88192043 29.1581868,6.91615495 C29.4537359,8.49537783 29.9450418,10.0426083 31.0886883,11.1968492 C31.6911327,11.8047048 32.4259043,12.2892009 33.2074279,12.6201616 C33.6224543,12.7957705 34.0607199,12.9226224 34.4988489,13.018879 C34.6269384,13.0469597 35.7202786,13.2010541 35.0497567,13.1226797 C36.6148545,13.3052738 38.3128263,13.2980092 39.619968,12.2798407 C41.0685959,11.1514452 42.0606402,9.36601804 42.4968553,7.58743643 C42.7520774,6.54663579 43.2882215,4.05779506 42.3084804,3.22557366 C41.1860227,2.27222821 30.567308,2.44015336 30.567308,2.44015336 Z" id="path-21"></path>
    </defs>
    <g id="Lsnding-Page" stroke="none" stroke-width="1" fill="none" fill-rule="evenodd">
        <g id="Avataaar/Circle" transform="translate(-4.000000, -5.000000)">
            <g id="Circle" stroke-width="1" fill-rule="evenodd" transform="translate(4.636364, 15.428571)">
                <mask id="mask-2" fill="white">
                    <use xlink:href="#path-1"></use>
                </mask>
                <use id="Circle-Background" fill="#E6E6E6" xlink:href="#path-1"></use>
                <g id="Color/Palette/Pink" mask="url(#mask-2)" fill="#FF488E">
                    <rect id="ðŸ–Color" x="0" y="0" width="93" height="93"></rect>
                </g>
            </g>
            <mask id="mask-4" fill="white">
                <use xlink:href="#path-3"></use>
            </mask>
            <g id="Mask"></g>
            <g id="Avataaar" stroke-width="1" fill-rule="evenodd" mask="url(#mask-4)">
                <g id="Body" transform="translate(12.363636, 13.885714)">
                    <mask id="mask-6" fill="white">
                        <use xlink:href="#path-5"></use>
                    </mask>
                    <use fill="#D0C6AC" xlink:href="#path-5"></use>
                    <g id="Skin/ðŸ‘¶ðŸ¼-04-Light" mask="url(#mask-6)" fill="#EDB98A">
                        <g transform="translate(-12.363636, 0.000000)" id="Color">
                            <rect x="0" y="0" width="102" height="94"></rect>
                        </g>
                    </g>
                    <path d="M60.2727273,36.2207792 L60.2727273,39.3064935 C60.2727273,51.2559272 50.5857973,60.9428571 38.6363636,60.9428571 C26.68693,60.9428571 17,51.2559272 17,39.3064935 L17,36.2207792 C17,48.1702129 26.68693,57.8571429 38.6363636,57.8571429 C50.5857973,57.8571429 60.2727273,48.1702129 60.2727273,36.2207792 Z" id="Neck-Shadow" fill-opacity="0.100000001" fill="#000000" mask="url(#mask-6)"></path>
                </g>
                <g id="Clothing/Shirt-Scoop-Neck" transform="translate(0.000000, 65.571429)">
                    <mask id="mask-8" fill="white">
                        <use xlink:href="#path-7"></use>
                    </mask>
                    <use id="Clothes" fill="#E6E6E6" fill-rule="evenodd" xlink:href="#path-7"></use>
                    <g id="Color/Palette/Gray-01" mask="url(#mask-8)" fill="#E6E6E6" fill-rule="evenodd">
                        <rect id="ðŸ–Color" x="0" y="0" width="102" height="42"></rect>
                    </g>
                </g>
                <g id="Face" transform="translate(29.363636, 31.628571)">
                    <g id="Mouth/Smile" transform="translate(0.772727, 20.057143)">
                        <mask id="mask-10" fill="white">
                            <use xlink:href="#path-9"></use>
                        </mask>
                        <use id="Mouth" fill-opacity="0.699999988" fill="#000000" fill-rule="evenodd" xlink:href="#path-9"></use>
                        <path d="M18.2575758,0.772727273 L24.1313131,0.772727273 C25.8383751,0.772727273 27.2222222,2.15657441 27.2222222,3.86363636 L27.2222222,3.86363636 C27.2222222,5.57069832 25.8383751,6.95454545 24.1313131,6.95454545 L18.2575758,6.95454545 C16.5505138,6.95454545 15.1666667,5.57069832 15.1666667,3.86363636 L15.1666667,3.86363636 C15.1666667,2.15657441 16.5505138,0.772727273 18.2575758,0.772727273 Z" id="Teeth" fill="#FFFFFF" fill-rule="evenodd" mask="url(#mask-10)"></path>
                        <g id="Tongue" stroke-width="1" fill-rule="evenodd" mask="url(#mask-10)" fill="#FF4F6D">
                            <g transform="translate(14.777778, 9.272727)">
                                <ellipse cx="4.27777778" cy="4.25" rx="4.27777778" ry="4.25"></ellipse>
                                <ellipse cx="8.16666667" cy="4.25" rx="4.27777778" ry="4.25"></ellipse>
                            </g>
                        </g>
                    </g>
                    <g id="Nose/Default" transform="translate(10.818182, 15.428571)" fill="#000000" fill-opacity="0.16">
                        <path d="M6.28571429,3 C6.28571429,4.65685425 8.39637189,6 11,6 C13.6036281,6 15.7142857,4.65685425 15.7142857,3" id="Nose"></path>
                    </g>
                    <g id="Eyes/Happy-ðŸ˜" transform="translate(0.000000, 3.085714)" fill="#000000" fill-opacity="0.599999964">
                        <path d="M6.20434999,8.67282492 C6.91327738,7.20510536 8.50955506,6.18181818 10.3651424,6.18181818 C12.2141794,6.18181818 13.8057342,7.19789351 14.518394,8.65729799 C14.7300956,9.09082639 14.4288434,9.44561792 14.1249652,9.18271336 C13.1839176,8.36855265 11.8475429,7.86010006 10.3651424,7.86010006 C8.92910591,7.86010006 7.63010368,8.33724504 6.6947695,9.10722501 C6.35278654,9.38875009 5.99700313,9.10210308 6.20434999,8.67282492 Z" id="Squint"></path>
                        <path d="M28.4722071,8.67282492 C29.1811345,7.20510536 30.7774122,6.18181818 32.6329996,6.18181818 C34.4820365,6.18181818 36.0735914,7.19789351 36.7862511,8.65729799 C36.9979527,9.09082639 36.6967005,9.44561792 36.3928223,9.18271336 C35.4517748,8.36855265 34.1154,7.86010006 32.6329996,7.86010006 C31.1969631,7.86010006 29.8979608,8.33724504 28.9626266,9.10722501 C28.6206437,9.38875009 28.2648603,9.10210308 28.4722071,8.67282492 Z" id="Squint"></path>
                    </g>
                    <g id="Eyebrow/Outline/Raised-Excited">
                        <g id="I-Browse" transform="translate(4.607143, 0.000000)">
                            <path d="M1.52642152,6.42296884 C2.10046994,2.85178559 6.93319285,0.415753489 10.4288502,1.98789102 C10.8140534,2.16113238 11.270106,1.99656541 11.4474721,1.62032041 C11.6248383,1.2440754 11.4563531,0.798628685 11.0711498,0.625387321 C6.66070815,-1.3581655 0.743193372,1.62467797 0.00929276297,6.1903095 C-0.056484034,6.59951016 0.229814178,6.98331541 0.648757716,7.04756252 C1.06770126,7.11180962 1.46064473,6.83216951 1.52642152,6.42296884 Z" id="Eyebrow" fill="#724133"></path>
                            <path d="M23.7942787,6.42296884 C24.3683271,2.85178559 29.20105,0.415753489 32.6967073,1.98789102 C33.0819105,2.16113238 33.5379631,1.99656541 33.7153293,1.62032041 C33.8926954,1.2440754 33.7242102,0.798628685 33.339007,0.625387321 C28.9285653,-1.3581655 23.0110505,1.62467797 22.2771499,6.1903095 C22.2113731,6.59951016 22.4976713,6.98331541 22.9166149,7.04756252 C23.3355584,7.11180962 23.7285019,6.83216951 23.7942787,6.42296884 Z" id="Eyebrow" fill-opacity="0.599999964" fill="#000000" fill-rule="nonzero" transform="translate(28.026823, 3.528914) scale(-1, 1) translate(-28.026823, -3.528914) "></path>
                        </g>
                    </g>
                </g>
                <g id="Top">
                    <mask id="mask-12" fill="white">
                        <use xlink:href="#path-11"></use>
                    </mask>
                    <g id="Mask"></g>
                    <g id="Top/Long-Hair/Big-Hair" mask="url(#mask-12)">
                        <g transform="translate(-0.386364, 0.000000)">
                            <g id="Hair" stroke-width="1" fill="none" fill-rule="evenodd" transform="translate(6.195489, 5.014286)">
                                <mask id="mask-14" fill="white">
                                    <use xlink:href="#path-13"></use>
                                </mask>
                                <use fill="#314756" xlink:href="#path-13"></use>
                                <g id="Color/Hair/Blonde-Golden" mask="url(#mask-14)" fill="#D6B370">
                                    <g transform="translate(-5.808271, -5.014286)" id="Color">
                                        <rect x="0" y="0" width="102" height="108"></rect>
                                    </g>
                                </g>
                            </g>
                            <g id="Shadow" stroke-width="1" fill="none" fill-rule="evenodd" transform="translate(6.195489, 5.014286)">
                                <mask id="mask-16" fill="white">
                                    <use xlink:href="#path-15"></use>
                                </mask>
                                <g id="Shape"></g>
                                <path d="M11.6548254,44.3790617 C10.7356486,45.5462267 9.49831075,47.2609869 9.43334377,47.1318982 C10.158472,46.2126635 10.6000157,45.1330693 10.5869082,43.7539197 C10.6553159,36.7720228 5.97734263,33.8917232 10.5869082,20.6043035 C10.8458424,19.8677677 11.2707589,19.171723 11.8434081,18.5161695 C7.83858468,31.8054933 12.1464535,34.8514533 12.082236,42.0428571 C12.0899031,42.9280111 11.9349634,43.6956132 11.6548254,44.3790617 Z M78.3804493,18.5161695 C78.9530985,19.171723 79.3780151,19.8677677 79.6369492,20.6043035 C83.570189,31.9421631 80.7413303,35.7027763 79.8690436,40.8997848 C79.7531242,41.2101742 79.8424734,41.5760453 79.7205347,41.8897319 C67.8433182,37.8561006 57.1495003,30.3015712 50.9172048,21.450315 C42.0948489,32.7995046 22.5958779,32.9296774 13.0390775,42.789639 C13.1889194,42.5796934 13.331176,42.3841975 13.4591184,42.2149967 C22.1852881,30.6748454 41.9151452,30.9821689 50.6657701,18.6309099 C56.628136,27.9220154 66.8587894,35.8519552 78.2215868,40.0860314 C78.3382441,39.7567567 78.2527648,39.3727042 78.3636635,39.0468904 C79.1798285,33.7115268 81.7864455,29.818387 78.3804493,18.5161695 Z" id="Shadow-Mask" fill-opacity="0.16" fill="#000000" mask="url(#mask-16)"></path>
                            </g>
                            <path d="M19.6546071,47.2292824 C28.3807768,35.6891311 48.110634,35.9964546 56.8612588,23.6451956 C62.8236247,32.9363011 73.0542781,40.8662409 84.4170755,45.1003171 C84.5337328,44.7710424 84.4482535,44.3869899 84.5591522,44.0611761 C85.393659,38.6059105 88.0999958,34.6584196 84.3371102,22.7571429 C79.8310814,8.69374063 68.1847254,5.31058054 51.5010265,5.0204544 C51.2429558,5.01620292 51.1784194,5.01522177 51.1138084,5.01428571 C34.4301095,5.31058054 22.7837535,8.69374063 18.2777247,22.7571429 C13.8678059,36.70486 18.3431696,39.7282916 18.2777247,47.0571429 C18.2902644,48.5048271 17.8678447,49.63807 17.1741227,50.6029847 C17.2451859,50.7579133 18.782465,48.3826696 19.6546071,47.2292824 Z" id="Light" fill-opacity="0.1" fill="#FFFFFF" fill-rule="evenodd"></path>
                            <g id="Facial-Hair/-Blank" fill="none" transform="translate(18.973684, 27.771429)"></g>
                            <g id="Top/_Resources/Sunglasses" fill="none" transform="translate(24.007519, 32.785714)" fill-rule="evenodd" stroke-width="1">
                                <g id="Sunglasses" filter="url(#filter-17)" transform="translate(3.098592, 3.111111)">
                                    <g id="shades">
                                        <use fill-opacity="0.700000048" fill="#000000" xlink:href="#path-19"></use>
                                        <use fill="url(#linearGradient-18)" style="mix-blend-mode: screen;" xlink:href="#path-19"></use>
                                    </g>
                                    <g id="shades">
                                        <use fill-opacity="0.700000048" fill="#000000" xlink:href="#path-21"></use>
                                        <use fill="url(#linearGradient-20)" style="mix-blend-mode: screen;" xlink:href="#path-21"></use>
                                    </g>
                                    <g id="Glasses" fill="#252C2F">
                                        <path d="M17.9133992,2.82923148 C18.8319882,2.83791667 19.2662326,2.99126852 19.422731,3.95312037 C19.5812954,4.92741667 19.4271212,6.02278704 19.2442815,6.98243519 C18.9652443,8.44776852 18.5011722,9.88341667 17.4209198,10.9544167 C16.8518698,11.5184352 16.1578277,11.9679907 15.4196251,12.2749537 C15.0276042,12.4380278 14.6136323,12.5557315 14.1997895,12.6450463 C14.0788002,12.6711019 13.0459364,12.8139537 13.6794193,12.7413611 C12.2010773,12.910787 10.5972266,12.9040463 9.36254174,11.9593056 C7.99421344,10.912287 7.0571597,9.25549074 6.64512464,7.60517593 C6.40404991,6.63956481 5.89749599,4.33008333 6.82305768,3.55800926 C7.88329582,2.67341667 17.9133992,2.82923148 17.9133992,2.82923148 Z M8.60548702,0.19075 C6.49831051,0.263601852 5.09201973,0.63537963 4.05269969,2.74912037 C2.1479898,6.62284259 5.40811557,12.4323241 9.0448964,14.0153611 C13.2965663,15.8663426 18.0462679,13.8179352 20.2940606,10.1133796 C21.4844558,8.1519537 22.0861742,5.18123148 22.047437,2.91815741 C21.9981116,0.02975 19.988682,-0.0503611111 17.6267436,0.0131574074 L8.60548702,0.19075 Z" id="Frame"></path>
                                        <path d="M30.8621854,2.82822037 C29.9435964,2.83703519 29.509352,2.99025741 29.3528536,3.95210926 C29.1942892,4.92640556 29.3484634,6.02177593 29.531174,6.98142407 C29.8103404,8.44675741 30.2744124,9.88240556 31.3546648,10.9534056 C31.9237148,11.5174241 32.617757,11.9669796 33.3559596,12.2740722 C33.7479804,12.4370167 34.1619523,12.5547204 34.5757951,12.6440352 C34.6967844,12.6700907 35.7295191,12.8130722 35.0961653,12.74035 C36.5745074,12.9097759 38.1783581,12.9030352 39.4130429,11.9582944 C40.7813712,10.9112759 41.7184249,9.25460926 42.13046,7.60429444 C42.3715347,6.6385537 42.8779595,4.32920185 41.9525269,3.55699815 C40.8922888,2.67240556 30.8621854,2.82822037 30.8621854,2.82822037 Z M40.1699685,0.189738889 C42.2772741,0.262590741 43.6835649,0.634498148 44.7228849,2.74810926 C46.6274657,6.62183148 43.3674691,12.431313 39.7306882,14.0144796 C35.4790183,15.8653315 30.7293167,13.8169241 28.4813949,10.1124981 C27.2911288,8.15094259 26.6894104,5.18022037 26.7280185,2.9171463 C26.777473,0.0287388889 28.7869026,-0.0513722222 31.148841,0.0122759259 L40.1699685,0.189738889 Z" id="Frame"></path>
                                        <path d="M5.11149406,1.91593889 C3.78997018,1.99047593 2.27981324,2.00836481 1.04192396,2.58197593 C-0.269039387,3.18942037 -0.471631778,4.56505 1.18103174,4.75456852 C1.92536759,4.83999444 2.67055315,4.69882778 3.40347876,4.56751296 C4.00373004,4.45992037 4.81907641,4.49479074 5.38631083,4.26443889 C6.44333572,3.83536481 6.37548122,1.8433463 5.11149406,1.91593889" id="Frame"></path>
                                        <path d="M43.6648369,1.91593889 C44.9863614,1.99047593 46.4965192,2.00836481 47.7344091,2.58197593 C49.0453731,3.18942037 49.2479656,4.56505 47.5953012,4.75456852 C46.850965,4.83999444 46.105779,4.69882778 45.3728531,4.56751296 C44.7726015,4.45992037 43.9572547,4.49479074 43.39002,4.26443889 C42.3328732,3.83536481 42.4008491,1.8433463 43.6648369,1.91593889" id="Frame"></path>
                                        <path d="M28.3170328,2.72713519 C27.5632062,1.83269074 25.5987119,1.3162463 24.3593785,1.3162463 C23.1199161,1.3162463 21.2130111,1.83269074 20.4593136,2.72713519 C20.0791722,3.17811667 20.0662598,3.78154259 20.7250511,4.06426481 C21.5453766,4.41646852 22.2778977,3.77778333 22.9344939,3.44372778 C23.7743172,3.01646852 25.0645254,3.06339444 25.8418526,3.44372778 C26.5034846,3.76754259 27.2308407,4.41646852 28.0512954,4.06426481 C28.7100866,3.78154259 28.6971742,3.17811667 28.3170328,2.72713519" id="Frame"></path>
                                    </g>
                                </g>
                            </g>
                        </g>
                    </g>
                </g>
            </g>
        </g>
    </g>
</svg>