<?xml version="1.0" encoding="UTF-8"?>
<svg width="94px" height="102px" viewBox="0 0 94 102" version="1.1" xmlns="http://www.w3.org/2000/svg" xmlns:xlink="http://www.w3.org/1999/xlink">
    <!-- Generator: Sketch 52.2 (67145) - http://www.bohemiancoding.com/sketch -->
    <title>woman-1</title>
    <desc>Created with Sketch.</desc>
    <defs>
        <ellipse id="path-1" cx="46.3636364" cy="46.2857143" rx="46.3636364" ry="46.2857143"></ellipse>
        <path d="M4.63636364,61.7142857 L-3.19744231e-14,61.7142857 L-3.19744231e-14,-1.42108547e-14 L102,-1.42108547e-14 L102,61.7142857 L97.3636364,61.7142857 C97.3636364,87.2771798 76.6059293,108 51,108 C25.3940707,108 4.63636364,87.2771798 4.63636364,61.7142857 Z" id="path-3"></path>
        <path d="M29.3636364,55.7750102 C22.7133081,52.6157838 17.930293,46.1638683 17.1213595,38.5260319 C14.8691697,38.2093764 13.1363636,36.2745799 13.1363636,33.9350649 L13.1363636,28.5506494 C13.1363636,26.253334 14.8072215,24.3462685 17,23.97839 L17,21.6363636 C17,9.68692996 26.68693,2.19507536e-15 38.6363636,0 C50.5857973,-2.19507536e-15 60.2727273,9.68692996 60.2727273,21.6363636 L60.2727273,23.97839 C62.4655058,24.3462685 64.1363636,26.253334 64.1363636,28.5506494 L64.1363636,33.9350649 C64.1363636,36.2745799 62.4035576,38.2093764 60.1513678,38.5260319 C59.3424343,46.1638683 54.5594192,52.6157838 47.9090909,55.7750102 L47.9090909,62.9270139 C64.2890926,63.898769 77.2727273,77.4902822 77.2727273,94.1142857 L0,94.1142857 C-2.03585327e-15,77.4902822 12.9836347,63.898769 29.3636364,62.9270139 L29.3636364,55.7750102 Z" id="path-5"></path>
        <path d="M64.0666158,11.5516979 C78.5925213,14.0805184 89.6363636,26.7505454 89.6363636,42 L12.3636364,42 C12.3636364,26.6116816 23.6095281,13.849982 38.3310698,11.485143 C38.2775074,11.7884367 38.25,12.0967264 38.25,12.4090909 C38.25,16.9428466 44.0448599,20.6181818 51.1931818,20.6181818 C58.3415038,20.6181818 64.1363636,16.9428466 64.1363636,12.4090909 C64.1363636,12.1195475 64.1127287,11.8335053 64.0666158,11.5516979 Z" id="path-7"></path>
        <path d="M5.375,5.42768221 C9.06454695,5.42768221 10.75,7.14751344 10.75,4.46704813 C10.75,1.78658283 8.34353053,0 5.375,0 C2.40646947,0 0,1.78658283 0,4.46704813 C0,7.14751344 1.68545305,5.42768221 5.375,5.42768221 Z" id="path-9"></path>
        <path d="M5.375,5.42768221 C9.06454695,5.42768221 10.75,7.14751344 10.75,4.46704813 C10.75,1.78658283 8.34353053,0 5.375,0 C2.40646947,0 0,1.78658283 0,4.46704813 C0,7.14751344 1.68545305,5.42768221 5.375,5.42768221 Z" id="path-11"></path>
        <rect id="path-13" x="0" y="0" width="102" height="108"></rect>
        <path d="M63.0446986,27.6205442 C61.7485821,26.8964273 59.9243833,26.2238659 58.9567916,25.3465531 C58.0517756,24.5260347 56.959907,24.6570249 56.5263938,23.6181999 L55.5402923,23.9675447 C54.8685517,23.7603369 51.4652056,22.603288 50.902327,22.375228 L50.6897871,21.9598321 L50.0443529,22.2061167 C49.3548943,22.1790447 46.5125699,22.079328 46.5125699,22.079328 C45.4936628,22.0672238 41.1965969,22.163318 40.2067816,22.2437078 C40.2067816,22.2437078 39.7334219,21.890467 39.0688769,21.2103784 L38.5538913,22.4534731 C38.5538913,22.4534731 33.9379769,23.1444901 33.1023633,23.2085107 L32.6909783,22.4544914 L31.6313737,23.6034665 C30.1247933,23.9493003 26.2747807,24.6930189 24.5490837,25.1503241 C22.9908145,25.5633456 21.4620312,26.0222309 19.9390612,26.5082281 C19.8131262,27.4537499 19.7481203,28.4185316 19.7481203,29.3984962 L19.7481203,43.887218 C19.7481203,52.5373469 24.8130955,60.0044874 32.1390977,63.4846914 L32.1390977,70.5857143 L30.5902256,70.5857143 C28.4069916,70.5857143 26.2823702,70.8356903 24.2436333,71.3084765 C24.2328163,71.3246485 24.2219196,71.3408709 24.210944,71.3571429 L24.1955791,71.3571429 C24.1686271,71.4045305 24.1414669,71.4518327 24.1140999,71.4990502 C22.6326808,73.645399 19.8656433,76.5837618 17.6611639,78.4298338 C17.6863086,78.4602787 17.7116383,78.4906391 17.7371529,78.5209151 C17.5755826,78.6861765 17.4393688,78.8539334 17.3561755,79.0182152 C17.0136512,79.6945238 17.2686682,80.8685907 17.4302975,81.6012695 C17.5442659,82.118041 17.7402483,82.6155316 17.9986695,83.0903267 C19.2366157,85.3645499 22.3147688,86.4288222 25.5564083,85.9170048 C24.5771155,86.7361134 22.6333852,87.3916012 21.3150499,87.4381301 C19.5232002,87.5014629 17.3324998,86.8122333 15.7928042,86.0561896 C16.0266213,87.4448249 16.8332206,88.2216224 17.5830291,89.3725253 C15.7350076,89.2777269 14.2733027,87.2360141 13.6540201,86.4201189 C13.257181,85.897456 12.8889694,85.3217702 12.6722514,84.7235229 C11.8215503,86.46243 11.342852,91.1405548 11.7649916,92.4499905 C10.9517384,92.0866638 10.1934963,91.6975621 9.42527336,91.2508851 C2.8670988,87.4370589 2.23721631,80.9662009 2.3542796,78.6919107 C2.47722313,76.3028716 3.30757552,74.2163036 4.29576604,71.9754874 C4.93361781,70.5291431 5.66911257,69.0692082 6.02509947,67.5494888 C6.20568486,66.7784488 6.07724795,66.6252049 5.59831753,65.9997098 C4.80479403,64.9633549 3.89412988,63.9974963 3.07468689,62.9764055 C2.13934119,61.8109079 1.34218123,60.5974087 0.78564706,59.2584489 C-0.198210656,56.8911679 -0.231093601,54.1738829 0.536433023,51.7341642 C1.75983332,47.8454232 6.62105411,43.9552632 8.75216712,41.2851765 C6.54688005,34.3965811 9.81646787,26.9661049 13.0554389,23.0555583 C16.038029,19.4545514 20.0158692,0.182415741 42.0467257,0.0767344601 C64.0775821,-0.0289468211 65.9406917,18.1489539 67.228001,21.3010662 C68.7265348,24.9704855 72.4590936,31.1963283 73.3857737,35.0563486 C73.8061338,36.8072394 74.0414983,38.5464813 73.8370051,40.3392815 C73.7901179,40.7504761 73.4201267,41.9699337 73.6525511,42.2130888 C73.9848623,42.5606828 75.0842359,42.9136326 75.5521795,43.1838347 C76.4113915,43.6800532 77.2843757,44.1648905 78.1117879,44.6996041 C80.2669749,46.0923232 81.6506118,48.2633795 82.522977,50.4257996 C83.5748444,53.0330222 83.4060968,55.746759 82.1102767,58.3202397 C81.2852629,59.9587248 79.9990369,61.5875694 78.3503247,62.7060695 C77.8462485,63.0480399 77.9266376,62.9120015 77.867371,63.42884 C77.831161,63.7444329 77.8698468,64.1030732 77.8642761,64.4181305 C77.8549141,64.9395214 77.8281435,65.4589039 77.7807147,65.9791568 C77.5524684,68.4836142 77.0558199,71.0657981 76.1884065,73.4774656 C75.6406927,75.0003315 74.9616018,76.532771 73.6587408,77.7123946 C72.556814,78.7101875 70.9726298,79.4184303 69.4563778,79.8413407 C68.9312565,79.987689 68.9389163,80.1431423 68.9084319,80.2949134 C68.8675023,80.4991047 68.9195734,81.4750725 68.9632884,81.7393163 C69.124144,82.712807 69.4935162,83.7538482 69.7770833,84.7050453 C70.5463121,87.2854217 71.6764022,89.8252276 72.1633792,92.4665267 C72.3972737,93.7350572 72.3780082,95.0626358 72.0791215,96.329024 C71.8390373,97.346031 71.4022745,98.3425518 70.834444,99.2622833 C70.1856055,100.313166 68.2832691,101.974815 66.6960674,101.259208 C68.8330719,100.243071 68.92615,98.0735548 68.1966129,97.4665373 C67.4488934,96.8444566 66.4241834,96.8085055 65.4311185,96.811786 C64.6064142,96.8145309 63.7913041,96.8775959 62.9735632,96.9799593 C61.1831836,97.2040343 59.126955,97.7643889 57.3370396,97.3475708 C56.3186741,97.110441 55.3644498,96.639261 54.4456616,96.208049 C54.3638976,96.1696648 53.8890803,95.9447645 53.2316857,95.4809783 C46.3979116,90.0928471 47.8700507,81.1914379 53.6446556,70.6399963 C53.0634869,70.6039873 52.8647128,70.5857143 52.2744361,70.5857143 L50.7255639,70.5857143 L50.7255639,63.4846914 C58.0515662,60.0044874 63.1165414,52.5373469 63.1165414,43.887218 L63.1165414,29.3984962 C63.1165414,28.7998702 63.092284,28.2069098 63.0446986,27.6205442 Z" id="path-15"></path>
    </defs>
    <g id="Lsnding-Page" stroke="none" stroke-width="1" fill="none" fill-rule="evenodd">
        <g id="Avataaar/Circle" transform="translate(-4.000000, -6.000000)">
            <g id="Circle" stroke-width="1" fill-rule="evenodd" transform="translate(4.636364, 15.428571)">
                <mask id="mask-2" fill="white">
                    <use xlink:href="#path-1"></use>
                </mask>
                <use id="Circle-Background" fill="#E6E6E6" xlink:href="#path-1"></use>
                <g id="Color/Palette/Pastel-Blue" mask="url(#mask-2)" fill="#B1E2FF">
                    <rect id="ðŸ–Color" x="0" y="0" width="93" height="93"></rect>
                </g>
            </g>
            <mask id="mask-4" fill="white">
                <use xlink:href="#path-3"></use>
            </mask>
            <g id="Mask"></g>
            <g id="Avataaar" stroke-width="1" fill-rule="evenodd" mask="url(#mask-4)">
                <g id="Body" transform="translate(12.363636, 13.885714)">
                    <mask id="mask-6" fill="white">
                        <use xlink:href="#path-5"></use>
                    </mask>
                    <use fill="#D0C6AC" xlink:href="#path-5"></use>
                    <g id="Skin/ðŸ‘¶ðŸ¾-02-Dark-Brown" mask="url(#mask-6)" fill="#AE5D29">
                        <g transform="translate(-12.363636, 0.000000)" id="Color">
                            <rect x="0" y="0" width="102" height="94"></rect>
                        </g>
                    </g>
                    <path d="M60.2727273,36.2207792 L60.2727273,39.3064935 C60.2727273,51.2559272 50.5857973,60.9428571 38.6363636,60.9428571 C26.68693,60.9428571 17,51.2559272 17,39.3064935 L17,36.2207792 C17,48.1702129 26.68693,57.8571429 38.6363636,57.8571429 C50.5857973,57.8571429 60.2727273,48.1702129 60.2727273,36.2207792 Z" id="Neck-Shadow" fill-opacity="0.100000001" fill="#000000" mask="url(#mask-6)"></path>
                </g>
                <g id="Clothing/Graphic-Shirt" transform="translate(0.000000, 65.571429)">
                    <mask id="mask-8" fill="white">
                        <use xlink:href="#path-7"></use>
                    </mask>
                    <use id="Clothes" fill="#E6E6E6" fill-rule="evenodd" xlink:href="#path-7"></use>
                    <g id="Color/Palette/Gray-01" mask="url(#mask-8)" fill="#E6E6E6" fill-rule="evenodd">
                        <rect id="ðŸ–Color" x="0" y="0" width="102" height="42"></rect>
                    </g>
                    <g id="Clothing/Graphic/Skull" mask="url(#mask-8)" fill="#FFFFFF" fill-rule="evenodd">
                        <g transform="translate(29.750000, 22.145455)" id="Fill-49">
                            <path d="M25.5193411,7.69976799 C25.4028996,8.77274996 23.2938216,9.35099353 22.5203663,8.64553637 C22.1639584,8.3203594 22.157739,7.6511275 22.0791323,7.21540396 C21.930557,6.3912368 21.8227536,5.57030099 21.7856097,4.7337186 C21.7629779,4.22197304 21.627187,3.81244053 22.1936735,3.73624844 C22.5390246,3.68998895 22.8945687,3.91686452 23.1768618,4.09646017 C24.1334447,4.70429621 25.651504,6.46827925 25.5193411,7.69976799 M20.6718134,5.4383254 C20.7830721,6.53001525 21.1878534,8.42835489 20.3060763,9.34266002 C19.5179363,10.1598542 17.898293,9.34963296 17.6546986,8.38736763 C17.3523652,7.19363479 18.5440772,5.76741402 19.2748602,4.9604241 C19.499278,4.71245965 19.9956231,4.02809137 20.3836465,4.25717787 C20.5329128,4.34510491 20.6543644,5.2662129 20.6718134,5.4383254 M21.2346719,9.70015061 C21.4874226,9.11170274 23.9370144,10.8663318 22.7800275,11.7010434 C22.5913715,11.8372708 21.153992,12.2675521 20.8784367,12.0651668 C20.2979565,11.6386272 21.0468796,10.1470989 21.2346719,9.70015061 M28.6634359,6.77168705 C28.4901557,0.792478437 20.7436824,-0.893781865 16.6041332,2.51309321 C15.0212881,3.81567189 14.117052,5.41060373 14.0755892,7.45010282 C14.0403457,9.1778606 14.3172832,10.807317 15.6523875,11.9952674 C16.2313129,12.5104144 16.6138078,12.8255571 16.9209786,13.5293136 C17.2428341,14.2658938 17.3896818,15.2043491 17.9927938,15.7827628 C18.3253605,16.1018172 18.8096123,16.3593056 19.2695046,16.153519 C20.1144833,15.7752796 19.8442836,14.6169217 20.1003169,13.9711597 C20.8964039,15.8909283 22.9191009,16.5031862 23.2862201,14.0674202 C23.689101,14.7701562 24.7424306,15.6904139 25.5139855,14.9211799 C25.831522,14.6046765 25.879377,14.0908901 25.9332788,13.6745547 C26.0289889,12.9357635 25.8626191,12.6454513 26.4627942,12.1388078 C28.0418384,10.8059564 28.7197563,8.78839655 28.6634359,6.77168705"></path>
                        </g>
                    </g>
                </g>
                <g id="Face" transform="translate(29.363636, 31.628571)">
                    <g id="Mouth/Default" transform="translate(0.772727, 20.057143)" fill="#000000" fill-opacity="0.699999988">
                        <path d="M15.5555556,5.79545455 C15.5555556,8.78281296 17.9931164,11.2045455 21,11.2045455 C24.0068836,11.2045455 26.4444444,8.78281296 26.4444444,5.79545455" id="Mouth"></path>
                    </g>
                    <g id="Nose/Default" transform="translate(10.818182, 15.428571)" fill="#000000" fill-opacity="0.16">
                        <path d="M6.28571429,3 C6.28571429,4.65685425 8.39637189,6 11,6 C13.6036281,6 15.7142857,4.65685425 15.7142857,3" id="Nose"></path>
                    </g>
                    <g id="Eyes/Squint-ðŸ˜Š" transform="translate(0.000000, 3.085714)">
                        <g id="Eye" transform="translate(6.142857, 5.022727)">
                            <mask id="mask-10" fill="white">
                                <use xlink:href="#path-9"></use>
                            </mask>
                            <use id="The-white-stuff" fill="#FFFFFF" xlink:href="#path-9"></use>
                            <ellipse fill-opacity="0.699999988" fill="#000000" mask="url(#mask-10)" cx="5.375" cy="3.86363636" rx="2.30357143" ry="2.31818182"></ellipse>
                        </g>
                        <g id="Eye" transform="translate(26.107143, 5.022727)">
                            <mask id="mask-12" fill="white">
                                <use xlink:href="#path-11"></use>
                            </mask>
                            <use id="Eyeball-Mask" fill="#FFFFFF" xlink:href="#path-11"></use>
                            <ellipse fill-opacity="0.699999988" fill="#000000" mask="url(#mask-12)" cx="5.375" cy="3.86363636" rx="2.30357143" ry="2.31818182"></ellipse>
                        </g>
                    </g>
                    <g id="Eyebrow/Outline/Raised-Excited">
                        <g id="I-Browse" transform="translate(4.607143, 0.000000)">
                            <path d="M1.52642152,6.42296884 C2.10046994,2.85178559 6.93319285,0.415753489 10.4288502,1.98789102 C10.8140534,2.16113238 11.270106,1.99656541 11.4474721,1.62032041 C11.6248383,1.2440754 11.4563531,0.798628685 11.0711498,0.625387321 C6.66070815,-1.3581655 0.743193372,1.62467797 0.00929276297,6.1903095 C-0.056484034,6.59951016 0.229814178,6.98331541 0.648757716,7.04756252 C1.06770126,7.11180962 1.46064473,6.83216951 1.52642152,6.42296884 Z" id="Eyebrow" fill="#724133"></path>
                            <path d="M23.7942787,6.42296884 C24.3683271,2.85178559 29.20105,0.415753489 32.6967073,1.98789102 C33.0819105,2.16113238 33.5379631,1.99656541 33.7153293,1.62032041 C33.8926954,1.2440754 33.7242102,0.798628685 33.339007,0.625387321 C28.9285653,-1.3581655 23.0110505,1.62467797 22.2771499,6.1903095 C22.2113731,6.59951016 22.4976713,6.98331541 22.9166149,7.04756252 C23.3355584,7.11180962 23.7285019,6.83216951 23.7942787,6.42296884 Z" id="Eyebrow" fill-opacity="0.599999964" fill="#000000" fill-rule="nonzero" transform="translate(28.026823, 3.528914) scale(-1, 1) translate(-28.026823, -3.528914) "></path>
                        </g>
                    </g>
                </g>
                <g id="Top">
                    <mask id="mask-14" fill="white">
                        <use xlink:href="#path-13"></use>
                    </mask>
                    <g id="Mask"></g>
                    <g id="Top/Long-Hair/Curvy" mask="url(#mask-14)">
                        <g transform="translate(-0.386364, 0.000000)">
                            <path d="M39.0702642,16.3792809 C35.2761913,18.6963931 31.9011632,21.7262774 29.6559157,25.2103783 C28.586485,26.8699472 27.7066921,28.6198374 26.8869397,30.3779186 C26.475632,31.2601115 26.1003796,32.153152 25.7406789,33.0516108 C25.5135931,33.6186572 25.1648792,34.2301781 25.4928575,34.8253114 C25.6929406,34.7088084 25.7690743,34.750693 25.643268,34.9593461 C26.6856187,35.2424541 28.1346346,34.4444021 29.0377164,34.1496851 C30.8821788,33.5476288 32.7278018,32.9795647 34.6167529,32.4788956 C36.3424498,32.0215903 40.1924624,31.2778717 41.6990429,30.9320379 L42.7586475,29.7830628 L43.1700324,30.5370821 C44.0056461,30.4730616 48.6215605,29.7820445 48.6215605,29.7820445 L49.1365461,28.5389498 C49.8010911,29.2190384 50.2744507,29.5722792 50.2744507,29.5722792 C51.2642661,29.4918894 55.561332,29.3957952 56.580239,29.4078995 C56.580239,29.4078995 59.4225634,29.5076161 60.1120221,29.5346882 L60.7574563,29.2884036 L60.9699961,29.7037994 C61.5328748,29.9318594 64.9362209,31.0889083 65.6079615,31.2961162 L66.5940629,30.9467714 C67.0275762,31.9855964 68.1194447,31.8546062 69.0244608,32.6751245 C70.2214773,33.7604562 72.7294789,34.5324283 73.9268049,35.4763121 C74.3555212,35.8143213 74.7561515,36.1674647 75.159103,36.527737 C75.6066205,36.9277406 75.5405451,36.9863064 75.6859265,37.4452254 C75.7294867,37.5825239 76.1718977,38.2932825 76.3604524,38.3514225 C77.0315739,38.5583361 72.428658,26.5925211 71.1651018,25.0626212 C69.8610029,23.4834547 61.4030686,12.8532053 50.1881274,13.2012502" id="Top-Shadow" fill-opacity="0.16" fill="#000000" fill-rule="evenodd"></path>
                            <g id="Hair" stroke-width="1" fill="none" fill-rule="evenodd" transform="translate(10.067669, 6.171429)">
                                <mask id="mask-16" fill="white">
                                    <use xlink:href="#path-15"></use>
                                </mask>
                                <use id="Hair-Mask" fill="#361A0A" xlink:href="#path-15"></use>
                                <g id="Color/Hair/Black" mask="url(#mask-16)" fill="#2C1B18">
                                    <g transform="translate(-9.680451, -6.171429)" id="Color">
                                        <rect x="0" y="0" width="102" height="108"></rect>
                                    </g>
                                </g>
                                <path d="M24.2706163,71.1496795 C27.0105659,67.405656 24.0651984,57.0035238 21.7337032,53.1516573 C28.2533579,50.1959729 41.1278124,50.7420515 60.3570669,54.7898929 C58.5005938,58.2044198 57.74329,61.252789 58.0851555,63.9350005 C56.3282674,66.085406 54.8766591,68.3205 53.7303306,70.6402827 L40.2276627,73.9594757 C31.6949009,74.9830031 26.3758854,74.0464044 24.2706163,71.1496795 Z" id="Shadow" fill-opacity="0.24" fill="#000000" mask="url(#mask-16)"></path>
                            </g>
                            <path d="M30.6058914,65.6078033 C30.5829681,65.5300097 30.5265117,65.4430443 30.4488357,65.3511247 C30.5014974,65.4364834 30.5543914,65.5217751 30.6058914,65.6078033 Z M21.8428042,46.4304577 C22.1744964,48.8085173 22.7434874,51.0937869 23.5685012,53.3741694 C24.3667443,55.5808421 25.2798844,57.7939418 26.5935774,59.8118881 C27.8178287,61.6923903 29.2748914,63.4470301 30.4488512,65.3510979 C30.1402158,64.9856288 29.4918415,64.5414959 29.2430143,64.2797292 C28.8339504,63.8493206 28.4508835,63.4057902 28.0876236,62.9460583 C27.3431538,62.0035645 26.6794599,61.0176215 26.0378943,60.0208328 C24.7785935,58.0642109 23.8344275,55.9418257 23.0161451,53.8189718 C21.4093683,49.6501874 19.7972529,44.5950786 21.20944,40.1917753 C21.100346,40.4749653 21.3870853,41.151207 21.4321929,41.4632516 C21.5109573,42.008409 21.5815976,42.5572487 21.6171111,43.1063561 C21.6889894,44.2181614 21.6884478,45.3237405 21.8428042,46.4304577 Z M26.6620203,63.6587532 C26.1359706,62.9908131 25.1590763,62.4642671 24.5546491,61.8219681 C24.0066258,61.2397214 23.5823197,60.5873132 23.1970864,59.9167622 C22.3237927,58.3968419 21.7499273,56.8444519 21.5640806,55.145245 C21.6064803,55.3468254 21.919758,55.6954236 22.0184069,55.860986 C22.2560152,56.2598621 22.4911476,56.6592069 22.7106509,57.0659159 C23.1355759,57.8531573 23.4901701,58.667044 23.9196601,59.452277 C24.7086186,60.8948054 25.7123609,62.2910727 26.6620203,63.6587532 Z M28.4729266,70.7780426 C28.9045056,71.5348227 29.2629684,72.3078712 29.4893578,73.1317331 C29.6088196,73.5663595 29.7049926,74.0068103 29.7876255,74.4480645 C29.8143187,74.5903959 29.8194252,75.1024142 29.8872801,75.3238112 C29.0297703,73.668656 28.3752836,71.9159576 27.3539007,70.3319682 C26.3455935,68.768264 25.0510113,67.3304889 23.6961566,65.9806835 C22.2655551,64.5553608 20.8267522,63.2105096 20.0593803,61.4112154 C19.3914309,59.8449671 19.1334739,58.2413619 19.2888362,56.5682647 C19.2896872,57.3052282 19.9690876,58.3509558 20.2037557,59.0631485 C20.5250028,60.0379782 20.7802518,61.0322228 21.2638245,61.9589169 C22.0867492,63.5360107 23.5711241,64.7525226 24.8126293,66.0811725 C26.1881423,67.553091 27.50199,69.0753544 28.4729266,70.7780426 Z M22.9344097,67.1835046 C23.344402,67.5759537 23.7041027,67.9947134 24.0211717,68.4466793 C24.368725,68.9421614 24.6237419,69.4633515 24.8516788,70.0087098 C25.0479706,70.4782161 25.1345495,71.3518873 25.4431076,71.743667 C24.4446266,70.5303016 23.4165897,69.384152 22.7279821,68.0062285 C22.4932366,67.5346468 22.1287388,66.8401284 21.8596403,66.2723424 C21.9492366,66.5009698 22.7320055,66.9897571 22.9344097,67.1835046 Z M18.9362691,69.6322412 C20.0348689,71.2714627 21.4715055,72.7492057 22.4110292,74.4645471 C23.5067663,76.46502 23.988869,78.6328629 24.0860478,80.844155 C24.1320839,81.8899496 24.129608,82.9519455 23.9880953,83.9948613 C23.9122711,84.5530737 23.7906429,85.1079386 23.6516834,85.6577825 C23.5989933,85.8664594 23.3262583,86.4008382 23.2732587,86.7265402 C23.1610699,82.6607218 23.8365242,78.5945686 21.7139108,74.8065174 C20.7088533,73.012713 19.1638964,71.4833531 17.9661835,69.7852843 C16.889093,68.2584014 15.8371482,66.7609088 14.9794063,65.128382 C15.5045276,65.7902299 16.4510148,66.3104158 17.037956,66.9676442 C17.7731413,67.7907028 18.3343178,68.7341339 18.9362691,69.6322412 Z M23.2758499,86.7265469 C23.2595499,86.8052239 23.2590499,86.8721571 23.2826499,86.919404 C23.2798499,86.8551862 23.2781499,86.7908326 23.2758499,86.7265469 Z M19.5779121,78.1047571 C19.5781442,78.2960944 19.8938978,78.6901503 19.9801672,78.8895884 C20.1821072,79.3560819 20.3465993,79.8457396 20.4286132,80.3402844 C20.5903973,81.3155157 20.3780895,82.3228152 20.0152939,83.2565388 C19.2799539,85.1492255 18.128045,86.8254023 16.6801122,88.3864286 C17.1971868,87.7123293 17.4030728,86.6165246 17.7668742,85.8646986 C18.1403471,85.0928553 18.5411321,84.3329956 18.8705032,83.545955 C19.6137351,81.7698248 19.548124,79.954597 19.5779121,78.1047571 Z M16.2311865,85.3203445 C16.3863166,85.1089897 16.3058501,84.0927192 16.3879414,83.8268688 C16.5396672,83.3357383 16.8021892,82.8618804 17.1037064,82.424777 C16.9427734,82.6943765 17.1805365,83.376041 17.1020043,83.7259112 C16.9732579,84.2999902 16.648916,84.8565958 16.2311865,85.3203445 Z M38.5771255,16.4886585 C38.5434027,16.51049 38.5100972,16.5502957 38.4771255,16.6029071 C38.5105145,16.5648757 38.5433192,16.5265357 38.5771255,16.4886585 Z M32.8542657,24.8136612 C33.4042233,24.3331086 33.6971523,23.197269 34.0764281,22.5844271 C34.5121078,21.880402 35.0127796,21.2038925 35.4876093,20.518479 C36.4292995,19.159167 37.3179127,17.8247597 38.4770946,16.5878286 C38.2363914,16.9482096 38.0228457,18.0412695 37.890695,18.3287441 C37.5454627,19.0800345 37.1337682,19.8000601 36.6435416,20.4904948 C35.5358892,22.0505168 34.3473835,23.5002756 32.8542657,24.8136612 Z M32.6470181,20.8755528 C32.9375486,20.3638693 33.3803464,19.9313853 33.8783876,19.5588867 C33.6565632,19.7527011 33.556599,20.5520601 33.4041769,20.8220614 C33.0963925,21.3667502 32.6480239,21.8364573 32.1667723,22.2767743 C32.4238009,22.0522976 32.4653495,21.1956312 32.6470181,20.8755528 Z M78.80104,58.6779304 C78.7984094,58.697814 78.7932255,58.7374472 78.7851788,58.7977004 C78.7844051,58.2093615 78.5218058,57.5629786 78.4907024,56.9580366 C78.4472969,56.1131529 78.5690799,55.2935756 78.9100567,54.4926099 C79.5835767,52.9106289 80.8472877,51.7125276 82.4583199,50.7748541 C82.0150578,51.0350809 81.580616,52.0141953 81.2962753,52.4212391 C80.8691838,53.0330767 80.4128459,53.650605 80.0519073,54.2923015 C79.2995455,55.6299223 79.0814348,57.230381 78.80104,58.6779304 Z M78.2174258,50.3287254 C78.1255856,50.8011104 78.0046538,51.2698133 77.8343588,51.7273359 C77.6506786,52.2206756 77.4110586,52.7003579 77.143817,53.1653117 C76.9773132,53.4549287 76.3774509,54.0627496 76.3778378,54.3830957 C76.3459607,52.4938234 77.0470251,50.782365 78.3806026,49.2694073 C78.2344475,49.5229394 78.2711991,50.0526319 78.2174258,50.3287254 Z M77.9070727,63.9205667 C79.3227415,63.7210616 80.6584854,64.4070777 81.5552227,65.2902556 C82.0343852,65.7622389 82.4602387,66.3044507 82.7419488,66.8844211 C82.9536376,67.3204534 82.9532507,68.0351232 83.2375915,68.3962407 C82.5416336,67.4633874 81.6592101,66.7097538 80.7886245,65.9029636 C80.1832688,65.3418725 78.9734859,63.9047 77.9070727,63.9205667 Z M77.6058417,67.9230121 C77.5315649,67.8980405 76.857039,67.7080421 76.700903,67.7996939 C76.9322442,67.6967279 77.215966,67.5713343 77.4702866,67.5377934 C79.1292118,67.3183378 81.1458261,68.7494181 81.3685791,70.1302204 C81.1831966,69.6572328 80.1971725,69.2659888 79.7512798,69.0307335 C79.0454183,68.658101 78.3712019,68.2068046 77.6058417,67.9230121 Z M78.3062097,70.9360466 C78.593568,71.0060742 79.2043397,71.3893514 79.4862819,71.3852006 C78.3520137,71.4126493 77.3286965,71.2870549 76.2369827,71.0326525 C76.2959399,71.0486531 76.9181626,70.8568471 76.9382792,70.8540353 C77.4087761,70.7878237 77.8511098,70.8250468 78.3062097,70.9360466 Z M73.9131643,76.2808796 C75.5737917,76.1874202 77.5282766,76.4290355 79.1140857,76.8272421 C79.9012647,77.0249395 80.6394675,77.3233937 81.3182488,77.7124284 C81.8658079,78.0263476 82.8398394,78.4576265 83.2060393,78.9225803 C81.7581839,76.4340566 78.6176692,75.1415587 75.4001698,75.7825187 C74.9712988,75.868413 74.3126341,76.2749212 73.9131643,76.2808796 Z M73.5416722,81.0762838 C74.5826301,80.7043207 75.7338427,80.3459482 76.8650934,80.2938626 C77.938238,80.2449236 79.1285232,80.4054649 80.1214334,80.7462302 C79.7798376,80.6537081 78.9627932,80.8743686 78.603634,80.9148722 C78.1015695,80.9715102 77.5983444,81.0300227 77.0950419,81.0758151 C76.4780031,81.1319176 75.8553935,81.1630484 75.2360336,81.1617764 C74.7948605,81.1608391 73.9506586,80.9531664 73.5416722,81.0762838 Z M69.4897428,87.7154817 C69.5876953,89.2479212 70.4777786,90.5831989 71.7865198,91.603821 C73.1737932,92.6856336 75.0308672,93.1780361 76.0379364,94.6233093 C76.5287821,95.3275352 76.7902982,96.1473133 76.7482854,96.975393 C76.7266214,97.4021195 76.6189201,97.8310553 76.5024757,98.2461328 C76.4258778,98.5192137 76.1531428,98.9666271 76.1533749,99.2330132 C76.1654449,97.7339138 76.1857936,95.9885796 75.1325336,94.7306939 C74.0751728,93.4678539 72.2313294,93.0229845 70.9395325,91.9862279 C69.6700961,90.9674134 68.7071287,89.6358179 68.490256,88.1350448 C68.315164,86.9224158 68.4015108,84.8077297 69.6635195,83.9848719 C69.4074194,84.1352371 69.4580978,84.9002518 69.4519855,85.1152887 C69.4274587,85.9758382 69.434809,86.8571415 69.4897428,87.7154817 Z M68.5398358,93.602406 C68.6933411,93.8028483 69.534835,94.0465389 69.7820374,94.1847196 C70.3460766,94.5000446 70.8915466,94.8584172 71.3389868,95.2944495 C72.2359562,96.1686563 72.814077,97.3947418 72.8557803,98.5706833 C72.8557803,98.2927822 72.2183154,97.6229675 72.0392775,97.38557 C71.7419383,96.9911794 71.406068,96.626045 71.064008,96.260509 C70.2302513,95.3692973 69.3643853,94.4999777 68.5398358,93.602406 Z M88.7379101,59.3194053 C89.2041516,59.7246415 89.5166556,60.2283582 89.7736068,60.74995 C90.3663509,61.9532062 90.4766829,63.3409711 90.0016984,64.6072924 C90.080308,64.3354835 89.8464135,63.764685 89.7805703,63.489194 C89.6364269,62.8863273 89.4111207,62.3168677 89.1756788,61.737299 C88.7186446,60.6128405 88.3491176,59.5589452 87.5552847,58.5738056 C87.7607837,58.8312875 88.4570511,59.0751791 88.7379101,59.3194053 Z M66.4116129,16.1935585 C66.4117676,16.3214292 66.7666713,16.6921202 66.846751,16.8315728 C67.0466793,17.1794346 67.2045174,17.544502 67.2586002,17.9328003 C67.3199559,18.3729834 67.2449054,18.8037937 67.1108977,19.2319261 C67.0312823,19.4863954 66.6524708,19.9780614 66.6527803,20.2073583 C66.590883,18.8580216 66.2912226,17.5615068 66.4116129,16.1935585 Z M69.3689425,18.8247216 C69.4329288,19.3041362 69.2757097,19.8446743 68.9957017,20.2680534 C69.046767,20.1483504 68.8199907,19.3490583 68.8126404,19.2027769 C68.7896611,18.7502755 68.8393336,18.2850539 68.8691991,17.8328202 C68.8695086,18.0799252 69.3273166,18.5126771 69.3689425,18.8247216 Z M45.8378606,19.4296838 C45.3596265,20.0130686 44.8158587,20.5598328 44.2308517,21.0663613 C43.8344768,21.4094697 43.0753063,21.7950902 42.7733249,22.1888782 C44.1290307,19.9856868 45.6952647,18.0853012 47.536787,16.1595422 C47.2596418,16.5145674 47.1872993,17.2846701 46.984044,17.6998816 C46.6843063,18.312121 46.2832117,18.8863339 45.8378606,19.4296838 Z M48.1216624,20.385614 C48.3424036,20.2560027 48.5489859,19.6171181 48.7171918,19.4019472 C49.000372,19.0397586 49.3461459,18.6899553 49.7152086,18.3880868 C49.63598,18.4729099 49.4820878,19.1761316 49.3957411,19.3142453 C49.1160426,19.7618596 48.6214831,20.126927 48.1216624,20.385614 Z" id="Lights" fill-opacity="0.6" fill="#FFFFFF" fill-rule="evenodd"></path>
                            <g id="Facial-Hair/-Blank" fill="none" transform="translate(18.973684, 27.771429)"></g>
                        </g>
                    </g>
                </g>
            </g>
        </g>
    </g>
</svg>